SplineFontDB: 3.0
FontName: Domitian-Italic
FullName: Domitian Italic
FamilyName: Domitian
Weight: Regular
Copyright: Copyright (URW)++,Copyright 2014 by (URW)++ Design & Development\nCopyright 2019, Daniel Benjamin Miller
Version: 1.00
ItalicAngle: -9.5
UnderlinePosition: -100
UnderlineWidth: 50
Ascent: 733
Descent: 267
InvalidEm: 0
sfntRevision: 0x00010000
LayerCount: 2
Layer: 0 0 "Back" 1
Layer: 1 0 "Fore" 0
XUID: [1021 921 275376880 12919520]
UniqueID: 4016855
StyleMap: 0x0001
FSType: 4
OS2Version: 3
OS2_WeightWidthSlopeOnly: 0
OS2_UseTypoMetrics: 0
CreationTime: 1464719619
ModificationTime: 1555407734
PfmFamily: 81
TTFWeight: 400
TTFWidth: 5
LineGap: 200
VLineGap: 0
Panose: 0 0 5 0 0 0 0 0 0 0
OS2TypoAscent: 733
OS2TypoAOffset: 0
OS2TypoDescent: -267
OS2TypoDOffset: 0
OS2TypoLinegap: 200
OS2WinAscent: 1098
OS2WinAOffset: 0
OS2WinDescent: 305
OS2WinDOffset: 0
HheadAscent: 733
HheadAOffset: 0
HheadDescent: -267
HheadDOffset: 0
OS2SubXSize: 650
OS2SubYSize: 600
OS2SubXOff: -13
OS2SubYOff: 75
OS2SupXSize: 650
OS2SupYSize: 600
OS2SupXOff: 59
OS2SupYOff: 350
OS2StrikeYSize: 50
OS2StrikeYPos: 282
OS2CapHeight: 688
OS2XHeight: 471
OS2Vendor: 'UKWN'
OS2CodePages: 6000009f.00000000
OS2UnicodeRanges: 00000287.00000800.00000000.00000000
Lookup: 1 0 0 "'onum' Oldstyle Figures lookup 22" { "'onum' Oldstyle Figures lookup 22-1" ("onum") } ['onum' ('DFLT' <'dflt' > 'cyrl' <'dflt' > 'grek' <'dflt' > 'latn' <'AZE ' 'CRT ' 'DEU ' 'MOL ' 'ROM ' 'SRB ' 'TRK ' 'dflt' > ) ]
Lookup: 1 0 0 "'aalt' Access All Alternates lookup 0" { "'aalt' Access All Alternates lookup 0 subtable"  } ['aalt' ('DFLT' <'dflt' > 'cyrl' <'dflt' > 'grek' <'dflt' > 'latn' <'AZE ' 'CRT ' 'DEU ' 'MOL ' 'ROM ' 'SRB ' 'TRK ' 'dflt' > ) ]
Lookup: 3 0 0 "'aalt' Access All Alternates lookup 1" { "'aalt' Access All Alternates lookup 1 subtable"  } ['aalt' ('DFLT' <'dflt' > 'cyrl' <'dflt' > 'grek' <'dflt' > 'latn' <'AZE ' 'CRT ' 'DEU ' 'MOL ' 'ROM ' 'SRB ' 'TRK ' 'dflt' > ) ]

StartChar: exclam
Encoding: 1 33 1
Width: 333
Flags: MW
HStem: -8 20
LayerCount: 2
Fore
SplineSet
136 109 m 0
 162 109 181 88 181 61 c 0
 181 23 154 -8 120 -8 c 0
 93 -8 76 10 76 39 c 0
 76 78 103 109 136 109 c 0
196 707 m 1
 281 733 l 1
 292 724 l 1
 245 543 231 484 169 208 c 1
 139 191 l 1
 133 194 l 1
 154 348 l 2
 163 414 180 558 189 636 c 2
 196 707 l 1
EndSplineSet
Validated: 1
EndChar

StartChar: quotedbl
Encoding: 2 34 2
Width: 500
Flags: W
LayerCount: 2
Fore
SplineSet
170 508 m 1
 140 508 l 1
 202 695 l 2
 210 720 226 733 247 733 c 0
 271 733 288 717 288 694 c 0
 288 680 285 669 279 661 c 2
 170 508 l 1
337 508 m 1
 307 508 l 1
 369 695 l 2
 377 720 393 733 414 733 c 0
 438 733 455 717 455 694 c 0
 455 681 452 669 446 661 c 2
 337 508 l 1
EndSplineSet
Validated: 1
EndChar

StartChar: numbersign
Encoding: 3 35 3
Width: 500
Flags: MW
HStem: 0 20 227 56<4 111 4 120 178 303 4 169 370 470> 423 56<31 141 31 149 31 199 207 332 398 495> 672 20<180 238 238 238 370 428 428 428>
LayerCount: 2
Fore
SplineSet
470 283 m 1
 470 227 l 1
 361 227 l 1
 330 0 l 1
 272 0 l 1
 303 227 l 1
 169 227 l 1
 136 0 l 1
 78 0 l 1
 111 227 l 1
 4 227 l 1
 4 283 l 1
 120 283 l 1
 141 423 l 1
 31 423 l 1
 31 479 l 1
 149 479 l 1
 180 692 l 1
 238 692 l 1
 207 479 l 1
 340 479 l 1
 370 692 l 1
 428 692 l 1
 398 479 l 1
 495 479 l 1
 495 423 l 1
 390 423 l 1
 370 283 l 1
 470 283 l 1
332 423 m 1
 199 423 l 1
 178 283 l 1
 312 283 l 1
 332 423 l 1
EndSplineSet
Validated: 1
EndChar

StartChar: dollar
Encoding: 4 36 4
Width: 500
Flags: MW
VStem: 72 67<452.5 481> 360 74<188 224>
LayerCount: 2
Fore
SplineSet
289 733 m 1
 326 733 l 1
 316 673 l 1
 373 673 413 662 450 639 c 1
 452 629 l 1
 442 592 433 551 427 514 c 1
 403 514 l 1
 403 586 l 1
 384 608 346 624 308 628 c 1
 267 371 l 1
 334 360 364 349 391 326 c 0
 420 303 434 268 434 224 c 0
 434 152 394 82 324 34 c 0
 286 8 258 -3 205 -11 c 1
 191 -113 l 1
 150 -113 l 1
 170 -12 l 1
 79 -2 43 8 15 30 c 1
 24 68 30 104 37 175 c 1
 63 175 l 1
 63 85 l 1
 87 57 119 42 178 32 c 1
 222 305 l 1
 112 329 72 368 72 449 c 0
 72 513 100 570 154 613 c 0
 187 640 215 653 280 671 c 1
 289 733 l 1
255 301 m 1
 212 32 l 1
 248 34 268 41 294 59 c 0
 335 90 360 140 360 193 c 0
 360 255 334 282 255 301 c 1
234 377 m 1
 274 628 l 1
 241 627 223 621 200 605 c 0
 163 579 139 530 139 480 c 0
 139 425 166 396 234 377 c 1
EndSplineSet
Validated: 1
EndChar

StartChar: percent
Encoding: 5 37 5
Width: 889
Flags: MW
HStem: -7 20 0 23<615.5 652 615.5 686> 297 23<645.5 698> 379 23<192 229 192 263> 676 23<222.5 275> 690 20<630 674 674 674>
VStem: 74 70<481 549 468 569> 320 66<565.5 601.5 510.5 617> 497 70<102 170 89 190> 743 66<186.5 222.5 131.5 238>
LayerCount: 2
Fore
SplineSet
254 699 m 0x7bc0
 330 699 386 641 386 562 c 0
 386 459 311 379 215 379 c 0
 134 379 74 440 74 522 c 0
 74 616 158 699 254 699 c 0x7bc0
254 676 m 0
 191 676 144 600 144 498 c 0
 144 438 170 402 214 402 c 0
 244 402 268 419 288 453 c 0
 307 487 320 542 320 589 c 0
 320 645 296 676 254 676 c 0
677 320 m 0
 753 320 809 262 809 183 c 0
 809 80 734 0 638 0 c 0
 557 0 497 61 497 143 c 0
 497 237 582 320 677 320 c 0
677 297 m 0
 614 297 567 221 567 119 c 0
 567 59 594 23 637 23 c 0
 667 23 691 40 711 74 c 0
 730 108 743 163 743 210 c 0
 743 266 719 297 677 297 c 0
247 -7 m 1x87c0
 206 -7 l 1
 630 710 l 1
 674 710 l 1
 247 -7 l 1x87c0
EndSplineSet
Validated: 1
Ligature2: "'frac' Diagonal Fractions lookup 6 subtable" zerosuperior fraction zerosuperior
Ligature2: "'frac' Diagonal Fractions lookup 6 subtable" zerosuperior slash zerosuperior
Ligature2: "'frac' Diagonal Fractions lookup 6 subtable" zero fraction zero
Ligature2: "'frac' Diagonal Fractions lookup 6 subtable" zero slash zero
EndChar

StartChar: ampersand
Encoding: 6 38 6
Width: 778
Flags: MW
HStem: -18 47<272.5 317> 642 50<339.5 435>
VStem: 47 83<145 202> 177 72<499.5 524> 564 70<187 225.5> 731 35<434.5 464 411 468.5>
LayerCount: 2
Fore
SplineSet
488 548 m 1
 465 548 l 1
 465 610 l 1
 429 633 404 642 375 642 c 0
 304 642 249 589 249 522 c 0
 249 477 273 444 318 428 c 0
 339 420 348 419 389 419 c 1
 386 412 385 410 381 401 c 0
 374 388 369 376 369 371 c 2
 369 369 l 1
 333 369 l 2
 213 369 130 298 130 194 c 0
 130 96 212 29 333 29 c 0
 456 29 564 108 564 199 c 0
 564 252 528 288 474 288 c 0
 427 288 412 272 397 205 c 1
 374 207 l 1
 382 306 l 1
 413 336 434 345 507 357 c 2
 618 375 l 2
 695 388 731 413 731 456 c 0
 731 481 724 492 693 508 c 1
 714 524 l 1
 752 507 766 484 766 444 c 0
 766 378 719 332 640 321 c 2
 555 309 l 1
 572 307 l 2
 604 304 634 263 634 223 c 0
 634 151 569 74 464 21 c 0
 414 -3 347 -18 287 -18 c 0
 140 -18 47 56 47 173 c 0
 47 231 68 279 107 314 c 0
 144 346 175 362 256 390 c 1
 200 416 177 445 177 490 c 0
 177 558 244 637 337 676 c 0
 362 687 387 692 416 692 c 0
 454 692 483 685 514 667 c 1
 488 548 l 1
EndSplineSet
Validated: 1
EndChar

StartChar: quoteright
Encoding: 572 8217 7
Width: 278
Flags: W
LayerCount: 2
Fore
SplineSet
249 733 m 1
 258 715 l 1
 209 622 168 560 117 501 c 1
 85 488 l 1
 78 497 l 1
 125 570 150 632 160 708 c 1
 184 712 216 721 249 733 c 1
EndSplineSet
Validated: 1
EndChar

StartChar: parenleft
Encoding: 8 40 8
Width: 333
Flags: MW
VStem: 54 72<195 257.5 161.5 308>
LayerCount: 2
Fore
SplineSet
308 733 m 1
 331 712 l 1
 239 607 204 553 171 469 c 0
 141 392 126 305 126 210 c 0
 126 113 142 29 174 -38 c 2
 200 -93 l 1
 178 -106 l 1
 84 46 54 133 54 257 c 0
 54 359 81 449 139 539 c 0
 180 603 219 647 308 733 c 1
EndSplineSet
Validated: 1
EndChar

StartChar: parenright
Encoding: 9 41 9
Width: 333
Flags: MW
VStem: 207 72<369.5 431.5 319.5 465>
LayerCount: 2
Fore
SplineSet
25 -106 m 1
 2 -85 l 1
 94 20 129 74 162 158 c 0
 192 235 207 322 207 417 c 0
 207 513 190 598 159 665 c 2
 133 720 l 1
 155 733 l 1
 249 581 279 493 279 370 c 0
 279 269 252 178 194 88 c 0
 153 24 115 -20 25 -106 c 1
EndSplineSet
Validated: 1
EndChar

StartChar: asterisk
Encoding: 10 42 10
Width: 389
Flags: MW
HStem: 686 20<255 255>
LayerCount: 2
Fore
SplineSet
76 608 m 1
 109 665 l 1
 119 664 l 1
 223 560 l 1
 245 701 l 1
 255 706 l 1
 317 688 l 1
 318 680 l 1
 247 549 l 1
 387 574 l 1
 394 569 l 1
 400 511 l 1
 394 505 l 1
 249 524 l 1
 314 404 l 1
 310 396 l 1
 252 368 l 1
 245 372 l 1
 223 514 l 1
 116 416 l 1
 104 417 l 1
 78 474 l 1
 82 481 l 1
 209 537 l 1
 81 599 l 1
 76 608 l 1
EndSplineSet
Validated: 1
EndChar

StartChar: plus
Encoding: 11 43 11
Width: 606
Flags: MW
HStem: 233 56<51 275 51 275 331 555>
VStem: 275 56<7 233 7 233 289 512>
LayerCount: 2
Fore
SplineSet
275 289 m 1
 275 512 l 1
 331 512 l 1
 331 289 l 1
 555 289 l 1
 555 233 l 1
 331 233 l 1
 331 7 l 1
 275 7 l 1
 275 233 l 1
 51 233 l 1
 51 289 l 1
 275 289 l 1
EndSplineSet
Validated: 1
EndChar

StartChar: comma
Encoding: 12 44 12
Width: 250
Flags: W
LayerCount: 2
Fore
SplineSet
15 -143 m 1
 8 -133 l 1
 48 -82 73 -27 95 62 c 2
 103 94 l 1
 194 123 l 1
 203 110 l 1
 169 31 123 -40 50 -130 c 1
 15 -143 l 1
EndSplineSet
Validated: 1
EndChar

StartChar: hyphen
Encoding: 13 45 13
Width: 333
Flags: MW
HStem: 223 58<19 304 38 286>
LayerCount: 2
Fore
SplineSet
19 223 m 1
 38 281 l 1
 304 281 l 1
 286 223 l 1
 19 223 l 1
EndSplineSet
Validated: 1
AlternateSubs2: "'aalt' Access All Alternates lookup 1 subtable" endash emdash minus
EndChar

StartChar: period
Encoding: 14 46 14
Width: 250
Flags: MW
HStem: -5 20
LayerCount: 2
Fore
SplineSet
113 112 m 0
 139 112 158 91 158 64 c 0
 158 26 131 -5 97 -5 c 0
 70 -5 53 13 53 42 c 0
 53 81 80 112 113 112 c 0
EndSplineSet
Validated: 1
Substitution2: "'aalt' Access All Alternates lookup 0 subtable" ellipsis
EndChar

StartChar: slash
Encoding: 15 47 15
Width: 296
Flags: W
LayerCount: 2
Fore
SplineSet
392 733 m 1
 20 -119 l 1
 -40 -119 l 1
 332 733 l 1
 392 733 l 1
EndSplineSet
Validated: 1
Substitution2: "'dnom' Denominators lookup 5 subtable" fraction
Substitution2: "'numr' Numerators lookup 4 subtable" fraction
Substitution2: "'aalt' Access All Alternates lookup 0 subtable" fraction
EndChar

StartChar: zero
Encoding: 16 48 16
Width: 500
Flags: MW
HStem: -11 29<178.5 242 178.5 247.5> 670 29<273 336.5>
VStem: 36 76<153.5 220 124.5 299> 404 76<452 539.5 406.5 558.5>
LayerCount: 2
Fore
SplineSet
308 699 m 0
 414 699 480 611 480 468 c 0
 480 345 449 210 400 121 c 0
 352 33 287 -11 208 -11 c 0
 98 -11 36 76 36 231 c 0
 36 367 74 512 133 597 c 0
 180 666 238 699 308 699 c 0
302 670 m 0
 231 670 187 610 150 465 c 0
 127 371 112 262 112 178 c 0
 112 71 145 18 212 18 c 0
 272 18 315 65 351 171 c 0
 381 258 404 402 404 502 c 0
 404 615 371 670 302 670 c 0
EndSplineSet
Validated: 1
Substitution2: "'onum' Oldstyle Figures lookup 22-1" zero.onum
Substitution2: "'sups' Superscript lookup 3 subtable" zerosuperior
Substitution2: "'aalt' Access All Alternates lookup 0 subtable" zerosuperior
EndChar

StartChar: one
Encoding: 17 49 17
Width: 500
Flags: MW
HStem: -3 20 0 20 679 20<359 359>
LayerCount: 2
Fore
SplineSet
374 688 m 1xa0
 350 573 l 1
 276 136 l 2
 268 92 268 88 268 76 c 0
 268 41 280 31 327 28 c 2
 398 24 l 1
 393 -3 l 1x80
 332 -1 285 0 224 0 c 0x40
 163 0 115 -1 54 -3 c 1
 59 24 l 1
 144 34 l 2
 175 39 183 50 192 102 c 2
 278 629 l 1
 226 609 192 595 175 587 c 2
 91 546 l 1
 84 551 l 1
 95 610 l 1
 119 616 l 2
 188 633 222 643 259 658 c 2
 359 699 l 1
 374 688 l 1xa0
EndSplineSet
Validated: 1
Substitution2: "'onum' Oldstyle Figures lookup 22-1" one.onum
Substitution2: "'sups' Superscript lookup 3 subtable" onesuperior
Substitution2: "'aalt' Access All Alternates lookup 0 subtable" onesuperior
EndChar

StartChar: two
Encoding: 18 50 18
Width: 500
Flags: MW
HStem: -3 20 0 63<177.5 250> 634 65<241.5 274.5>
VStem: 352 85<503.5 556.5>
LayerCount: 2
Fore
SplineSet
101 63 m 1x70
 311 63 l 2x50
 343 63 386 67 426 74 c 1
 432 66 l 1
 415 -3 l 1x90
 342 -1 286 0 214 0 c 0x50
 141 0 85 -1 12 -3 c 1x90
 12 15 l 1
 61 67 l 2
 136 148 209 232 251 286 c 0
 316 370 352 455 352 523 c 0
 352 590 308 634 241 634 c 0
 184 634 147 606 98 526 c 1
 76 535 l 1
 136 655 l 1
 180 687 216 699 267 699 c 0
 371 699 437 637 437 538 c 0
 437 469 405 394 348 332 c 2
 101 63 l 1x70
EndSplineSet
Validated: 1
Substitution2: "'onum' Oldstyle Figures lookup 22-1" two.onum
Substitution2: "'sups' Superscript lookup 3 subtable" twosuperior
Substitution2: "'aalt' Access All Alternates lookup 0 subtable" twosuperior
EndChar

StartChar: three
Encoding: 19 51 19
Width: 500
Flags: MW
HStem: -11 34<154 213 154 246.5> 362 37<213.5 247 198.5 269> 638 61<267.5 290>
VStem: 360 79<532.5 573> 361 86<197.5 261 167 270.5>
LayerCount: 2
Fore
SplineSet
22 33 m 1xe8
 50 178 l 1
 74 173 l 1
 71 152 70 141 70 130 c 0
 70 64 116 23 192 23 c 0
 234 23 269 37 297 66 c 0
 338 107 361 167 361 228 c 0xe8
 361 313 312 362 226 362 c 0
 201 362 185 359 148 346 c 1
 142 358 l 1
 160 401 l 1
 169 400 l 2
 185 399 194 399 203 399 c 0
 291 399 360 463 360 545 c 0
 360 601 320 638 260 638 c 0
 215 638 192 625 152 580 c 2
 131 556 l 1
 112 569 l 1
 170 668 l 1
 221 691 249 699 286 699 c 0
 377 699 439 647 439 569 c 0xf0
 439 496 399 448 294 393 c 1
 347 380 370 371 395 352 c 0
 430 326 447 287 447 235 c 0
 447 99 323 -11 170 -11 c 0
 111 -11 70 1 22 33 c 1xe8
EndSplineSet
Validated: 1
Substitution2: "'onum' Oldstyle Figures lookup 22-1" three.onum
Substitution2: "'sups' Superscript lookup 3 subtable" threesuperior
Substitution2: "'aalt' Access All Alternates lookup 0 subtable" threesuperior
EndChar

StartChar: four
Encoding: 20 52 20
Width: 500
Flags: MW
HStem: -3 20 0 20 192 56<75 268> 679 20<421 421>
LayerCount: 2
Fore
SplineSet
15 223 m 1xa0
 352 684 l 1
 421 699 l 1
 429 694 l 1
 346 248 l 1
 474 248 l 1
 478 243 l 1
 462 188 l 1
 437 190 419 191 409 191 c 2
 336 191 l 1
 327 138 l 2
 321 101 318 76 318 54 c 0
 318 42 327 37 354 34 c 2
 441 24 l 1
 436 -3 l 1xb0
 376 -1 330 0 271 0 c 0x40
 211 0 165 -1 105 -3 c 1
 110 24 l 1
 196 34 l 2
 229 38 239 48 248 90 c 2
 268 192 l 1
 15 192 l 1
 15 223 l 1xa0
345 621 m 1
 75 248 l 1
 278 248 l 1
 345 621 l 1
EndSplineSet
Validated: 1
Substitution2: "'onum' Oldstyle Figures lookup 22-1" four.onum
Substitution2: "'sups' Superscript lookup 3 subtable" foursuperior
Substitution2: "'aalt' Access All Alternates lookup 0 subtable" foursuperior
EndChar

StartChar: five
Encoding: 21 53 21
Width: 500
Flags: MW
HStem: -11 36<149.5 208.5 149.5 220> 389 45<248 274.5> 618 68<310 331.5> 673 20<166 166>
VStem: 359 86<244.5 292>
LayerCount: 2
Fore
SplineSet
115 329 m 1xe8
 94 338 l 1
 158 688 l 1
 166 693 l 1x18
 187 692 l 2
 246 688 293 686 327 686 c 0
 357 686 415 687 453 689 c 2
 485 690 l 1
 491 681 l 1
 456 623 l 1
 395 619 355 618 308 618 c 0
 268 618 236 619 188 623 c 1
 137 382 l 1
 177 418 220 434 276 434 c 0
 379 434 445 368 445 266 c 0
 445 223 431 172 407 128 c 0
 360 41 271 -11 169 -11 c 0
 105 -11 61 4 14 41 c 1
 23 73 32 115 43 180 c 1
 66 175 l 1
 64 159 63 146 63 136 c 0
 63 69 112 25 187 25 c 0
 230 25 266 40 293 68 c 0
 335 111 359 177 359 247 c 0
 359 337 314 389 235 389 c 0
 189 389 159 374 115 329 c 1xe8
EndSplineSet
Validated: 1
Substitution2: "'onum' Oldstyle Figures lookup 22-1" five.onum
Substitution2: "'sups' Superscript lookup 3 subtable" fivesuperior
Substitution2: "'aalt' Access All Alternates lookup 0 subtable" fivesuperior
EndChar

StartChar: six
Encoding: 22 54 22
Width: 500
Flags: MW
HStem: -11 46<201 242> 362 55<278.5 299.5> 653 46<375 391.5>
VStem: 49 76<133.5 228.5 132 265.5> 372 76<239 275.5>
LayerCount: 2
Fore
SplineSet
469 694 m 1
 453 635 l 1
 445 634 l 1
 419 648 403 653 380 653 c 0
 315 653 254 610 209 531 c 0
 177 475 155 411 133 311 c 1
 195 387 245 417 312 417 c 0
 398 417 448 360 448 263 c 0
 448 215 436 166 413 125 c 0
 369 46 282 -11 202 -11 c 0
 106 -11 49 68 49 199 c 0
 49 332 96 463 182 568 c 0
 257 660 328 699 422 699 c 0
 442 699 454 698 469 694 c 1
266 362 m 0
 184 362 125 283 125 174 c 0
 125 90 168 35 234 35 c 0
 313 35 372 120 372 236 c 0
 372 315 333 362 266 362 c 0
EndSplineSet
Validated: 1
Substitution2: "'onum' Oldstyle Figures lookup 22-1" six.onum
Substitution2: "'sups' Superscript lookup 3 subtable" sixsuperior
Substitution2: "'aalt' Access All Alternates lookup 0 subtable" sixsuperior
EndChar

StartChar: seven
Encoding: 23 55 23
Width: 500
Flags: MW
HStem: -3 20 0 20 613 73<395 401 395 432> 672 20<101 101>
LayerCount: 2
Fore
SplineSet
53 5 m 1x80
 74 37 l 2
 103 82 127 121 154 164 c 2
 432 613 l 1
 190 613 l 2x20
 167 613 163 613 111 609 c 2
 91 608 l 1
 85 612 l 1
 101 692 l 1x10
 146 691 176 690 186 690 c 2
 326 687 l 1
 395 686 l 1
 401 686 l 1
 480 687 l 1
 502 688 l 1
 502 653 l 1
 376 450 l 2
 298 324 214 163 140 -3 c 1xa0
 132 -2 l 2
 112 0 108 0 103 0 c 0x40
 98 0 83 -1 58 -3 c 1
 53 5 l 1x80
EndSplineSet
Validated: 1
Substitution2: "'onum' Oldstyle Figures lookup 22-1" seven.onum
Substitution2: "'sups' Superscript lookup 3 subtable" sevensuperior
Substitution2: "'aalt' Access All Alternates lookup 0 subtable" sevensuperior
EndChar

StartChar: eight
Encoding: 24 56 24
Width: 500
Flags: MW
HStem: -11 42<186.5 252> 657 42<281.5 333.5>
VStem: 36 76<111 155.5> 117 68<500 542> 355 76<165 225.5> 401 68<538 586.5>
LayerCount: 2
Fore
SplineSet
217 352 m 1xe8
 148 391 117 434 117 490 c 0
 117 594 227 699 336 699 c 0
 418 699 469 652 469 576 c 0xd4
 469 500 434 454 320 378 c 1
 407 330 431 298 431 228 c 0
 431 102 316 -11 188 -11 c 0
 96 -11 36 45 36 130 c 0
 36 181 57 229 98 272 c 0
 129 304 155 322 217 352 c 1xe8
273 321 m 2xf8
 244 338 l 1
 156 293 112 229 112 148 c 0
 112 74 152 31 221 31 c 0
 299 31 355 99 355 195 c 0
 355 256 337 284 273 321 c 2xf8
257 413 m 2
 291 394 l 1
 364 441 401 495 401 556 c 0xc4
 401 617 363 657 304 657 c 0
 236 657 185 599 185 522 c 0
 185 478 211 439 257 413 c 2
EndSplineSet
Validated: 1
Substitution2: "'onum' Oldstyle Figures lookup 22-1" eight.onum
Substitution2: "'sups' Superscript lookup 3 subtable" eightsuperior
Substitution2: "'aalt' Access All Alternates lookup 0 subtable" eightsuperior
EndChar

StartChar: nine
Encoding: 25 57 25
Width: 500
Flags: MW
HStem: -11 48<142 178.5> 276 54<223.5 250.5> 654 45<247.5 316>
VStem: 71 76<425 509.5> 392 76<456.5 552.5>
LayerCount: 2
Fore
SplineSet
32 111 m 1
 53 119 l 1
 84 60 116 37 168 37 c 0
 232 37 285 79 324 162 c 0
 349 214 365 270 386 377 c 1
 327 303 282 276 219 276 c 0
 129 276 71 341 71 440 c 0
 71 579 183 699 312 699 c 0
 414 699 468 624 468 482 c 0
 468 344 427 213 355 118 c 0
 293 36 215 -11 142 -11 c 0
 116 -11 89 -5 63 8 c 1
 61 16 60 19 56 34 c 0
 46 73 41 90 32 111 c 1
283 654 m 0
 203 654 147 578 147 469 c 0
 147 381 188 330 259 330 c 0
 336 330 392 405 392 508 c 0
 392 597 349 654 283 654 c 0
EndSplineSet
Validated: 1
Substitution2: "'onum' Oldstyle Figures lookup 22-1" nine.onum
Substitution2: "'sups' Superscript lookup 3 subtable" ninesuperior
Substitution2: "'aalt' Access All Alternates lookup 0 subtable" ninesuperior
EndChar

StartChar: colon
Encoding: 26 58 26
Width: 250
Flags: MW
HStem: -5 20
LayerCount: 2
Fore
SplineSet
104 112 m 0
 130 112 149 91 149 64 c 0
 149 26 122 -5 88 -5 c 0
 61 -5 44 13 44 42 c 0
 44 81 71 112 104 112 c 0
162 458 m 0
 188 458 207 437 207 410 c 0
 207 372 180 341 147 341 c 0
 119 341 102 359 102 388 c 0
 102 427 129 458 162 458 c 0
EndSplineSet
Validated: 1
EndChar

StartChar: semicolon
Encoding: 27 59 27
Width: 250
Flags: W
LayerCount: 2
Fore
SplineSet
-2 -146 m 1
 -9 -136 l 1
 31 -85 56 -30 78 59 c 2
 86 91 l 1
 177 120 l 1
 186 107 l 1
 152 28 106 -43 33 -133 c 1
 -2 -146 l 1
174 456 m 0
 200 456 219 435 219 408 c 0
 219 370 192 339 158 339 c 0
 131 339 114 357 114 386 c 0
 114 424 141 456 174 456 c 0
EndSplineSet
Validated: 1
EndChar

StartChar: less
Encoding: 28 60 28
Width: 606
Flags: W
LayerCount: 2
Fore
SplineSet
559 494 m 1
 161 309 l 1
 559 124 l 1
 559 39 l 1
 50 271 l 1
 50 346 l 1
 559 578 l 1
 559 494 l 1
EndSplineSet
Validated: 1
EndChar

StartChar: equal
Encoding: 29 61 29
Width: 606
Flags: MW
HStem: 136 56<51 555 51 555> 330 56<51 555 51 555>
LayerCount: 2
Fore
SplineSet
555 386 m 1
 555 330 l 1
 51 330 l 1
 51 386 l 1
 555 386 l 1
555 192 m 1
 555 136 l 1
 51 136 l 1
 51 192 l 1
 555 192 l 1
EndSplineSet
Validated: 1
EndChar

StartChar: greater
Encoding: 30 62 30
Width: 606
Flags: W
LayerCount: 2
Fore
SplineSet
50 494 m 1
 50 578 l 1
 559 346 l 1
 559 271 l 1
 50 39 l 1
 50 124 l 1
 448 309 l 1
 50 494 l 1
EndSplineSet
Validated: 1
EndChar

StartChar: question
Encoding: 31 63 31
Width: 500
Flags: MW
HStem: -8 20 647 59<249.5 274.5>
VStem: 163 36<243 261 241.5 273.5> 345 82<546 587>
LayerCount: 2
Fore
SplineSet
137 565 m 1
 115 571 l 1
 116 576 117 578 120 584 c 0
 125 597 128 603 130 608 c 2
 155 669 l 1
 199 696 230 706 269 706 c 0
 364 706 427 653 427 572 c 0
 427 520 405 477 353 427 c 2
 249 327 l 2
 211 290 199 272 199 250 c 0
 199 233 206 219 226 199 c 1
 201 193 l 1
 175 209 163 230 163 256 c 0
 163 291 179 323 218 367 c 2
 288 446 l 2
 327 490 345 527 345 562 c 0
 345 612 303 647 246 647 c 0
 205 647 183 634 157 595 c 2
 137 565 l 1
174 109 m 0
 200 109 219 88 219 61 c 0
 219 23 192 -8 158 -8 c 0
 131 -8 114 10 114 39 c 0
 114 78 141 109 174 109 c 0
EndSplineSet
Validated: 1
EndChar

StartChar: at
Encoding: 32 64 32
Width: 747
Flags: MW
HStem: -18 45<305.5 435 305.5 439> 138 27<499 509.5> 144 24<284 316> 494 24<376 399 320 405.5> 661 45<300.5 471>
VStem: 27 45<253 434 253 441.5> 160 76<250 294 233.5 349> 677 41<375.5 480.5>
LayerCount: 2
Fore
SplineSet
666 176 m 1xdf
 713 176 l 1
 683 124 667 103 636 75 c 0
 567 14 484 -18 394 -18 c 0
 187 -18 27 137 27 338 c 0
 27 545 186 706 390 706 c 0
 575 706 718 579 718 413 c 0
 718 338 692 270 645 221 c 0
 599 172 533 138 486 138 c 0xdf
 444 138 418 170 414 226 c 1
 365 161 340 144 292 144 c 0x27
 217 144 160 208 160 292 c 0
 160 406 266 518 374 518 c 0
 424 518 451 492 463 433 c 1
 483 509 l 1
 558 509 l 1
 479 218 l 2
 478 214 477 207 477 202 c 0
 477 181 490 165 508 165 c 0
 530 165 568 187 597 217 c 0
 648 270 677 339 677 410 c 0
 677 551 551 661 391 661 c 0
 210 661 72 524 72 344 c 0
 72 162 212 27 399 27 c 0
 471 27 533 48 589 92 c 0
 618 114 635 132 666 176 c 1xdf
389 494 m 0
 363 494 336 481 315 459 c 0
 268 408 236 328 236 260 c 0
 236 207 265 168 303 168 c 0x37
 339 168 370 192 398 241 c 0
 425 288 446 366 446 417 c 0
 446 462 422 494 389 494 c 0
EndSplineSet
Validated: 1
EndChar

StartChar: A
Encoding: 33 65 33
Width: 722
Flags: MW
HStem: -3 20 0 20 277 36<270 486 270 491 245 486> 685 20<462 508 508 508>
LayerCount: 2
Fore
SplineSet
462 705 m 1x90
 508 705 l 1
 595 80 l 2
 603 35 604 35 651 28 c 2
 677 25 l 1
 677 -3 l 1xb0
 606 -1 578 0 555 0 c 0x40
 532 0 505 -1 433 -3 c 1
 433 25 l 1
 477 28 l 2
 505 30 520 39 520 55 c 0
 520 60 519 66 518 77 c 0
 517 84 517 84 516 89 c 2
 491 277 l 1
 245 277 l 1
 143 102 l 2
 123 68 117 55 117 47 c 0
 117 38 131 29 148 28 c 2
 200 25 l 1
 200 -3 l 1xa0
 129 0 116 0 93 0 c 0x40
 72 0 48 -1 -19 -3 c 1
 -19 27 l 1
 1 32 l 2
 35 40 53 56 89 112 c 2
 462 705 l 1x90
449 601 m 1
 270 313 l 1
 486 313 l 1
 449 601 l 1
EndSplineSet
Validated: 1
EndChar

StartChar: B
Encoding: 34 66 34
Width: 611
Flags: MW
HStem: -6 40<273 302> 0 20 340 36<217 275 223 275 275 302> 655 37
VStem: 455 88<189 248.5 189 254.5> 473 86<536 581.5>
LayerCount: 2
Fore
SplineSet
97 664 m 1x48
 100 692 l 1
 152 691 l 2
 199 690 234 689 251 689 c 0
 270 689 287 689 311 690 c 2
 374 691 l 2
 388 692 397 692 401 692 c 0
 501 692 559 644 559 562 c 0xb4
 559 510 536 464 490 425 c 0
 459 397 434 385 377 365 c 1
 446 355 476 346 502 325 c 0
 529 303 543 270 543 227 c 0
 543 151 499 83 420 36 c 0
 373 8 326 -6 278 -6 c 0xb8
 268 -6 254 -5 237 -4 c 2
 217 -3 l 1
 180 -2 l 2
 143 0 134 0 118 0 c 0
 107 0 88 -1 63 -2 c 2
 26 -3 l 1
 31 23 l 1
 73 30 85 37 89 55 c 2
 176 559 l 2
 181 591 185 621 185 635 c 0
 185 653 174 661 150 662 c 2
 97 664 l 1x48
217 340 m 1
 166 41 l 1
 181 40 193 39 200 38 c 0
 233 36 262 34 282 34 c 0
 383 34 455 108 455 211 c 0xb8
 455 298 405 340 302 340 c 2
 217 340 l 1
272 650 m 1
 223 376 l 1
 275 376 l 2
 399 376 473 439 473 544 c 0xb4
 473 619 433 655 352 655 c 0
 339 655 327 654 306 652 c 0
 286 651 283 651 272 650 c 1
EndSplineSet
Validated: 1
EndChar

StartChar: C
Encoding: 35 67 35
Width: 667
Flags: MW
HStem: -18 53<297 391> 653 53<415 454>
VStem: 45 88<220 360.5>
LayerCount: 2
Fore
SplineSet
597 519 m 1
 597 603 l 1
 542 639 490 653 418 653 c 0
 339 653 275 629 228 581 c 0
 167 519 133 421 133 309 c 0
 133 131 218 35 376 35 c 0
 454 35 506 52 600 110 c 1
 610 103 l 1
 600 67 l 1
 509 5 439 -18 343 -18 c 0
 151 -18 45 90 45 284 c 0
 45 437 105 555 222 634 c 0
 292 681 374 706 456 706 c 0
 518 706 574 694 651 665 c 1
 637 622 629 575 624 519 c 1
 597 519 l 1
EndSplineSet
Validated: 1
EndChar

StartChar: D
Encoding: 36 68 36
Width: 778
Flags: MW
HStem: -3 44<311.5 352.5> 0 20
VStem: 649 92<356.5 480 348 497.5>
LayerCount: 2
Fore
SplineSet
33 23 m 1xa0
 41 25 l 2
 72 31 83 38 86 55 c 2
 173 559 l 2
 178 591 182 621 182 635 c 0
 182 653 171 661 147 662 c 2
 94 664 l 1
 97 692 l 1
 197 689 197 689 210 689 c 2
 220 689 l 1
 424 692 l 2
 515 693 607 673 650 642 c 0
 711 598 741 529 741 431 c 0
 741 265 645 114 489 34 c 0
 437 7 389 -3 316 -3 c 0xa0
 307 -3 291 -3 270 -2 c 0
 233 -1 201 -1 176 0 c 2
 144 0 l 1
 127 0 l 1
 121 0 l 1x60
 28 -3 l 1
 33 23 l 1xa0
268 650 m 1
 172 93 l 2
 169 75 168 67 168 56 c 1
 236 46 284 41 329 41 c 0
 417 41 489 69 543 124 c 0
 611 193 649 298 649 415 c 0
 649 580 566 655 384 655 c 0
 364 655 347 654 315 652 c 0
 288 651 283 651 268 650 c 1
EndSplineSet
Validated: 33
EndChar

StartChar: E
Encoding: 37 69 37
Width: 611
Flags: MW
HStem: -3 20 0 20 334 42<221 266 229 266 266 307 229 338> 650 42
LayerCount: 2
Fore
SplineSet
221 334 m 1x70
 178 81 l 2
 176 72 176 64 176 50 c 2
 176 46 l 1
 239 40 266 39 307 39 c 0
 364 39 434 43 455 48 c 0
 477 53 486 65 496 101 c 2
 512 161 l 1
 539 161 l 1
 534 135 l 2
 525 87 520 56 518 36 c 2
 514 0 l 1x60
 481 -1 l 2
 448 -2 423 -3 409 -3 c 2x80
 399 -3 l 1
 184 0 l 2
 164 0 102 -1 71 -2 c 2
 30 -3 l 1
 35 23 l 1
 79 30 91 37 95 55 c 2
 182 559 l 2
 187 591 191 621 191 635 c 0
 191 653 180 661 156 662 c 2
 102 664 l 1
 105 692 l 1
 150 691 l 2
 195 690 235 689 263 689 c 0
 287 689 323 689 343 690 c 2
 463 692 l 1
 501 692 l 2
 523 692 550 691 570 689 c 1
 560 652 552 600 549 537 c 1
 525 537 l 1
 517 626 l 2
 516 641 475 650 411 650 c 0
 387 650 360 649 327 648 c 2
 280 646 l 1
 276 638 274 630 271 614 c 2
 229 376 l 1
 266 376 l 2
 348 376 407 378 485 382 c 1
 489 375 l 1
 470 330 l 1
 444 331 l 2
 400 333 369 334 338 334 c 2
 221 334 l 1x70
EndSplineSet
Validated: 1
EndChar

StartChar: F
Encoding: 38 70 38
Width: 556
Flags: MW
HStem: -3 20 0 20 301 42<214 251 251 288.5 214 323 206 251> 650 42
LayerCount: 2
Fore
SplineSet
286 647 m 2x90
 269 646 l 1
 265 638 263 630 260 614 c 2
 214 343 l 1
 251 343 l 2
 326 343 398 345 470 349 c 1
 474 342 l 1
 455 297 l 1
 429 298 l 2
 386 300 354 301 323 301 c 2
 206 301 l 1
 170 78 l 2
 169 73 168 64 168 57 c 0
 168 37 177 29 204 28 c 2
 268 25 l 1
 265 -3 l 1xa0
 213 -2 l 2
 174 -1 145 0 127 0 c 0x40
 106 0 74 -1 34 -2 c 2
 0 -3 l 1
 4 25 l 1
 40 28 l 2
 81 32 81 33 98 125 c 2
 173 559 l 2
 178 591 182 621 182 635 c 0
 182 653 171 661 147 662 c 2
 91 664 l 1
 94 692 l 1
 143 691 l 2
 185 690 220 689 246 689 c 2
 275 689 l 1
 440 692 l 1
 481 692 l 2
 500 692 529 691 548 689 c 1
 537 650 531 602 527 537 c 1
 503 537 l 1
 495 626 l 2
 494 641 454 650 392 650 c 0
 361 650 324 649 286 647 c 2x90
EndSplineSet
Validated: 1
EndChar

StartChar: G
Encoding: 39 71 39
Width: 722
Flags: MW
HStem: -18 45<307 382.5> 653 53<419.5 472.5>
VStem: 50 88<208.5 349>
LayerCount: 2
Fore
SplineSet
528 60 m 1
 546 153 l 2
 551 179 553 196 553 212 c 0
 553 236 544 240 469 244 c 2
 435 246 l 1
 440 274 l 1
 481 270 515 269 569 269 c 0
 622 269 655 270 694 274 c 1
 692 246 l 1
 660 240 l 2
 647 237 635 228 633 219 c 2
 610 84 l 2
 609 80 609 76 609 73 c 0
 609 64 610 58 612 44 c 1
 608 37 l 1
 595 35 578 31 552 22 c 2
 522 12 l 2
 460 -9 410 -18 355 -18 c 0
 159 -18 50 86 50 274 c 0
 50 424 112 548 229 632 c 0
 301 683 373 706 466 706 c 0
 536 706 592 695 675 665 c 1
 661 620 653 576 648 519 c 1
 621 519 l 1
 621 603 l 1
 565 639 512 653 433 653 c 0
 351 653 286 629 237 579 c 0
 173 515 138 414 138 297 c 0
 138 120 224 27 390 27 c 0
 445 27 483 36 528 60 c 1
EndSplineSet
Validated: 1
EndChar

StartChar: H
Encoding: 40 72 40
Width: 778
Flags: MW
HStem: -3 20 0 20 343 42<389.5 410.5> 672 20<104 104 359 359 550 550 800 800>
LayerCount: 2
Fore
SplineSet
221 385 m 1xb0
 591 385 l 1
 621 559 l 2
 626 590 630 621 630 635 c 0
 630 653 619 661 595 662 c 2
 547 664 l 1
 550 692 l 1
 613 691 l 2
 654 690 682 689 693 689 c 0
 716 689 747 690 784 691 c 2
 800 692 l 1
 797 664 l 1
 761 661 l 2
 723 657 717 652 710 613 c 2
 618 93 l 2
 615 76 614 68 614 58 c 0
 614 37 623 29 650 28 c 2
 708 25 l 1
 705 -3 l 1xb0
 663 -2 l 2
 621 -1 591 0 573 0 c 0x40
 559 0 530 -1 488 -2 c 2
 432 -3 l 1
 436 25 l 1
 486 28 l 2
 508 30 519 34 523 42 c 0
 528 49 535 76 544 125 c 2
 584 340 l 1
 523 341 l 2
 463 342 421 343 400 343 c 0
 379 343 337 342 277 341 c 2
 216 340 l 1
 174 93 l 2
 170 72 170 68 170 58 c 0
 170 37 179 30 206 28 c 2
 255 25 l 1
 252 -3 l 1xa0
 226 -2 l 2
 183 -1 150 0 129 0 c 0x40
 111 0 80 -1 39 -2 c 2
 -3 -3 l 1
 1 25 l 1
 42 28 l 2
 82 32 83 33 100 125 c 2
 174 559 l 2
 180 592 183 621 183 635 c 0
 183 653 172 661 148 662 c 2
 101 664 l 1
 104 692 l 1
 168 690 l 1
 245 689 l 2
 265 689 296 690 335 691 c 2
 359 692 l 1
 356 664 l 1
 314 661 l 2
 277 658 270 652 263 613 c 2
 221 385 l 1xb0
EndSplineSet
Validated: 1
EndChar

StartChar: I
Encoding: 41 73 41
Width: 333
Flags: MW
HStem: -3 20 0 20 672 20<106 106 345 354 354 354>
LayerCount: 2
Fore
SplineSet
103 664 m 1x80
 106 692 l 1
 170 690 l 1
 248 689 l 2
 272 689 305 690 345 692 c 2
 354 692 l 1
 351 664 l 1
 316 661 l 2
 278 657 272 651 265 613 c 2
 176 78 l 2
 175 73 174 64 174 57 c 0
 174 37 183 30 210 28 c 2
 262 25 l 1
 259 -3 l 1xa0
 227 -2 l 2
 185 -1 153 0 133 0 c 0x40
 113 0 81 -1 39 -2 c 2
 7 -3 l 1
 10 25 l 1
 46 28 l 2
 86 31 89 36 104 125 c 2
 176 559 l 2
 180 580 185 627 185 636 c 0
 185 653 174 661 150 662 c 2
 103 664 l 1x80
EndSplineSet
Validated: 1
EndChar

StartChar: J
Encoding: 42 74 42
Width: 333
Flags: MW
HStem: -206 32<-3.5 17.5 -12.5 30> 672 20<103 103 358 358>
LayerCount: 2
Fore
SplineSet
355 664 m 1
 313 661 l 2
 275 658 268 651 262 613 c 2
 177 54 l 2
 168 -8 159 -40 143 -78 c 0
 109 -159 57 -206 3 -206 c 0
 -10 -206 -20 -203 -32 -196 c 1
 -35 -170 l 1
 -27 -173 -19 -174 -6 -174 c 0
 41 -174 71 -124 86 -21 c 2
 181 622 l 2
 182 627 182 630 182 635 c 0
 182 653 172 661 147 662 c 2
 100 664 l 1
 103 692 l 1
 167 690 l 1
 244 689 l 2
 264 689 295 690 334 691 c 2
 358 692 l 1
 355 664 l 1
EndSplineSet
Validated: 1
EndChar

StartChar: K
Encoding: 43 75 43
Width: 667
Flags: MW
HStem: -3 20 0 20 672 20<119 119 374 374 548 548 683 683>
LayerCount: 2
Fore
SplineSet
371 664 m 1xa0
 329 661 l 2
 292 658 285 651 278 613 c 2
 233 353 l 1
 296 402 338 440 382 484 c 2
 510 614 l 2
 540 645 548 655 548 663 c 2
 548 692 l 1
 568 691 l 2
 590 690 606 689 615 689 c 0
 623 689 638 690 660 691 c 2
 683 692 l 1
 683 665 l 1
 662 665 l 2
 646 665 625 656 608 640 c 2
 316 367 l 1
 562 65 l 2
 585 38 604 27 626 27 c 2
 646 27 l 1
 646 -3 l 1xa0
 620 -1 613 -1 578 0 c 2x40
 509 -3 l 1
 404 140 381 170 231 340 c 1
 188 78 l 2
 187 73 186 64 186 57 c 0
 186 37 195 30 222 28 c 2
 271 25 l 1
 268 -3 l 1x80
 242 -2 l 2
 199 -1 166 0 145 0 c 0x40
 127 0 96 -1 55 -2 c 2
 13 -3 l 1
 17 25 l 1
 58 28 l 2
 98 32 99 33 116 125 c 2
 189 559 l 2
 195 594 198 621 198 635 c 0
 198 653 187 661 163 662 c 2
 116 664 l 1
 119 692 l 1
 183 690 l 1
 260 689 l 2
 280 689 311 690 350 691 c 2
 374 692 l 1
 371 664 l 1xa0
EndSplineSet
Validated: 1
EndChar

StartChar: L
Encoding: 44 76 44
Width: 556
Flags: MW
HStem: -3 42 0 20 672 20<97 97 352 352>
LayerCount: 2
Fore
SplineSet
349 664 m 1xa0
 307 661 l 2
 270 658 263 651 256 613 c 2
 164 81 l 2
 162 72 162 64 162 50 c 2
 162 46 l 1
 224 40 253 39 304 39 c 0x80
 373 39 435 44 448 49 c 0
 458 54 466 71 475 103 c 2
 492 165 l 1
 523 165 l 1
 510 103 499 23 500 0 c 1x40
 467 -1 l 2
 434 -2 409 -3 395 -3 c 2
 385 -3 l 1x80
 170 0 l 2x40
 150 0 88 -1 57 -2 c 2
 16 -3 l 1
 21 23 l 1
 65 30 77 37 81 55 c 2
 167 559 l 2
 173 592 176 621 176 635 c 0
 176 653 165 661 141 662 c 2
 94 664 l 1
 97 692 l 1
 161 690 l 1
 238 689 l 2
 258 689 289 690 328 691 c 2
 352 692 l 1
 349 664 l 1xa0
EndSplineSet
Validated: 33
EndChar

StartChar: M
Encoding: 45 77 45
Width: 944
Flags: MW
HStem: -18 20 0 20 672 20<125 125 292 292 773 773 940 940>
LayerCount: 2
Fore
SplineSet
937 664 m 1x60
 899 662 l 2
 870 660 855 651 853 631 c 2
 812 100 l 2
 811 93 811 76 811 63 c 0
 811 42 829 31 865 28 c 2
 902 25 l 1
 899 -3 l 1
 853 -2 l 2
 812 -1 782 0 766 0 c 0x40
 751 0 721 -1 679 -2 c 2
 632 -3 l 1
 635 25 l 1
 666 28 l 2
 717 32 729 39 733 67 c 2
 770 587 l 1
 718 500 l 2
 652 390 559 230 479 86 c 2
 422 -18 l 1
 399 -18 l 1x80
 250 560 l 1
 126 96 l 2
 121 77 119 65 119 55 c 0
 119 40 136 31 168 28 c 2
 206 25 l 1
 203 -3 l 1
 168 -2 l 2
 133 -1 107 0 93 0 c 0
 79 0 54 -1 20 -2 c 2
 -19 -3 l 1
 -16 23 l 1
 39 28 54 41 70 93 c 2
 215 602 l 2
 217 609 218 616 218 622 c 0
 218 648 200 658 148 662 c 2
 122 664 l 1
 125 692 l 1
 184 689 l 1
 208 689 l 2
 218 689 238 690 264 691 c 2
 292 692 l 1
 442 114 l 1
 688 536 l 2
 711 575 729 609 757 661 c 2
 773 692 l 1
 832 689 l 1
 856 689 l 2
 866 689 886 690 912 691 c 2
 940 692 l 1
 937 664 l 1x60
EndSplineSet
Validated: 1
EndChar

StartChar: N
Encoding: 46 78 46
Width: 778
Flags: MW
HStem: -11 20 0 20 672 20<75 75 237 237 589 589 804 804>
LayerCount: 2
Fore
SplineSet
237 692 m 1x60
 582 103 l 1
 662 592 l 2
 665 609 667 629 667 638 c 0
 667 654 657 661 631 662 c 2
 584 664 l 1
 589 692 l 1
 608 691 l 2
 645 690 674 689 694 689 c 0
 713 689 743 690 783 691 c 2
 804 692 l 1
 799 664 l 1
 762 662 l 2
 725 660 722 655 702 542 c 2
 608 -11 l 1
 558 -11 l 1xa0
 220 567 l 1
 140 102 l 2
 138 91 137 80 137 72 c 0
 137 38 145 31 186 28 c 2
 228 25 l 1
 223 -3 l 1
 126 0 125 0 113 0 c 2
 2 -3 l 1
 7 25 l 1
 38 28 l 2
 74 32 80 40 92 102 c 2
 180 576 l 2
 182 585 183 594 183 594 c 1
 184 599 l 2
 185 603 185 605 185 606 c 0
 185 614 170 634 155 645 c 0
 144 654 122 661 105 662 c 2
 70 664 l 1
 75 692 l 1
 91 691 l 2
 113 690 129 690 132 689 c 2
 146 689 l 1
 153 689 l 1
 156 689 l 1
 237 692 l 1x60
EndSplineSet
Validated: 1
EndChar

StartChar: O
Encoding: 47 79 47
Width: 778
Flags: MW
HStem: -18 42<288 366> 664 42<395 507.5>
VStem: 53 88<193.5 342 193.5 397.5> 660 88<346 493>
LayerCount: 2
Fore
SplineSet
464 706 m 0
 644 706 748 603 748 425 c 0
 748 267 670 119 544 42 c 0
 479 1 409 -18 323 -18 c 0
 146 -18 53 82 53 272 c 0
 53 523 226 706 464 706 c 0
433 664 m 0
 357 664 297 641 250 593 c 0
 181 524 141 407 141 277 c 0
 141 110 216 24 360 24 c 0
 438 24 503 50 552 100 c 0
 621 170 660 283 660 409 c 0
 660 577 582 664 433 664 c 0
EndSplineSet
Validated: 1
EndChar

StartChar: P
Encoding: 48 80 48
Width: 611
Flags: MW
HStem: -3 20 0 20 288 35<340 390 335 419.5>
VStem: 506 88<473 565.5>
LayerCount: 2
Fore
SplineSet
105 664 m 1x90
 108 692 l 1
 161 691 l 2
 211 690 248 689 257 689 c 2
 274 689 l 1
 412 692 l 2
 460 693 514 681 539 663 c 0
 576 636 594 596 594 541 c 0
 594 405 484 288 355 288 c 0
 325 288 307 293 269 311 c 1
 267 342 l 1
 305 327 324 323 346 323 c 0
 434 323 506 411 506 519 c 0
 506 612 457 656 355 656 c 0
 335 656 320 654 284 648 c 1
 276 616 271 593 268 580 c 2
 186 93 l 2
 182 71 182 68 182 58 c 0
 182 37 192 29 218 28 c 2
 283 25 l 1
 280 -3 l 1xb0
 227 -2 l 2
 187 -1 158 0 141 0 c 0x50
 123 0 92 -1 51 -2 c 2
 9 -3 l 1
 13 25 l 1
 54 28 l 2
 94 31 95 34 112 125 c 2
 186 559 l 2
 192 592 195 621 195 635 c 0
 195 653 184 661 160 662 c 2
 105 664 l 1x90
EndSplineSet
Validated: 33
EndChar

StartChar: Q
Encoding: 49 81 49
Width: 778
Flags: MW
HStem: -201 61<606 624.5> -59 44<214 242.5> -18 42<288 366> 664 42<395 507.5>
VStem: 53 88<193.5 342 193.5 397.5> 660 88<346 493>
LayerCount: 2
Fore
SplineSet
151 -172 m 1xdc
 127 -159 l 1
 127 -142 l 2
 127 -66 177 -15 251 -15 c 0
 275 -15 291 -18 317 -29 c 2
 553 -125 l 2
 579 -136 597 -140 615 -140 c 0
 655 -140 677 -115 683 -61 c 1
 708 -61 l 1
 698 -158 662 -201 587 -201 c 0
 547 -201 529 -195 469 -164 c 2
 324 -88 l 2
 284 -67 257 -59 228 -59 c 0
 175 -59 151 -95 151 -172 c 1xdc
464 706 m 0
 644 706 748 603 748 425 c 0
 748 267 670 119 544 42 c 0
 479 1 409 -18 323 -18 c 0x3c
 147 -18 53 83 53 272 c 0
 53 523 226 706 464 706 c 0
433 664 m 0
 357 664 297 641 250 593 c 0
 181 524 141 407 141 277 c 0
 141 110 216 24 360 24 c 0
 438 24 503 50 552 100 c 0
 621 170 660 283 660 409 c 0
 660 577 582 664 433 664 c 0
EndSplineSet
Validated: 1
EndChar

StartChar: R
Encoding: 50 82 50
Width: 667
Flags: MW
HStem: -3 20 0 20
VStem: 496 88<529.5 579.5>
LayerCount: 2
Fore
SplineSet
105 664 m 1xa0
 108 692 l 1
 240 689 l 1
 259 689 l 1
 409 692 l 2
 520 694 584 646 584 560 c 0
 584 499 553 444 495 402 c 0
 459 376 430 364 375 354 c 1
 559 79 l 2
 588 36 599 29 639 24 c 1
 639 -3 l 1xa0
 626 -2 l 2
 608 -1 595 0 592 0 c 2
 581 0 l 1
 575 0 l 1
 573 0 l 1x60
 507 -3 l 1
 432 124 401 172 267 367 c 1
 270 378 l 1
 314 378 l 2
 418 378 496 448 496 542 c 0
 496 617 450 656 363 656 c 0
 335 656 315 654 287 648 c 1
 279 614 273 591 271 580 c 2
 186 93 l 2
 183 74 182 68 182 58 c 0
 182 37 191 30 218 28 c 2
 267 25 l 1
 264 -3 l 1xa0
 238 -2 l 2
 195 -1 162 0 141 0 c 0x60
 123 0 92 -1 51 -2 c 2
 9 -3 l 1
 13 25 l 1
 54 28 l 2
 94 31 95 34 112 125 c 2
 187 559 l 2
 192 591 196 621 196 635 c 0
 196 653 185 661 161 662 c 2
 105 664 l 1xa0
EndSplineSet
Validated: 33
EndChar

StartChar: S
Encoding: 51 83 51
Width: 556
Flags: MW
HStem: -18 48<205 274.5> 0 20 658 48<337 363.5>
VStem: 108 72<475 500.5> 406 79<166 220>
LayerCount: 2
Fore
SplineSet
451 537 m 1xb8
 451 613 l 1
 421 645 388 658 339 658 c 0
 247 658 180 595 180 508 c 0
 180 442 210 405 276 391 c 2
 341 377 l 2
 442 355 485 313 485 234 c 0
 485 98 352 -18 197 -18 c 0xb8
 144 -18 92 -5 42 20 c 1x58
 53 72 60 117 66 172 c 1
 96 172 l 1
 96 73 l 1
 140 42 178 30 232 30 c 0
 335 30 406 95 406 191 c 0
 406 249 380 283 325 296 c 2
 230 319 l 2
 146 339 108 386 108 471 c 0
 108 530 129 580 171 622 c 0
 225 674 300 706 374 706 c 0
 422 706 461 696 506 672 c 1
 492 629 485 591 481 537 c 1
 451 537 l 1xb8
EndSplineSet
Validated: 1
EndChar

StartChar: T
Encoding: 52 84 52
Width: 611
Flags: MW
HStem: -3 20 0 20 672 20<71 71 635 635>
LayerCount: 2
Fore
SplineSet
390 646 m 1xa0
 296 93 l 2
 292 72 292 68 292 58 c 0
 292 37 302 29 328 28 c 2
 387 25 l 1
 384 -3 l 1x80
 340 -2 l 2
 301 -1 270 0 251 0 c 0x40
 235 0 206 -1 166 -2 c 2
 109 -3 l 1
 113 25 l 1
 164 28 l 2
 204 31 206 34 222 125 c 2
 308 646 l 1
 196 646 l 2
 159 646 118 639 115 633 c 0
 109 626 102 607 97 588 c 2
 82 528 l 1
 53 528 l 1
 71 692 l 1
 166 691 l 2
 256 690 319 689 353 689 c 0
 385 689 453 690 544 691 c 2
 635 692 l 1
 608 528 l 1
 580 528 l 1
 584 592 l 2
 584 606 583 620 580 629 c 0
 577 641 541 646 463 646 c 2
 390 646 l 1xa0
EndSplineSet
Validated: 1
EndChar

StartChar: U
Encoding: 53 85 53
Width: 778
Flags: MW
HStem: -18 57<271 298> 0 20 672 20<91 91 270 270 548 548 798 798>
VStem: 97 78<119 153>
LayerCount: 2
Fore
SplineSet
795 664 m 1xb0
 759 661 l 2
 721 657 714 651 708 613 c 2
 623 106 l 2
 617 67 617 67 617 51 c 0
 617 36 626 31 649 29 c 2
 709 25 l 1
 704 -3 l 1
 672 -2 l 2
 645 -1 626 0 614 0 c 0x50
 601 0 580 -1 552 -2 c 2
 530 -3 l 1
 525 2 l 1
 538 57 544 83 552 129 c 1
 499 69 468 44 409 16 c 0
 362 -8 320 -18 276 -18 c 0
 164 -18 97 43 97 145 c 0
 97 161 99 184 103 206 c 2
 167 581 l 2
 171 604 174 629 174 639 c 0
 174 656 166 661 140 662 c 2
 88 664 l 1
 91 692 l 1
 123 691 l 2
 152 690 172 689 181 689 c 0
 191 689 211 690 239 691 c 2
 270 692 l 1
 182 215 l 2
 176 184 175 173 175 155 c 0
 175 83 228 39 314 39 c 0
 401 39 480 84 556 177 c 1
 627 622 l 2
 628 626 628 630 628 634 c 0
 628 653 618 661 593 662 c 2
 545 664 l 1
 548 692 l 1
 611 691 l 2
 652 690 680 689 691 689 c 0
 714 689 745 690 782 691 c 2
 798 692 l 1
 795 664 l 1xb0
EndSplineSet
Validated: 1
EndChar

StartChar: V
Encoding: 54 86 54
Width: 722
Flags: MW
HStem: -8 20 672 20<75 75 323 323 534 534 754 754>
LayerCount: 2
Fore
SplineSet
310 96 m 1
 601 588 l 2
 613 608 617 619 617 630 c 0
 617 649 598 659 560 662 c 2
 534 664 l 1
 534 692 l 1
 580 691 l 2
 622 690 649 689 658 689 c 0
 673 689 696 690 724 691 c 2
 754 692 l 1
 754 664 l 1
 736 662 l 2
 707 658 699 651 674 611 c 2
 296 -8 l 1
 247 -8 l 1
 159 614 l 2
 152 651 144 659 100 662 c 2
 75 664 l 1
 75 692 l 1
 116 691 l 2
 154 690 182 689 199 689 c 0
 216 689 244 690 282 691 c 2
 323 692 l 1
 323 664 l 1
 281 662 l 2
 246 659 238 652 239 624 c 2
 310 96 l 1
EndSplineSet
Validated: 33
EndChar

StartChar: W
Encoding: 55 87 55
Width: 944
Flags: MW
HStem: -8 20 680 20<528 546 546 546>
LayerCount: 2
Fore
SplineSet
303 692 m 1
 303 664 l 1
 266 662 l 2
 234 660 220 646 221 616 c 2
 252 132 l 1
 476 588 l 2
 492 620 517 675 528 700 c 1
 546 700 l 1
 704 128 l 1
 851 590 l 2
 857 609 860 625 860 638 c 0
 860 654 848 661 819 662 c 2
 780 664 l 1
 785 692 l 1
 818 691 l 2
 849 690 871 689 883 689 c 0
 896 689 918 690 948 691 c 2
 980 692 l 1
 980 664 l 1
 960 662 l 2
 938 660 923 649 917 631 c 2
 746 124 l 2
 732 83 726 62 715 18 c 2
 708 -8 l 1
 657 -8 l 1
 644 53 633 102 618 154 c 2
 506 546 l 1
 282 102 l 2
 264 66 246 27 232 -8 c 1
 182 -8 l 1
 181 44 179 92 174 158 c 2
 142 588 l 2
 138 645 130 657 89 662 c 2
 71 664 l 1
 71 692 l 1
 110 691 l 2
 147 690 172 689 182 689 c 0
 207 689 208 689 264 691 c 2
 303 692 l 1
EndSplineSet
Validated: 33
EndChar

StartChar: X
Encoding: 56 88 56
Width: 722
Flags: MW
HStem: -3 20 0 20 672 20<95 95 361 361 505 505 734 734>
LayerCount: 2
Fore
SplineSet
416 25 m 1x80
 454 28 l 1
 470 29 l 2
 495 29 502 32 502 40 c 0
 502 49 498 62 488 80 c 2
 369 306 l 1
 187 75 l 2
 181 67 177 58 177 50 c 0
 177 38 194 32 232 28 c 2
 264 25 l 1
 264 -3 l 1x80
 221 -1 188 0 145 0 c 0x40
 104 0 68 -1 20 -3 c 1
 20 25 l 1
 48 28 l 2
 72 31 95 43 110 61 c 2
 348 343 l 1
 202 613 l 2
 182 650 170 657 121 662 c 2
 95 664 l 1
 95 692 l 1
 140 691 l 2
 182 690 212 689 228 689 c 0
 242 689 272 690 315 691 c 2
 361 692 l 1
 361 664 l 1
 324 662 l 2
 294 660 281 654 281 642 c 0
 281 634 285 623 295 604 c 2
 399 405 l 1
 560 601 l 2
 578 623 583 632 583 643 c 0
 583 655 571 660 538 662 c 2
 505 664 l 1
 505 692 l 1
 543 691 l 2
 575 690 600 689 606 689 c 2
 620 689 l 1
 734 692 l 1
 734 664 l 1
 706 662 l 2
 680 659 670 653 641 620 c 2
 420 368 l 1
 591 61 l 2
 605 37 618 30 659 27 c 2
 684 25 l 1
 684 -3 l 1xa0
 636 -1 598 0 551 0 c 0x40
 502 0 464 -1 416 -3 c 1
 416 25 l 1x80
EndSplineSet
Validated: 1
EndChar

StartChar: Y
Encoding: 57 89 57
Width: 667
Flags: MW
HStem: -3 20 0 20 685 20<131 131>
LayerCount: 2
Fore
SplineSet
52 647 m 1x80
 67 658 l 2
 99 680 112 689 127 702 c 2
 131 705 l 1
 223 704 271 616 346 310 c 1
 374 384 412 452 474 536 c 0
 549 636 602 678 675 697 c 1
 669 626 l 1
 610 616 568 586 510 512 c 0
 436 419 371 302 362 246 c 2
 336 78 l 2
 335 72 334 64 334 57 c 0
 334 37 343 30 370 28 c 2
 419 25 l 1
 416 -3 l 1xa0
 390 -2 l 2
 346 -1 314 0 293 0 c 0x40
 276 0 247 -1 207 -2 c 2
 154 -3 l 1
 158 25 l 1
 206 28 l 2
 246 31 247 34 264 125 c 2
 285 251 l 1
 286 257 l 2
 288 272 249 408 224 477 c 0
 183 589 147 635 100 635 c 0
 89 635 77 632 55 623 c 1
 52 647 l 1x80
EndSplineSet
Validated: 33
EndChar

StartChar: Z
Encoding: 58 90 58
Width: 667
Flags: MW
HStem: -3 20 0 39<213 303> 652 37<449 475 449 522> 672 20<637 637>
LayerCount: 2
Fore
SplineSet
20 -3 m 1x80
 20 19 l 1
 522 652 l 1
 342 652 l 2xa0
 257 652 212 649 162 639 c 1
 156 619 l 2
 144 580 138 555 135 533 c 1
 109 533 l 1
 117 606 120 645 120 692 c 1x10
 238 691 l 1
 449 689 l 1
 475 689 l 1x20
 637 692 l 1
 637 672 l 1
 133 39 l 1
 414 39 l 2x50
 457 39 502 44 541 52 c 1
 549 74 l 2
 557 96 566 122 573 142 c 2
 580 164 l 1
 606 164 l 1
 592 93 585 40 583 -3 c 1x80
 517 -2 l 2
 451 -1 349 0 257 0 c 0x40
 169 0 105 -1 20 -3 c 1x80
EndSplineSet
Validated: 1
EndChar

StartChar: bracketleft
Encoding: 59 91 59
Width: 333
Flags: W
LayerCount: 2
Fore
SplineSet
326 733 m 1
 326 705 l 1
 238 698 l 2
 225 696 222 691 217 667 c 2
 201 581 l 2
 196 560 170 399 160 329 c 2
 109 -14 l 2
 106 -32 106 -37 106 -44 c 0
 106 -57 115 -63 134 -65 c 2
 213 -72 l 1
 208 -100 l 1
 166 -98 l 2
 142 -97 124 -97 114 -97 c 0
 104 -97 84 -98 53 -99 c 2
 20 -100 l 1
 18 -95 l 1
 69 189 l 2
 97 347 136 621 146 729 c 1
 154 733 l 1
 171 732 l 2
 200 731 220 731 240 731 c 0
 261 731 281 731 309 732 c 2
 326 733 l 1
EndSplineSet
Validated: 1
EndChar

StartChar: backslash
Encoding: 60 92 60
Width: 606
Flags: MW
HStem: 0 20
LayerCount: 2
Fore
SplineSet
453 0 m 1
 81 733 l 1
 141 733 l 1
 513 0 l 1
 453 0 l 1
EndSplineSet
Validated: 1
EndChar

StartChar: bracketright
Encoding: 61 93 61
Width: 333
Flags: W
LayerCount: 2
Fore
SplineSet
7 -100 m 1
 7 -72 l 1
 95 -65 l 2
 108 -63 111 -58 116 -34 c 2
 132 52 l 2
 144 117 175 312 198 473 c 0
 204 511 208 543 210 557 c 0
 217 602 222 632 223 642 c 0
 223 644 223 644 224 647 c 0
 226 659 227 669 227 677 c 0
 227 690 218 696 199 698 c 2
 120 705 l 1
 125 733 l 1
 167 731 l 2
 191 730 209 730 219 730 c 0
 229 730 249 731 280 732 c 2
 313 733 l 1
 315 728 l 1
 264 443 l 2
 237 291 196 0 187 -96 c 1
 179 -100 l 1
 162 -99 l 2
 132 -98 113 -98 93 -98 c 0
 72 -98 52 -98 24 -99 c 2
 7 -100 l 1
EndSplineSet
Validated: 1
EndChar

StartChar: asciicircum
Encoding: 62 94 62
Width: 606
Flags: W
LayerCount: 2
Fore
SplineSet
112 283 m 1
 51 283 l 1
 270 689 l 1
 336 689 l 1
 554 283 l 1
 493 283 l 1
 303 627 l 1
 112 283 l 1
EndSplineSet
Validated: 1
EndChar

StartChar: underscore
Encoding: 63 95 63
Width: 500
Flags: MW
HStem: -125 50<-16 484 -16 484>
LayerCount: 2
Fore
SplineSet
484 -125 m 1
 -16 -125 l 1
 -16 -75 l 1
 484 -75 l 1
 484 -125 l 1
EndSplineSet
Validated: 1
EndChar

StartChar: quoteleft
Encoding: 571 8216 64
Width: 278
Flags: W
LayerCount: 2
Fore
SplineSet
87 488 m 1
 78 506 l 1
 128 601 168 661 219 720 c 1
 251 733 l 1
 258 724 l 1
 211 651 186 588 176 513 c 1
 146 508 120 500 87 488 c 1
EndSplineSet
Validated: 1
EndChar

StartChar: a
Encoding: 65 97 65
Width: 444
Flags: MW
HStem: -11 20 -9 20 433 49<210 287.5>
VStem: 4 72<85.5 106.5>
LayerCount: 2
Fore
SplineSet
402 472 m 1xb0
 310 93 l 2
 309 90 309 87 309 83 c 0
 309 67 314 59 324 59 c 0
 339 59 355 68 386 95 c 2
 399 106 l 1
 406 85 l 1
 324 18 283 -9 260 -9 c 0x70
 245 -9 236 3 236 26 c 0
 236 42 238 59 242 77 c 2
 271 204 l 1
 217 128 178 82 136 45 c 0
 98 11 60 -11 38 -11 c 0
 19 -11 4 23 4 67 c 0
 4 146 35 265 79 354 c 0
 104 403 137 433 199 464 c 0
 226 477 246 482 274 482 c 0
 301 482 318 478 359 463 c 1
 392 481 l 1
 402 472 l 1xb0
319 414 m 1
 277 429 257 433 234 433 c 0
 186 433 163 415 139 360 c 0
 104 280 76 164 76 99 c 0
 76 72 82 59 94 59 c 0
 126 59 187 117 244 201 c 0
 278 253 297 305 319 414 c 1
EndSplineSet
Validated: 1
Substitution2: "Single Substitution lookup 21 subtable" ordfeminine
Substitution2: "'aalt' Access All Alternates lookup 0 subtable" ordfeminine
EndChar

StartChar: b
Encoding: 66 98 66
Width: 463
Flags: MW
HStem: -11 47<112.5 210> 462 20<365 384.5>
VStem: 361 72<319.5 376>
LayerCount: 2
Fore
SplineSet
235 722 m 1
 149 324 l 1
 210 403 244 433 296 460 c 0
 323 474 353 482 377 482 c 0
 392 482 405 477 412 468 c 0
 424 453 433 414 433 376 c 0
 433 244 367 107 271 39 c 0
 228 8 177 -11 140 -11 c 0
 85 -11 37 22 37 61 c 0
 37 64 37 68 38 71 c 2
 139 622 l 2
 140 629 141 638 141 646 c 0
 141 663 131 670 107 670 c 2
 59 670 l 1
 63 691 l 1
 136 698 171 707 223 733 c 1
 235 722 l 1
322 424 m 0
 293 424 241 396 208 361 c 0
 168 320 144 271 125 191 c 0
 116 154 112 126 112 101 c 0
 112 59 137 36 183 36 c 0
 237 36 277 68 310 137 c 0
 341 202 361 288 361 351 c 0
 361 401 349 424 322 424 c 0
EndSplineSet
Validated: 1
EndChar

StartChar: c
Encoding: 67 99 67
Width: 407
Flags: MW
HStem: -11 51<158 174> 433 49<270 283.5>
VStem: 25 76<119.5 188.5>
LayerCount: 2
Fore
SplineSet
342 330 m 1
 342 390 l 2
 342 414 306 433 261 433 c 0
 230 433 206 426 185 409 c 0
 136 371 101 267 101 159 c 0
 101 80 130 40 186 40 c 0
 221 40 259 57 331 105 c 2
 346 115 l 1
 354 95 l 1
 304 54 l 2
 249 9 201 -11 147 -11 c 0
 67 -11 25 40 25 136 c 0
 25 241 62 346 117 395 c 0
 174 446 247 482 293 482 c 0
 331 482 365 474 389 458 c 1
 380 432 373 395 365 330 c 1
 342 330 l 1
EndSplineSet
Validated: 1
EndChar

StartChar: d
Encoding: 68 100 68
Width: 500
Flags: MW
HStem: -11 20 -9 20 433 49<242.5 265>
VStem: 17 72<85 128.5>
LayerCount: 2
Fore
SplineSet
483 722 m 1xb0
 357 128 l 2
 350 97 349 91 349 82 c 0
 349 68 354 59 363 59 c 0
 372 59 388 66 402 76 c 2
 446 107 l 1
 456 88 l 1
 375 28 l 2
 340 2 317 -9 300 -9 c 0x70
 283 -9 274 2 274 24 c 0
 274 51 279 81 290 126 c 2
 313 217 l 1
 246 117 213 77 159 33 c 0
 125 6 88 -11 61 -11 c 0
 32 -11 17 21 17 86 c 0
 17 171 37 265 68 323 c 0
 114 411 208 482 277 482 c 0
 303 482 330 477 359 468 c 1
 387 622 l 2
 388 629 389 637 389 646 c 0
 389 663 379 670 355 670 c 2
 307 670 l 1
 311 691 l 1
 384 698 419 707 471 733 c 1
 483 722 l 1xb0
337 351 m 2
 349 410 l 1
 316 427 287 433 243 433 c 0
 216 433 197 428 184 418 c 0
 135 380 89 224 89 98 c 0
 89 72 97 59 114 59 c 0
 133 59 173 83 208 116 c 0
 270 174 319 263 337 351 c 2
EndSplineSet
Validated: 1
EndChar

StartChar: e
Encoding: 69 101 69
Width: 389
Flags: MW
HStem: -11 47<143 159> 440 42<257.5 266.5>
VStem: 15 76<103.5 147 103.5 147> 300 74<373 404.5>
LayerCount: 2
Fore
SplineSet
328 111 m 1
 336 92 l 1
 242 16 188 -11 130 -11 c 0
 58 -11 15 36 15 113 c 0
 15 181 45 299 75 349 c 0
 114 413 225 482 290 482 c 0
 341 482 374 451 374 404 c 0
 374 342 334 296 250 259 c 0
 225 248 198 238 181 234 c 2
 99 214 l 1
 93 185 91 160 91 134 c 0
 91 73 119 36 167 36 c 0
 203 36 251 56 304 94 c 2
 328 111 l 1
113 274 m 2
 104 237 l 1
 147 246 185 259 213 272 c 0
 265 297 300 344 300 389 c 0
 300 420 281 440 252 440 c 0
 228 440 197 428 179 412 c 0
 150 386 130 343 113 274 c 2
EndSplineSet
Validated: 1
EndChar

StartChar: f
Encoding: 70 102 70
Width: 278
Flags: MW
HStem: -276 63<-132.5 -55>
LayerCount: 2
Fore
SplineSet
286 383 m 1
 182 383 l 1
 173 342 166 308 163 295 c 0
 90 -57 68 -126 7 -198 c 0
 -32 -245 -86 -276 -127 -276 c 0
 -138 -276 -153 -273 -162 -268 c 1
 -157 -259 -143 -211 -139 -188 c 1
 -125 -184 l 1
 -107 -206 -96 -213 -73 -213 c 0
 -37 -213 -7 -182 11 -123 c 0
 33 -54 70 132 100 327 c 2
 109 383 l 1
 28 383 l 1
 33 405 l 1
 58 414 78 422 119 442 c 1
 134 521 l 2
 145 578 157 607 179 630 c 0
 201 653 285 715 308 726 c 0
 316 730 332 733 343 733 c 0
 367 733 395 728 413 720 c 1
 408 705 l 2
 401 686 388 649 385 638 c 1
 375 634 l 1
 360 658 333 673 304 673 c 0
 257 673 229 635 213 549 c 2
 192 437 l 1
 207 437 l 2
 258 437 271 438 292 444 c 2
 299 446 l 1
 303 439 l 1
 297 425 290 402 286 383 c 1
EndSplineSet
Validated: 1
EndChar

StartChar: g
Encoding: 71 103 71
Width: 500
Flags: MW
HStem: -276 28<124.5 207> 136 32<138.5 254> 378 46<393 448> 448 34<254 280>
VStem: -37 64<-175.5 -139> 55 71<248.5 294.5> 318 66<-162.5 -137.5> 337 72<298.5 348 298.5 377>
LayerCount: 2
Fore
SplineSet
405 380 m 1xfe
 406 375 l 2
 408 358 409 352 409 344 c 0xf1
 409 253 339 170 240 146 c 0
 238 143 237 142 234 138 c 0
 218 119 213 109 213 100 c 0
 213 81 226 63 260 35 c 2
 320 -14 l 2
 363 -49 384 -85 384 -121 c 0
 384 -204 272 -276 142 -276 c 0
 32 -276 -37 -231 -37 -159 c 0
 -37 -119 -18 -80 16 -52 c 0
 53 -21 84 -6 160 19 c 1
 146 31 139 41 139 52 c 0
 139 66 149 84 166 99 c 2
 207 137 l 1
 196 136 185 136 177 136 c 0
 100 136 55 181 55 259 c 0
 55 330 84 388 140 430 c 0
 184 463 233 482 275 482 c 0
 297 482 321 477 342 469 c 0
 367 459 377 450 393 424 c 1
 411 424 l 2
 451 424 467 426 495 433 c 1
 498 427 l 1
 489 382 l 1
 467 379 456 378 440 378 c 0
 430 378 422 378 405 380 c 1xfe
253 -58 m 2xfa
 176 1 l 1
 125 -14 103 -24 77 -45 c 0
 44 -72 27 -107 27 -145 c 0
 27 -206 83 -248 166 -248 c 0
 250 -248 318 -206 318 -154 c 0
 318 -121 299 -94 253 -58 c 2xfa
251 448 m 0xf5
 176 448 126 383 126 288 c 0
 126 209 158 168 219 168 c 0
 289 168 337 238 337 341 c 0
 337 413 309 448 251 448 c 0xf5
EndSplineSet
Validated: 1
EndChar

StartChar: h
Encoding: 72 104 72
Width: 500
Flags: MW
HStem: -9 20 462 20<396.5 422.5>
LayerCount: 2
Fore
SplineSet
236 722 m 1
 138 265 l 1
 158 290 l 2
 204 349 221 367 256 396 c 0
 319 449 380 482 413 482 c 0
 432 482 443 469 443 446 c 0
 443 428 439 398 432 372 c 2
 368 116 l 2
 362 94 361 86 361 76 c 0
 361 65 367 56 374 56 c 0
 384 56 405 66 435 86 c 2
 461 103 l 1
 471 85 l 1
 374 13 337 -9 311 -9 c 0
 292 -9 281 6 281 30 c 0
 281 50 284 70 294 107 c 2
 345 303 l 2
 354 337 360 374 360 392 c 0
 360 405 351 414 339 414 c 0
 296 414 193 317 148 236 c 0
 119 183 102 122 86 7 c 1
 17 -9 l 1
 10 2 l 1
 31 66 70 237 98 388 c 2
 140 622 l 2
 141 630 142 637 142 646 c 0
 142 663 133 670 108 670 c 2
 60 670 l 1
 64 691 l 1
 137 698 172 707 224 733 c 1
 236 722 l 1
EndSplineSet
Validated: 1
EndChar

StartChar: i
Encoding: 73 105 73
Width: 278
Flags: MW
HStem: -9 20 462 20<185 204.5>
LayerCount: 2
Fore
SplineSet
34 388 m 1
 62 408 l 2
 137 462 174 482 196 482 c 0
 213 482 221 473 221 456 c 0
 221 447 219 438 215 420 c 2
 138 116 l 2
 132 94 131 86 131 76 c 0
 131 65 137 56 144 56 c 0
 154 56 175 66 205 86 c 2
 231 103 l 1
 241 85 l 1
 144 13 107 -9 81 -9 c 0
 62 -9 51 6 51 30 c 0
 51 50 55 75 64 107 c 2
 130 347 l 2
 134 362 138 383 138 391 c 0
 138 404 130 414 120 414 c 0
 113 414 112 414 73 389 c 2
 41 368 l 1
 34 388 l 1
228 712 m 0
 249 712 264 695 264 671 c 0
 264 633 241 604 209 604 c 0
 185 604 170 620 170 645 c 0
 170 679 198 712 228 712 c 0
EndSplineSet
Validated: 1
EndChar

StartChar: j
Encoding: 74 106 74
Width: 278
Flags: MW
HStem: -276 45<-16 -12> 462 20<192 211>
LayerCount: 2
Fore
SplineSet
-70 -269 m 1
 -62 -212 l 1
 -41 -225 -23 -231 -9 -231 c 0
 9 -231 27 -196 38 -144 c 2
 138 351 l 2
 138 352 139 358 140 363 c 0
 144 377 145 386 145 391 c 0
 145 404 137 414 127 414 c 0
 120 414 119 414 80 389 c 2
 48 368 l 1
 41 388 l 1
 69 408 l 2
 144 462 181 482 203 482 c 0
 219 482 228 473 228 457 c 0
 228 451 226 438 222 420 c 2
 146 70 l 2
 118 -57 104 -107 84 -152 c 0
 48 -233 8 -276 -32 -276 c 0
 -48 -276 -60 -274 -70 -269 c 1
229 712 m 0
 250 712 265 695 265 671 c 0
 265 633 242 604 210 604 c 0
 186 604 171 620 171 645 c 0
 171 679 199 712 229 712 c 0
EndSplineSet
Validated: 1
EndChar

StartChar: k
Encoding: 75 107 75
Width: 444
Flags: MW
HStem: -9 20 416 66<371 400.5>
LayerCount: 2
Fore
SplineSet
234 722 m 1
 127 230 l 1
 252 405 335 482 401 482 c 0
 414 482 430 479 449 473 c 1
 432 410 l 1
 415 414 405 416 396 416 c 0
 346 416 300 391 239 330 c 2
 225 316 l 1
 264 193 286 139 321 75 c 0
 330 58 337 52 347 52 c 0
 356 52 362 54 376 62 c 2
 419 86 l 1
 427 67 l 1
 381 35 l 2
 336 4 313 -9 300 -9 c 0
 275 -9 243 58 174 259 c 1
 140 225 116 180 107 132 c 2
 84 8 l 1
 17 -9 l 1
 8 1 l 1
 60 210 76 279 90 354 c 2
 138 622 l 2
 139 630 140 637 140 646 c 0
 140 663 131 670 106 670 c 2
 58 670 l 1
 62 691 l 1
 135 698 170 707 222 733 c 1
 234 722 l 1
EndSplineSet
Validated: 1
EndChar

StartChar: l
Encoding: 76 108 76
Width: 278
Flags: MW
HStem: -9 20
LayerCount: 2
Fore
SplineSet
251 722 m 1
 122 113 l 1
 120 104 l 2
 117 89 116 83 116 76 c 0
 116 65 122 56 129 56 c 0
 139 56 160 66 190 86 c 2
 216 103 l 1
 226 85 l 1
 129 13 92 -9 66 -9 c 0
 47 -9 36 6 36 30 c 0
 36 52 41 81 55 132 c 2
 69 184 l 2
 84 234 145 545 151 600 c 2
 154 622 l 2
 157 644 157 644 157 648 c 0
 157 663 147 670 123 670 c 2
 75 670 l 1
 79 691 l 1
 152 698 187 707 239 733 c 1
 251 722 l 1
EndSplineSet
Validated: 1
EndChar

StartChar: m
Encoding: 77 109 77
Width: 778
Flags: MW
HStem: -9 20 462 20<174.5 192.5 414 437 678.5 701>
LayerCount: 2
Fore
SplineSet
730 103 m 1
 740 85 l 1
 639 11 606 -9 580 -9 c 0
 561 -9 550 6 550 31 c 0
 550 54 554 78 563 107 c 0
 575 145 587 192 606 264 c 0
 629 356 631 364 631 389 c 0
 631 405 627 414 618 414 c 0
 586 414 536 379 481 318 c 0
 437 269 403 194 387 113 c 2
 366 6 l 1
 297 -9 l 1
 292 2 l 1
 308 69 l 2
 349 247 371 357 371 394 c 0
 371 407 367 414 360 414 c 0
 332 414 287 384 245 338 c 0
 190 278 163 219 139 108 c 2
 117 6 l 1
 49 -9 l 1
 46 2 l 1
 87 146 128 337 128 389 c 0
 128 404 121 414 110 414 c 0
 103 414 102 414 63 389 c 2
 31 368 l 1
 24 388 l 1
 52 408 l 2
 126 461 164 482 185 482 c 0
 200 482 208 470 208 451 c 0
 208 439 206 424 202 408 c 2
 169 275 l 1
 235 363 254 385 298 418 c 0
 353 460 399 482 429 482 c 0
 445 482 455 470 455 451 c 0
 455 445 452 429 448 409 c 2
 418 272 l 1
 466 340 503 377 565 421 c 0
 627 464 664 482 693 482 c 0
 709 482 719 472 719 454 c 0
 719 446 716 430 712 413 c 2
 637 116 l 2
 632 95 630 86 630 76 c 0
 630 65 636 56 643 56 c 0
 653 56 674 66 704 86 c 2
 730 103 l 1
EndSplineSet
Validated: 1
EndChar

StartChar: n
Encoding: 78 110 78
Width: 556
Flags: MW
HStem: -9 20 462 20<174.5 192.5 431 462>
LayerCount: 2
Fore
SplineSet
24 388 m 1
 52 408 l 2
 126 461 164 482 185 482 c 0
 200 482 208 471 208 449 c 0
 208 438 206 427 202 408 c 2
 164 247 l 1
 216 320 244 354 282 389 c 0
 341 444 410 482 452 482 c 0
 472 482 483 469 483 446 c 0
 483 428 479 402 472 372 c 2
 406 96 l 2
 405 91 404 82 404 76 c 0
 404 65 410 56 417 56 c 0
 427 56 448 66 478 86 c 2
 504 103 l 1
 514 85 l 1
 418 14 379 -9 354 -9 c 0
 335 -9 324 6 324 31 c 0
 324 47 328 69 337 107 c 2
 389 319 l 2
 397 352 400 371 400 390 c 0
 400 406 394 414 383 414 c 0
 338 414 264 352 209 269 c 0
 163 199 142 134 123 8 c 1
 101 4 78 -2 53 -9 c 1
 46 2 l 1
 87 146 128 337 128 389 c 0
 128 404 121 414 110 414 c 0
 103 414 102 414 63 389 c 2
 31 368 l 1
 24 388 l 1
EndSplineSet
Validated: 1
Substitution2: "'sups' Superscript lookup 3 subtable" nsuperior
Substitution2: "'aalt' Access All Alternates lookup 0 subtable" nsuperior
EndChar

StartChar: o
Encoding: 79 111 79
Width: 444
Flags: MW
HStem: -11 38<155.5 172.5> 444 38<256 272>
VStem: 17 76<111.5 207.5 111.5 213> 335 76<280.5 357.5>
LayerCount: 2
Fore
SplineSet
278 482 m 0
 361 482 411 425 411 331 c 0
 411 230 367 116 305 57 c 0
 260 15 200 -11 145 -11 c 0
 62 -11 17 46 17 152 c 0
 17 274 62 375 143 433 c 0
 189 465 234 482 278 482 c 0
241 444 m 0
 216 444 194 438 181 427 c 0
 132 387 93 264 93 151 c 0
 93 72 126 27 185 27 c 0
 216 27 242 39 260 60 c 0
 304 113 335 219 335 315 c 0
 335 400 303 444 241 444 c 0
EndSplineSet
Validated: 1
Substitution2: "Single Substitution lookup 21 subtable" ordmasculine
Substitution2: "'aalt' Access All Alternates lookup 0 subtable" ordmasculine
EndChar

StartChar: p
Encoding: 80 112 80
Width: 500
Flags: MW
HStem: -11 47<191 204.5> 0 20 424 58
VStem: 393 72<333.5 379>
LayerCount: 2
Fore
SplineSet
115 3 m 1x50
 73 -259 l 1
 39 -265 22 -269 0 -276 c 1
 -7 -270 l 1
 1 -233 l 2
 21 -144 40 -52 50 8 c 2
 108 351 l 2
 110 362 112 380 112 389 c 0
 112 403 105 412 95 412 c 0
 86 412 75 407 47 389 c 2
 15 368 l 1
 8 388 l 1
 36 408 l 2
 110 461 148 482 169 482 c 0
 183 482 191 471 191 452 c 0
 191 440 189 425 186 408 c 2
 162 289 l 1
 198 348 219 374 259 409 c 0
 311 456 364 482 406 482 c 0
 442 482 465 438 465 371 c 0
 465 296 431 186 390 125 c 0
 347 62 233 -11 176 -11 c 0xb0
 165 -11 150 -8 124 0 c 2
 115 3 l 1x50
143 165 m 2
 125 59 l 1
 151 43 175 36 207 36 c 0
 248 36 280 51 300 80 c 0
 353 156 393 275 393 356 c 0
 393 402 381 424 355 424 c 0
 272 424 165 293 143 165 c 2
EndSplineSet
Validated: 1
EndChar

StartChar: q
Encoding: 81 113 81
Width: 463
Flags: MW
HStem: -11 20 433 49<237.5 298.5>
VStem: 24 72<96 130>
LayerCount: 2
Fore
SplineSet
385 458 m 1
 418 480 l 1
 432 474 l 1
 422 443 416 417 405 356 c 2
 319 -100 l 2
 310 -150 304 -206 300 -259 c 1
 275 -262 245 -268 214 -276 c 1
 205 -262 l 1
 217 -249 227 -229 232 -205 c 2
 308 209 l 1
 270 142 206 71 141 25 c 2
 133 19 l 2
 101 -3 83 -11 60 -11 c 0
 36 -11 24 19 24 78 c 0
 24 182 63 327 103 374 c 0
 126 400 169 435 205 457 c 0
 233 474 257 482 284 482 c 0
 313 482 342 475 385 458 c 1
330 311 m 2
 351 406 l 1
 303 427 282 433 254 433 c 0
 221 433 193 424 181 409 c 0
 139 359 96 210 96 113 c 0
 96 79 104 59 118 59 c 0
 147 59 208 106 260 170 c 0
 297 216 319 260 330 311 c 2
EndSplineSet
Validated: 1
EndChar

StartChar: r
Encoding: 82 114 82
Width: 389
Flags: MW
HStem: -9 20 462 20<176.5 194.5 348.5 366.5>
LayerCount: 2
Fore
SplineSet
368 365 m 1
 354 365 l 1
 343 379 333 384 318 384 c 0
 295 384 270 364 235 319 c 0
 191 262 168 210 150 126 c 2
 124 6 l 1
 111 4 l 2
 88 -1 72 -4 57 -9 c 1
 47 -2 l 1
 87 127 130 332 130 390 c 0
 130 403 123 412 113 412 c 0
 104 412 93 407 65 389 c 2
 33 368 l 1
 26 388 l 1
 54 408 l 2
 128 461 166 482 187 482 c 0
 202 482 210 471 210 450 c 0
 210 438 208 426 204 408 c 2
 198 382 l 2
 192 360 184 320 180 297 c 2
 172 256 l 1
 188 291 200 312 239 368 c 2
 266 407 l 2
 302 458 333 482 364 482 c 0
 369 482 375 480 384 476 c 1
 375 433 371 403 368 365 c 1
EndSplineSet
Validated: 1
EndChar

StartChar: s
Encoding: 83 115 83
Width: 389
Flags: MW
HStem: -11 40<132 140.5> 442 40<219 228.5>
VStem: 47 59<327.5 334> 56 247<64 397> 267 67<149 158>
LayerCount: 2
Fore
SplineSet
31 148 m 1xe8
 56 148 l 1
 56 64 l 1xd0
 84 40 114 29 150 29 c 0
 221 29 267 72 267 138 c 0
 267 178 251 195 207 203 c 2
 144 215 l 2
 78 228 47 260 47 316 c 0xe8
 47 352 58 377 84 404 c 0
 132 453 193 482 245 482 c 0
 278 482 306 474 345 455 c 1
 334 400 330 379 326 342 c 1
 303 342 l 1
 303 397 l 1xd0
 287 424 249 442 208 442 c 0
 150 442 106 401 106 348 c 0
 106 307 125 290 185 279 c 2
 228 271 l 2
 303 257 334 229 334 174 c 0
 334 124 313 87 262 47 c 0
 211 7 165 -11 116 -11 c 0
 81 -11 47 -3 9 16 c 1
 20 62 26 97 31 148 c 1xe8
EndSplineSet
Validated: 1
Substitution2: "'hist' Historical Forms lookup 18 subtable" longs
Substitution2: "'aalt' Access All Alternates lookup 0 subtable" longs
EndChar

StartChar: t
Encoding: 84 116 84
Width: 333
Flags: MW
HStem: -9 20
LayerCount: 2
Fore
SplineSet
125 390 m 1
 41 390 l 1
 43 403 l 1
 61 408 85 418 131 440 c 1
 156 610 l 1
 187 622 214 634 234 646 c 1
 245 631 l 1
 227 577 216 528 200 434 c 1
 238 434 272 436 310 440 c 1
 299 390 l 1
 192 390 l 1
 179 328 l 2
 149 180 136 102 136 76 c 0
 136 64 141 56 149 56 c 0
 161 56 180 65 210 86 c 2
 255 117 l 1
 265 99 l 1
 249 86 l 1
 234 74 l 2
 156 10 121 -9 86 -9 c 0
 67 -9 56 6 56 31 c 0
 56 44 58 57 64 86 c 0
 67 97 68 100 69 107 c 2
 125 390 l 1
EndSplineSet
Validated: 1
EndChar

StartChar: u
Encoding: 85 117 85
Width: 556
Flags: MW
HStem: -11 20 -9 20 462 20<182.5 200 485 485>
LayerCount: 2
Fore
SplineSet
333 97 m 2x60
 370 239 l 1
 286 101 166 -11 102 -11 c 0x80
 82 -11 67 7 67 30 c 0
 67 45 69 67 71 77 c 2
 134 374 l 2
 135 379 136 387 136 392 c 0
 136 403 129 412 119 412 c 0
 110 412 99 407 71 389 c 2
 39 368 l 1
 32 388 l 1
 60 408 l 2
 134 461 172 482 193 482 c 0
 207 482 215 471 215 451 c 0
 215 438 213 424 210 408 c 2
 153 137 l 2
 147 111 146 100 146 85 c 0
 146 68 150 59 159 59 c 0
 200 59 276 129 336 221 c 0
 367 268 392 336 407 414 c 2
 417 465 l 1
 485 482 l 1
 492 473 l 1
 462 357 431 227 408 116 c 1
 407 110 l 2
 403 94 402 84 402 76 c 0
 402 66 407 59 415 59 c 0
 427 59 451 70 476 86 c 2
 502 103 l 1
 512 85 l 1
 416 13 377 -9 352 -9 c 0
 333 -9 322 6 322 31 c 0
 322 47 326 72 333 97 c 2x60
EndSplineSet
Validated: 1
EndChar

StartChar: v
Encoding: 86 118 86
Width: 500
Flags: MW
HStem: -11 50<203.5 207> 457 20<85 91.5> 462 20<275 275 408 433.5>
VStem: 76 72<113 171> 413 64<364 370>
LayerCount: 2
Fore
SplineSet
332 423 m 1xd8
 382 470 l 2
 390 478 401 482 415 482 c 0x38
 452 482 477 442 477 384 c 0
 477 344 460 277 438 227 c 0
 407 158 359 91 312 48 c 0
 266 7 228 -11 186 -11 c 0
 121 -11 76 43 76 121 c 0
 76 221 118 304 229 424 c 1
 203 421 191 420 167 420 c 0
 156 420 146 420 138 421 c 0
 124 422 114 422 111 422 c 0
 86 422 67 411 60 394 c 2
 43 352 l 1
 21 352 l 1
 34 407 45 443 59 470 c 1
 70 475 79 477 91 477 c 0
 92 477 97 477 103 476 c 2
 115 475 l 2
 146 472 185 470 215 470 c 0
 241 470 256 473 275 482 c 1
 285 464 l 1
 187 342 148 251 148 146 c 0
 148 80 179 39 228 39 c 0
 316 39 413 201 413 350 c 0
 413 390 398 413 370 413 c 0
 360 413 352 410 343 404 c 1
 332 423 l 1xd8
EndSplineSet
Validated: 1
EndChar

StartChar: w
Encoding: 87 119 87
Width: 722
Flags: MW
HStem: -11 50<185.5 192 438 452> 457 20<85 91.5> 462 20<275 275 469 469 630 655.5>
VStem: 72 73<106 168.5> 338 65<106 108> 635 64<363.5 370>
LayerCount: 2
Fore
SplineSet
554 423 m 1xdc
 604 470 l 2
 612 478 623 482 637 482 c 0x3c
 674 482 699 442 699 384 c 0
 699 343 683 278 660 227 c 0
 598 90 493 -11 411 -11 c 0
 367 -11 338 31 338 97 c 0
 338 119 341 142 350 187 c 1
 276 44 224 -11 160 -11 c 0
 107 -11 72 43 72 126 c 0
 72 211 106 283 196 388 c 0
 213 407 217 413 223 420 c 2
 226 424 l 1
 202 421 191 420 167 420 c 0
 156 420 146 420 138 421 c 0
 124 422 114 422 111 422 c 0
 86 422 67 411 60 394 c 2
 43 352 l 1
 21 352 l 1
 34 407 45 443 59 470 c 1
 70 475 79 477 91 477 c 0
 92 477 97 477 103 476 c 2
 115 475 l 2
 146 472 185 470 215 470 c 0
 241 470 256 473 275 482 c 1
 285 464 l 1
 186 351 145 255 145 135 c 0
 145 77 168 39 203 39 c 0
 233 39 271 79 311 155 c 0
 340 209 354 248 366 311 c 2
 395 460 l 1
 469 482 l 1
 476 474 l 1
 424 290 l 2
 412 246 403 182 403 134 c 0
 403 78 424 39 452 39 c 0
 538 39 635 204 635 350 c 0
 635 390 620 413 592 413 c 0
 582 413 574 410 565 404 c 1
 554 423 l 1xdc
EndSplineSet
Validated: 1
EndChar

StartChar: x
Encoding: 88 120 88
Width: 500
Flags: MW
HStem: -11 65<46 94> 406 76 416 66<158 159>
LayerCount: 2
Fore
SplineSet
21 88 m 1xc0
 41 91 l 1
 52 63 l 2
 54 58 65 54 80 54 c 0
 108 54 141 85 185 153 c 2
 225 215 l 1
 214 277 l 2
 197 375 176 416 142 416 c 0
 123 416 103 402 73 368 c 1
 56 378 l 1
 114 461 l 2
 123 474 145 482 171 482 c 0xa0
 230 482 257 446 269 347 c 2
 275 299 l 1
 312 354 l 2
 374 446 414 482 454 482 c 0
 464 482 472 479 484 472 c 1
 469 387 l 1
 455 383 l 1
 450 398 438 406 422 406 c 0
 391 406 364 383 317 318 c 2
 282 269 l 1
 300 168 l 2
 305 139 316 102 325 83 c 0
 335 63 347 53 363 53 c 0
 379 53 403 67 440 98 c 1
 449 79 l 1
 400 35 l 2
 367 6 336 -11 314 -11 c 0
 278 -11 255 29 242 113 c 2
 231 182 l 1
 155 65 l 2
 124 18 85 -11 52 -11 c 0
 40 -11 25 -7 9 1 c 1
 10 8 11 11 13 23 c 0
 19 55 21 68 21 88 c 1xc0
EndSplineSet
Validated: 1
EndChar

StartChar: y
Encoding: 89 121 89
Width: 500
Flags: MW
HStem: -276 42<93.5 127> -11 20 462 20<153.5 168.5 479 479>
VStem: -8 57<-219.5 -169.5> 111 73<357.5 441.5>
LayerCount: 2
Fore
SplineSet
-7 -180 m 1
 41 -146 l 1
 51 -150 l 1
 50 -159 49 -167 49 -172 c 0
 49 -207 76 -234 111 -234 c 0
 181 -234 231 -161 282 16 c 2
 331 187 l 1
 256 74 172 -11 135 -11 c 0
 109 -11 92 17 92 60 c 2
 93 100 l 1
 110 343 l 2
 111 351 111 357 111 358 c 0
 111 392 103 410 89 410 c 0
 84 410 84 410 64 398 c 2
 14 368 l 1
 3 386 l 1
 85 442 l 2
 133 475 147 482 160 482 c 0
 177 482 184 464 184 419 c 0
 184 391 182 353 180 322 c 2
 165 128 l 1
 165 116 l 2
 165 86 173 67 185 67 c 0
 207 67 256 111 290 162 c 0
 323 211 358 284 370 331 c 2
 405 463 l 1
 427 465 451 471 479 482 c 1
 490 473 l 1
 349 33 l 2
 290 -152 180 -276 74 -276 c 0
 29 -276 -8 -241 -8 -198 c 0
 -8 -193 -8 -187 -7 -180 c 1
EndSplineSet
Validated: 1
EndChar

StartChar: z
Encoding: 90 122 90
Width: 444
Flags: MW
HStem: -11 68<312.5 328.5> 413 69<127 140.5>
LayerCount: 2
Fore
SplineSet
-1 21 m 1
 352 421 l 1
 319 404 295 398 259 398 c 0
 238 398 212 401 178 408 c 0
 157 412 148 413 133 413 c 0
 119 413 111 412 94 408 c 1
 64 350 l 1
 43 350 l 1
 75 472 l 1
 99 479 118 482 136 482 c 0
 150 482 169 478 198 471 c 2
 216 466 l 2
 266 453 315 445 350 445 c 0
 364 445 374 449 384 459 c 2
 407 482 l 1
 416 473 l 1
 410 441 l 1
 71 59 l 1
 107 74 133 80 166 80 c 0
 186 80 218 76 252 68 c 2
 270 64 l 2
 292 59 306 57 319 57 c 0
 340 57 352 64 358 82 c 2
 380 142 l 1
 402 142 l 1
 391 95 383 61 372 -1 c 1
 342 -10 335 -11 322 -11 c 0
 294 -11 265 -6 204 9 c 0
 150 22 125 26 99 26 c 0
 64 26 37 17 8 -6 c 1
 -1 21 l 1
EndSplineSet
Validated: 1
EndChar

StartChar: braceleft
Encoding: 91 123 91
Width: 333
Flags: MW
HStem: 0 20<112 112>
VStem: 40 69<-30 -10 -41.5 -1> 76 70<239.5 261 233 265.5>
LayerCount: 2
Fore
SplineSet
45 46 m 2xc0
 72 202 l 2
 75 218 76 232 76 247 c 0
 76 284 62 300 15 315 c 1
 77 333 100 360 111 427 c 2
 140 599 l 2
 159 702 201 733 319 733 c 1
 255 717 228 686 215 613 c 2
 185 441 l 2
 171 360 147 332 79 315 c 1
 128 300 146 281 146 241 c 0xa0
 146 225 144 204 140 182 c 2
 112 20 l 2
 110 7 109 -3 109 -17 c 0
 109 -66 126 -87 175 -100 c 1
 123 -99 101 -96 80 -87 c 0
 53 -75 40 -50 40 -10 c 0
 40 8 42 27 45 46 c 2xc0
EndSplineSet
Validated: 1
EndChar

StartChar: bar
Encoding: 92 124 92
Width: 606
Flags: MW
VStem: 275 56<-244 750 -244 750>
LayerCount: 2
Fore
SplineSet
275 -244 m 1
 275 750 l 1
 331 750 l 1
 331 -244 l 1
 275 -244 l 1
EndSplineSet
Validated: 1
EndChar

StartChar: braceright
Encoding: 93 125 93
Width: 333
Flags: MW
HStem: 0 20<118 118>
VStem: 187 70<372 393 367 400> 224 69<643 662.5 633.5 674.5>
LayerCount: 2
Fore
SplineSet
288 587 m 2xa0
 261 431 l 2
 258 415 257 401 257 385 c 0
 257 349 272 332 318 318 c 1
 256 300 233 273 222 206 c 2
 193 34 l 2
 174 -69 132 -100 14 -100 c 1
 78 -84 105 -53 118 20 c 2
 148 192 l 2
 162 273 186 301 254 318 c 1
 205 332 187 352 187 392 c 0xc0
 187 408 189 429 193 451 c 2
 221 613 l 2
 223 625 224 636 224 650 c 0
 224 699 207 720 158 733 c 1
 211 732 232 729 253 720 c 0
 280 708 293 683 293 642 c 0
 293 625 291 606 288 587 c 2xa0
EndSplineSet
Validated: 1
EndChar

StartChar: asciitilde
Encoding: 94 126 94
Width: 606
Flags: MW
HStem: 188 56<405.5 434 405.5 442> 259 57<171 203>
LayerCount: 2
Fore
SplineSet
521 328 m 1
 555 301 l 1
 512 223 468 188 416 188 c 0
 391 188 366 196 287 230 c 0
 224 256 215 259 191 259 c 0
 151 259 125 237 85 169 c 1
 51 196 l 1
 100 283 138 316 190 316 c 0
 221 316 247 308 318 277 c 0
 380 249 396 244 415 244 c 0
 453 244 489 273 521 328 c 1
EndSplineSet
Validated: 1
EndChar

StartChar: exclamdown
Encoding: 96 161 95
Width: 333
Flags: W
LayerCount: 2
Fore
SplineSet
188 467 m 0
 214 467 233 446 233 419 c 0
 233 381 206 350 172 350 c 0
 145 350 128 368 128 397 c 0
 128 436 155 467 188 467 c 0
111 -250 m 1
 26 -276 l 1
 15 -267 l 1
 62 -86 76 -27 138 249 c 1
 168 266 l 1
 174 263 l 1
 153 109 l 2
 144 42 127 -102 118 -179 c 2
 111 -250 l 1
EndSplineSet
Validated: 1
EndChar

StartChar: cent
Encoding: 97 162 96
Width: 500
Flags: MW
VStem: 56 74<131 180.5 131 195>
LayerCount: 2
Fore
SplineSet
316 480 m 1
 343 551 l 1
 376 551 l 1
 349 480 l 1
 374 480 396 473 418 458 c 1
 405 400 399 365 397 330 c 1
 374 330 l 1
 374 394 l 2
 373 407 362 416 330 427 c 1
 184 45 l 1
 193 42 201 40 209 40 c 0
 259 40 310 62 379 115 c 1
 386 95 l 1
 326 46 l 2
 280 9 225 -10 163 -11 c 1
 129 -96 l 1
 97 -96 l 1
 132 -2 l 1
 101 7 88 18 74 45 c 0
 62 69 56 101 56 140 c 0
 56 250 104 366 170 413 c 0
 225 452 272 474 316 480 c 1
157 64 m 1
 297 432 l 1
 291 433 286 433 283 433 c 0
 246 433 208 412 189 382 c 0
 162 340 130 212 130 149 c 0
 130 113 139 85 157 64 c 1
EndSplineSet
Validated: 1
EndChar

StartChar: sterling
Encoding: 98 163 97
Width: 500
Flags: MW
HStem: -18 20 -14 20 322 35<41 129 34 135 209 344> 663 45<359 372.5>
LayerCount: 2
Fore
SplineSet
477 159 m 1xb0
 441 1 l 1
 424 -9 405 -14 382 -14 c 0x40
 367 -14 357 -12 292 -1 c 0
 266 4 243 8 235 10 c 2
 228 11 l 2
 226 12 226 12 225 12 c 2
 219 13 l 1
 213 14 l 2
 168 22 137 26 116 26 c 0
 87 26 83 25 64 10 c 0
 53 2 36 -10 23 -18 c 1
 11 -13 2 8 2 27 c 1
 83 71 108 129 129 322 c 1
 34 322 l 1
 41 357 l 1
 135 357 l 1
 159 499 186 568 243 632 c 0
 289 684 333 708 385 708 c 0
 421 708 444 701 479 680 c 1
 466 641 461 607 460 558 c 1
 437 558 l 1
 437 612 l 2
 437 639 396 663 349 663 c 0
 300 663 267 631 255 569 c 2
 250 544 l 1
 219 400 l 1
 209 357 l 1
 351 357 l 1
 344 322 l 1
 201 322 l 1
 162 169 137 110 91 64 c 1
 130 76 150 79 176 79 c 0
 191 79 220 77 236 75 c 2
 295 66 l 2
 309 64 328 62 339 62 c 2
 369 62 l 2
 408 61 417 66 431 99 c 2
 453 159 l 1
 477 159 l 1xb0
EndSplineSet
Validated: 33
EndChar

StartChar: fraction
Encoding: 589 8260 98
Width: 167
Flags: MW
HStem: 0 20 679 20<281 337 337 337>
LayerCount: 2
Fore
SplineSet
-114 0 m 1
 -170 0 l 1
 281 699 l 1
 337 699 l 1
 -114 0 l 1
EndSplineSet
Validated: 1
EndChar

StartChar: yen
Encoding: 100 165 99
Width: 500
Flags: MW
HStem: -3 20 0 20 203 34<96 205 90 210 275 380> 310 34<112 196 112 205 106 196 302 392>
LayerCount: 2
Fore
SplineSet
270 203 m 1xb0
 254 93 l 2
 251 75 251 70 251 58 c 0
 251 37 259 30 282 28 c 2
 323 25 l 1
 321 -3 l 1xa0
 298 -2 l 2
 262 -1 234 0 216 0 c 0x40
 203 0 178 -1 144 -2 c 2
 98 -3 l 1
 101 25 l 1
 142 28 l 2
 161 30 170 34 174 43 c 0
 178 49 184 80 192 125 c 2
 205 203 l 1
 90 203 l 1
 96 237 l 1
 210 237 l 1
 212 247 212 252 212 258 c 0
 212 274 210 286 205 310 c 1
 106 310 l 1
 112 344 l 1
 196 344 l 1
 187 386 l 2
 149 562 117 630 71 630 c 0
 62 630 53 627 35 618 c 1
 35 642 l 1
 55 659 71 673 96 699 c 1
 163 701 208 596 261 319 c 1
 356 557 429 666 512 691 c 1
 508 621 l 1
 455 609 420 572 362 467 c 1
 356 457 l 2
 337 421 328 404 321 387 c 2
 302 344 l 1
 398 344 l 1
 392 310 l 1
 290 310 l 1
 283 293 279 274 275 237 c 1
 386 237 l 1
 380 203 l 1
 270 203 l 1xb0
EndSplineSet
Validated: 33
EndChar

StartChar: florin
Encoding: 319 402 100
Width: 500
Flags: MW
HStem: 370 34<128 232 119 237 310 414> 647 62<393.5 440>
LayerCount: 2
Fore
SplineSet
5 -276 m 1
 17 -196 l 1
 28 -192 l 1
 41 -207 54 -212 74 -212 c 0
 99 -212 121 -187 133 -146 c 1
 134 -140 l 2
 142 -114 145 -103 148 -87 c 2
 232 370 l 1
 119 370 l 1
 128 404 l 1
 237 404 l 1
 257 491 276 540 315 600 c 0
 360 670 407 710 440 709 c 1
 440 709 442 709 445 708 c 2
 470 703 l 1
 458 624 l 1
 439 640 423 647 404 647 c 0
 383 647 364 634 355 614 c 0
 345 590 336 552 321 467 c 2
 310 404 l 1
 422 404 l 1
 414 370 l 1
 305 370 l 1
 254 123 l 2
 230 2 173 -157 135 -210 c 0
 114 -243 49 -276 5 -276 c 1
EndSplineSet
Validated: 33
EndChar

StartChar: section
Encoding: 102 167 101
Width: 500
Flags: MW
HStem: -220 46<163.5 187.5> 661 45<306.5 325.5>
VStem: 49 63<267 285.5> 117 57<483.5 576> 330 60<-29.5 -19.5> 384 62<221 239>
LayerCount: 2
Fore
SplineSet
71 -29 m 1xc8
 65 -115 l 1
 101 -157 136 -174 191 -174 c 0
 269 -174 330 -117 330 -44 c 0xc8
 330 5 308 33 236 72 c 2
 185 100 l 2
 82 156 49 194 49 255 c 0
 49 316 75 353 158 413 c 1
 129 444 117 470 117 497 c 0
 117 550 139 594 191 644 c 0
 238 689 277 706 336 706 c 0
 388 706 424 695 463 666 c 1
 432 537 l 1
 407 537 l 1
 412 617 l 1
 382 647 347 661 304 661 c 0
 230 661 174 609 174 543 c 0
 174 509 191 479 220 461 c 2
 343 385 l 2
 391 356 407 344 420 327 c 0
 437 306 446 281 446 252 c 0xf4
 446 190 413 141 339 95 c 1
 378 60 390 37 390 -3 c 0
 390 -56 364 -107 312 -155 c 0
 263 -200 216 -220 159 -220 c 0
 102 -220 56 -204 14 -168 c 1
 47 -27 l 1
 71 -29 l 1xc8
296 329 m 2xe4
 177 399 l 1
 131 361 112 329 112 288 c 0
 112 246 139 213 202 177 c 2
 318 111 l 1
 366 150 384 179 384 217 c 0
 384 261 360 291 296 329 c 2xe4
EndSplineSet
Validated: 1
EndChar

StartChar: currency
Encoding: 99 164 102
Width: 500
Flags: MW
HStem: 102 59<223 276.5> 465 59<226 274 226 293.5>
VStem: 37 59<288 339> 404 59<288 339 288 354>
LayerCount: 2
Fore
SplineSet
77 531 m 1
 125 483 l 1
 162 511 202 524 250 524 c 0
 298 524 338 511 375 483 c 1
 423 531 l 1
 470 484 l 1
 421 435 l 1
 451 400 463 365 463 313 c 0
 463 263 451 228 421 190 c 1
 470 141 l 1
 425 96 l 1
 377 144 l 1
 339 114 303 102 250 102 c 0
 196 102 161 114 123 144 c 1
 75 96 l 1
 30 141 l 1
 79 190 l 1
 49 228 37 263 37 313 c 0
 37 365 49 401 79 435 c 1
 30 484 l 1
 77 531 l 1
253 465 m 0
 166 465 96 398 96 314 c 0
 96 229 165 161 250 161 c 0
 335 161 404 229 404 313 c 0
 404 395 334 465 253 465 c 0
EndSplineSet
Validated: 1
EndChar

StartChar: quotesingle
Encoding: 7 39 103
Width: 333
Flags: W
LayerCount: 2
Fore
SplineSet
170 508 m 1
 140 508 l 1
 202 695 l 2
 210 720 226 733 247 733 c 0
 271 733 288 717 288 694 c 0
 288 680 285 669 279 661 c 2
 170 508 l 1
EndSplineSet
Validated: 1
EndChar

StartChar: quotedblleft
Encoding: 575 8220 104
Width: 500
Flags: W
LayerCount: 2
Fore
SplineSet
107 488 m 1
 98 506 l 1
 148 601 188 661 239 720 c 1
 271 733 l 1
 278 724 l 1
 231 651 206 588 196 513 c 1
 166 508 140 500 107 488 c 1
304 488 m 1
 295 506 l 1
 345 601 385 661 436 720 c 1
 468 733 l 1
 475 724 l 1
 428 651 403 588 393 513 c 1
 363 508 337 500 304 488 c 1
EndSplineSet
Validated: 1
EndChar

StartChar: guillemotleft
Encoding: 106 171 105
Width: 500
Flags: W
LayerCount: 2
Fore
SplineSet
208 70 m 1
 57 251 l 1
 57 267 l 1
 251 440 l 1
 270 424 l 1
 133 256 l 1
 228 85 l 1
 208 70 l 1
375 70 m 1
 224 251 l 1
 224 267 l 1
 418 440 l 1
 437 424 l 1
 300 256 l 1
 395 85 l 1
 375 70 l 1
EndSplineSet
Validated: 1
EndChar

StartChar: guilsinglleft
Encoding: 585 8249 106
Width: 333
Flags: W
LayerCount: 2
Fore
SplineSet
208 70 m 1
 57 251 l 1
 57 267 l 1
 251 440 l 1
 270 424 l 1
 133 256 l 1
 228 85 l 1
 208 70 l 1
EndSplineSet
Validated: 1
EndChar

StartChar: guilsinglright
Encoding: 586 8250 107
Width: 333
Flags: W
LayerCount: 2
Fore
SplineSet
125 440 m 1
 276 259 l 1
 276 243 l 1
 82 70 l 1
 63 86 l 1
 200 254 l 1
 105 425 l 1
 125 440 l 1
EndSplineSet
Validated: 1
EndChar

StartChar: fi
Encoding: 850 64257 108
Width: 528
Flags: MW
HStem: -276 63<-132.5 -55> -9 20 462 20<431 439.5> 692 20<450.5 475>
LayerCount: 2
Fore
SplineSet
465 712 m 0
 485 712 502 693 502 671 c 0
 502 633 478 604 447 604 c 0
 423 604 408 620 408 645 c 0
 408 678 436 712 465 712 c 0
192 437 m 1
 281 432 l 1
 286 432 l 2
 309 432 339 442 393 467 c 0
 418 479 427 482 435 482 c 0
 444 482 450 469 450 448 c 0
 450 434 449 425 445 406 c 2
 384 108 l 2
 380 91 379 82 379 74 c 0
 379 61 383 54 392 54 c 0
 404 54 421 62 439 75 c 2
 473 101 l 1
 482 81 l 1
 407 21 357 -9 331 -9 c 0
 309 -9 297 6 297 33 c 0
 297 46 299 64 303 81 c 2
 362 355 l 2
 362 356 362 357 363 357 c 2
 363 360 l 1
 368 374 370 386 370 392 c 0
 370 406 362 415 351 415 c 0
 345 415 342 414 324 406 c 2
 272 383 l 1
 182 383 l 1
 174 345 165 306 163 295 c 0
 91 -55 68 -126 7 -198 c 0
 -32 -245 -86 -276 -127 -276 c 0
 -138 -276 -153 -273 -162 -268 c 1
 -157 -259 -143 -211 -139 -188 c 1
 -125 -184 l 1
 -107 -206 -96 -213 -73 -213 c 0
 -37 -213 -7 -182 11 -123 c 0
 33 -54 70 132 100 327 c 2
 109 383 l 1
 28 383 l 1
 33 405 l 1
 59 414 76 422 119 442 c 1
 134 521 l 2
 145 578 157 608 179 630 c 0
 210 662 279 718 296 726 c 0
 305 730 319 733 331 733 c 0
 343 733 356 730 375 724 c 1
 367 701 363 681 354 635 c 1
 342 632 l 1
 332 658 314 673 292 673 c 0
 257 673 228 628 213 549 c 2
 192 437 l 1
EndSplineSet
Validated: 1
Ligature2: "'liga' Standard Ligatures in Latin lookup 15 subtable" f i
EndChar

StartChar: fl
Encoding: 851 64258 109
Width: 545
Flags: MW
HStem: -276 63<-132.5 -55> -9 20
LayerCount: 2
Fore
SplineSet
365 632 m 1
 355 632 l 1
 346 657 328 669 300 669 c 0
 253 669 229 636 213 549 c 2
 192 437 l 1
 207 437 l 2
 258 437 271 438 292 444 c 2
 299 446 l 1
 303 439 l 1
 297 425 290 402 286 383 c 1
 182 383 l 1
 173 342 166 308 163 295 c 0
 90 -57 68 -126 7 -198 c 0
 -32 -245 -86 -276 -127 -276 c 0
 -138 -276 -153 -273 -162 -268 c 1
 -157 -259 -143 -211 -139 -188 c 1
 -125 -184 l 1
 -107 -206 -96 -213 -73 -213 c 0
 -37 -213 -7 -182 11 -123 c 0
 33 -54 70 132 100 327 c 2
 109 383 l 1
 28 383 l 1
 33 405 l 1
 58 414 78 422 119 442 c 1
 134 521 l 2
 145 578 157 607 179 630 c 0
 201 653 285 715 308 726 c 0
 317 730 332 733 345 733 c 0
 357 733 367 731 383 725 c 1
 376 697 l 1
 422 697 464 709 504 733 c 1
 520 725 l 1
 397 150 l 2
 390 117 387 96 387 79 c 0
 387 64 392 56 403 56 c 0
 413 56 425 61 443 74 c 2
 491 108 l 1
 500 87 l 1
 465 61 l 2
 386 1 367 -9 336 -9 c 0
 316 -9 307 4 307 31 c 0
 307 47 312 75 320 107 c 2
 404 506 l 2
 424 600 424 602 426 642 c 1
 420 664 l 1
 407 669 393 672 387 672 c 2
 371 673 l 1
 365 632 l 1
EndSplineSet
Validated: 1
Ligature2: "'liga' Standard Ligatures in Latin lookup 16 subtable" f l
EndChar

StartChar: endash
Encoding: 567 8211 110
Width: 500
Flags: MW
HStem: 228 50<0 500 -10 510>
LayerCount: 2
Fore
SplineSet
500 228 m 1
 -10 228 l 1
 0 278 l 1
 510 278 l 1
 500 228 l 1
EndSplineSet
Validated: 1
EndChar

StartChar: dagger
Encoding: 578 8224 111
Width: 500
Flags: MW
HStem: 0 20 672 20<259 259 341 341>
LayerCount: 2
Fore
SplineSet
61 472 m 1
 231 466 l 1
 245 548 247 571 257 689 c 1
 259 692 l 1
 277 690 286 690 300 690 c 0
 314 690 323 690 341 692 c 1
 344 689 l 1
 332 647 331 639 310 536 c 2
 296 466 l 1
 465 471 l 1
 469 467 l 1
 461 410 l 1
 456 406 l 1
 286 412 l 1
 276 344 l 2
 263 255 253 185 230 5 c 1
 225 0 l 1
 207 1 199 1 183 1 c 0
 167 1 159 1 141 0 c 1
 138 3 l 1
 163 102 199 267 208 329 c 2
 221 412 l 1
 52 407 l 1
 48 411 l 1
 56 468 l 1
 61 472 l 1
EndSplineSet
Validated: 1
EndChar

StartChar: daggerdbl
Encoding: 579 8225 112
Width: 500
Flags: MW
HStem: 672 20<293 293 369 369>
LayerCount: 2
Fore
SplineSet
105 490 m 1
 264 484 l 1
 270 524 l 2
 277 573 283 629 288 687 c 1
 293 692 l 1
 310 690 318 690 331 690 c 0
 344 690 352 690 369 692 c 1
 370 687 l 1
 350 599 345 577 334 524 c 2
 326 486 l 1
 486 492 l 1
 494 484 l 1
 488 434 l 1
 479 429 l 1
 317 436 l 1
 305 361 l 2
 297 314 296 297 296 265 c 1
 284 240 277 215 267 164 c 2
 253 94 l 1
 413 100 l 1
 421 92 l 1
 415 42 l 1
 406 37 l 1
 244 44 l 1
 232 -24 l 2
 230 -28 226 -70 223 -109 c 0
 223 -117 222 -132 220 -152 c 1
 212 -162 l 1
 195 -160 188 -160 174 -160 c 0
 160 -160 153 -160 136 -162 c 1
 134 -152 l 1
 181 44 l 1
 19 37 l 1
 10 42 l 1
 20 92 l 1
 31 98 l 1
 190 92 l 1
 203 167 l 2
 211 214 214 235 214 269 c 1
 226 293 230 307 244 380 c 2
 255 436 l 1
 93 429 l 1
 84 434 l 1
 94 484 l 1
 105 490 l 1
EndSplineSet
Validated: 1
EndChar

StartChar: periodcentered
Encoding: 118 183 113
Width: 250
Flags: W
LayerCount: 2
Fore
SplineSet
113 312 m 0
 138 312 158 291 158 264 c 0
 158 226 131 195 97 195 c 0
 70 195 53 213 53 242 c 0
 53 281 80 312 113 312 c 0
EndSplineSet
Validated: 1
EndChar

StartChar: paragraph
Encoding: 117 182 114
Width: 500
Flags: MW
HStem: -221 32<256.5 282> 657 32<383 405 405 421.5 365 451 383 383> 657 35<151.5 263.5>
VStem: 33 110<473 549 435.5 573.5>
LayerCount: 2
Fore
SplineSet
87 -194 m 1xb0
 117 -194 l 2
 158 -195 169 -181 180 -119 c 2
 243 250 l 1
 195 257 168 269 133 298 c 0
 69 350 33 430 33 516 c 0
 33 631 94 692 209 692 c 0x30
 217 692 231 692 250 691 c 0
 259 691 279 691 308 690 c 2
 365 689 l 1
 405 689 l 2x50
 438 689 486 690 543 691 c 2
 611 692 l 1
 606 662 l 1
 583 662 l 2
 531 662 518 650 507 592 c 2
 382 -137 l 2
 381 -143 380 -151 380 -155 c 0
 380 -184 393 -194 432 -194 c 2
 475 -194 l 1
 470 -224 l 1
 397 -223 l 2
 337 -222 294 -221 270 -221 c 0
 243 -221 198 -222 137 -223 c 2
 82 -224 l 1
 87 -194 l 1xb0
451 657 m 1xd0
 383 657 l 1
 236 -189 l 1
 304 -189 l 1
 451 657 l 1xd0
249 288 m 1x30
 312 652 l 1
 286 656 271 657 256 657 c 0
 179 657 143 605 143 493 c 0
 143 378 179 307 249 288 c 1x30
EndSplineSet
Validated: 33
EndChar

StartChar: bullet
Encoding: 580 8226 115
Width: 500
Flags: MW
HStem: 205 284<212.5 290.5 212 291>
VStem: 109 284<308 386>
LayerCount: 2
Fore
SplineSet
251 489 m 0
 330 489 393 426 393 347 c 0
 393 269 330 205 252 205 c 0
 173 205 109 268 109 347 c 0
 109 425 173 489 251 489 c 0
EndSplineSet
Validated: 1
EndChar

StartChar: quotesinglbase
Encoding: 573 8218 116
Width: 278
Flags: W
LayerCount: 2
Fore
SplineSet
112 95 m 1
 200 120 l 1
 211 108 l 1
 167 19 123 -47 68 -110 c 1
 36 -122 l 1
 27 -115 l 1
 66 -61 95 11 112 95 c 1
EndSplineSet
Validated: 1
EndChar

StartChar: quotedblbase
Encoding: 577 8222 117
Width: 500
Flags: W
LayerCount: 2
Fore
SplineSet
128 95 m 1
 216 120 l 1
 227 108 l 1
 183 19 139 -47 84 -110 c 1
 52 -122 l 1
 43 -115 l 1
 82 -61 111 11 128 95 c 1
325 95 m 1
 413 120 l 1
 424 108 l 1
 380 19 336 -47 281 -110 c 1
 249 -122 l 1
 240 -115 l 1
 279 -61 308 11 325 95 c 1
EndSplineSet
Validated: 1
EndChar

StartChar: quotedblright
Encoding: 576 8221 118
Width: 500
Flags: W
LayerCount: 2
Fore
SplineSet
269 733 m 1
 278 715 l 1
 229 622 188 560 137 501 c 1
 105 488 l 1
 98 497 l 1
 145 570 170 632 180 708 c 1
 204 712 236 721 269 733 c 1
466 733 m 1
 475 715 l 1
 426 622 385 560 334 501 c 1
 302 488 l 1
 295 497 l 1
 342 570 367 632 377 708 c 1
 401 712 434 721 466 733 c 1
EndSplineSet
Validated: 1
EndChar

StartChar: guillemotright
Encoding: 122 187 119
Width: 500
Flags: W
LayerCount: 2
Fore
SplineSet
125 440 m 1
 276 259 l 1
 276 243 l 1
 82 70 l 1
 63 86 l 1
 200 254 l 1
 105 425 l 1
 125 440 l 1
292 440 m 1
 443 259 l 1
 443 243 l 1
 249 70 l 1
 230 86 l 1
 367 254 l 1
 272 425 l 1
 292 440 l 1
EndSplineSet
Validated: 1
EndChar

StartChar: ellipsis
Encoding: 581 8230 120
Width: 1000
Flags: MW
HStem: -5 20
LayerCount: 2
Fore
SplineSet
162 112 m 0
 188 112 207 91 207 64 c 0
 207 26 180 -5 146 -5 c 0
 119 -5 102 13 102 42 c 0
 102 81 129 112 162 112 c 0
495 112 m 0
 521 112 540 91 540 64 c 0
 540 26 513 -5 479 -5 c 0
 452 -5 435 13 435 42 c 0
 435 81 462 112 495 112 c 0
828 112 m 0
 854 112 873 91 873 64 c 0
 873 26 846 -5 812 -5 c 0
 785 -5 768 13 768 42 c 0
 768 81 795 112 828 112 c 0
EndSplineSet
Validated: 1
EndChar

StartChar: perthousand
Encoding: 582 8240 121
Width: 1000
Flags: MW
HStem: -6 20 0 23<429.5 460 429.5 489.5 752.5 783> 278 23<476 507 799 830> 398 23<170.5 201 170.5 230.5> 676 23<217 248>
VStem: 72 64<489.5 511.5 463 575.5> 283 64<586.5 610.5 525 634> 331 64<91.5 113.5 65 177.5> 542 64<188.5 212.5 127 236> 654 64<91.5 113.5 65 177.5> 865 64<188.5 212.5 127 236>
LayerCount: 2
Fore
SplineSet
231 699 m 0x7e
 300 699 347 648 347 573 c 0
 347 477 275 398 186 398 c 0
 117 398 72 449 72 530 c 0
 72 621 145 699 231 699 c 0x7e
230 676 m 0
 204 676 186 663 169 633 c 0
 150 599 136 538 136 485 c 0
 136 441 153 421 188 421 c 0
 214 421 233 434 250 464 c 0
 269 498 283 560 283 613 c 0
 283 655 266 676 230 676 c 0
490 301 m 0
 559 301 606 250 606 175 c 0
 606 79 534 0 445 0 c 0
 376 0 331 51 331 132 c 0x79e0
 331 223 404 301 490 301 c 0
489 278 m 0
 463 278 445 265 428 235 c 0
 409 201 395 140 395 87 c 0
 395 43 412 23 447 23 c 0
 473 23 492 36 509 66 c 0
 528 99 542 162 542 215 c 0
 542 257 525 278 489 278 c 0
813 301 m 0
 882 301 929 250 929 175 c 0
 929 79 856 0 768 0 c 0
 699 0 654 51 654 132 c 0
 654 223 727 301 813 301 c 0
812 278 m 0
 786 278 768 265 751 235 c 0
 732 201 718 140 718 87 c 0
 718 43 735 23 770 23 c 0
 796 23 815 36 832 66 c 0
 851 99 865 162 865 215 c 0
 865 257 848 278 812 278 c 0
94 -6 m 1x81e0
 550 717 l 1
 591 717 l 1
 139 -6 l 1
 94 -6 l 1x81e0
EndSplineSet
Validated: 1
Ligature2: "'frac' Diagonal Fractions lookup 7 subtable" percent zerosuperior
Ligature2: "'frac' Diagonal Fractions lookup 7 subtable" percent zero
EndChar

StartChar: questiondown
Encoding: 126 191 122
Width: 500
Flags: MW
HStem: -246 59<209 235>
VStem: 57 82<-127 -86> 285 36<199 217 186.5 218.5>
LayerCount: 2
Fore
SplineSet
347 -105 m 1
 369 -111 l 1
 366 -121 365 -123 355 -145 c 2
 329 -209 l 1
 285 -236 255 -246 215 -246 c 0
 120 -246 57 -193 57 -112 c 0
 57 -60 79 -17 131 33 c 2
 235 133 l 2
 273 170 285 188 285 210 c 0
 285 227 278 240 258 261 c 1
 283 267 l 1
 309 250 321 230 321 204 c 0
 321 169 305 137 266 93 c 2
 196 14 l 2
 157 -30 139 -67 139 -102 c 0
 139 -152 180 -187 238 -187 c 0
 279 -187 301 -174 327 -135 c 2
 347 -105 l 1
325 467 m 0
 351 467 370 446 370 419 c 0
 370 381 343 350 309 350 c 0
 282 350 265 368 265 397 c 0
 265 436 292 467 325 467 c 0
EndSplineSet
Validated: 1
EndChar

StartChar: grave
Encoding: 64 96 123
Width: 333
Flags: W
LayerCount: 2
Fore
SplineSet
276 518 m 1
 114 619 l 2
 92 633 86 641 86 656 c 0
 86 673 104 687 124 687 c 0
 134 687 145 681 157 669 c 2
 310 518 l 1
 276 518 l 1
EndSplineSet
Validated: 1
EndChar

StartChar: acute
Encoding: 115 180 124
Width: 333
Flags: W
LayerCount: 2
Fore
SplineSet
122 518 m 1
 275 669 l 2
 287 681 298 687 308 687 c 0
 328 687 346 673 346 656 c 0
 346 641 339 633 318 619 c 2
 156 518 l 1
 122 518 l 1
EndSplineSet
Validated: 1
EndChar

StartChar: circumflex
Encoding: 330 710 125
Width: 333
Flags: W
LayerCount: 2
Fore
SplineSet
262 679 m 1
 350 510 l 1
 314 510 l 1
 232 614 l 1
 95 510 l 1
 56 510 l 1
 213 679 l 1
 262 679 l 1
EndSplineSet
Validated: 1
EndChar

StartChar: tilde
Encoding: 337 732 126
Width: 333
Flags: MW
HStem: 535 60<305.5 317.5> 579 59<136.5 149.5>
LayerCount: 2
Fore
SplineSet
92 535 m 1x80
 63 535 l 1x80
 83 608 112 638 161 638 c 0x40
 180 638 200 634 224 624 c 2
 284 600 l 2
 292 597 301 595 310 595 c 0x80
 332 595 342 604 362 638 c 1
 390 638 l 1x40
 378 573 342 535 293 535 c 0x80
 280 535 252 542 229 551 c 2
 191 566 l 2
 187 567 185 568 182 570 c 0
 163 577 155 579 144 579 c 0x40
 119 579 107 569 92 535 c 1x80
EndSplineSet
Validated: 1
EndChar

StartChar: macron
Encoding: 110 175 127
Width: 333
Flags: MW
HStem: 538 51<85 375 74 386>
LayerCount: 2
Fore
SplineSet
386 589 m 1
 375 538 l 1
 74 538 l 1
 85 589 l 1
 386 589 l 1
EndSplineSet
Validated: 1
EndChar

StartChar: breve
Encoding: 333 728 128
Width: 333
Flags: MW
HStem: 518 59<197 249>
LayerCount: 2
Fore
SplineSet
92 677 m 1
 121 677 l 1
 127 611 164 577 230 577 c 0
 291 577 326 603 364 677 c 1
 393 677 l 1
 379 625 369 603 348 577 c 0
 316 537 275 518 223 518 c 0
 171 518 133 538 112 576 c 0
 97 602 92 626 92 677 c 1
EndSplineSet
Validated: 1
EndChar

StartChar: dotaccent
Encoding: 334 729 129
Width: 333
Flags: MW
HStem: 537 108<215 243.5>
VStem: 175 108<577.5 606 577.5 606.5>
LayerCount: 2
Fore
SplineSet
230 645 m 0
 258 645 283 620 283 592 c 0
 283 563 258 537 229 537 c 0
 200 537 175 562 175 592 c 0
 175 621 200 645 230 645 c 0
EndSplineSet
Validated: 1
EndChar

StartChar: dieresis
Encoding: 103 168 130
Width: 333
Flags: MW
HStem: 537 100<115 141 315 341>
VStem: 78 100<575 600.5 575 601> 278 100<575 600.5 575 601>
LayerCount: 2
Fore
SplineSet
128 637 m 0
 154 637 178 613 178 588 c 0
 178 562 154 537 128 537 c 0
 102 537 78 562 78 588 c 0
 78 614 102 637 128 637 c 0
328 637 m 0
 354 637 378 613 378 588 c 0
 378 562 354 537 328 537 c 0
 302 537 278 562 278 588 c 0
 278 614 302 637 328 637 c 0
EndSplineSet
Validated: 1
EndChar

StartChar: ring
Encoding: 335 730 131
Width: 333
Flags: MW
HStem: 518 36<240.5 277.5 240.5 287> 682 36<241 278>
VStem: 159 38<598.5 637.5 598.5 646> 321 38<598.5 637>
LayerCount: 2
Fore
SplineSet
260 718 m 0
 315 718 359 673 359 618 c 0
 359 562 315 518 259 518 c 0
 203 518 159 562 159 618 c 0
 159 674 203 718 260 718 c 0
260 682 m 0
 222 682 197 657 197 618 c 0
 197 579 222 554 259 554 c 0
 296 554 321 579 321 618 c 0
 321 656 296 682 260 682 c 0
EndSplineSet
Validated: 1
EndChar

StartChar: cedilla
Encoding: 119 184 132
Width: 333
Flags: MW
HStem: -216 35<67 92.5 67 116.5> 0 20
VStem: 130 72<-149.5 -125>
LayerCount: 2
Fore
SplineSet
50 -104 m 1
 41 -96 l 1
 102 0 l 1
 140 0 l 1
 96 -64 l 1
 105 -63 112 -62 119 -62 c 0
 171 -62 202 -88 202 -132 c 0
 202 -183 154 -216 79 -216 c 0
 52 -216 31 -211 -9 -196 c 1
 8 -167 l 1
 42 -178 57 -181 77 -181 c 0
 108 -181 130 -163 130 -136 c 0
 130 -114 111 -98 83 -98 c 0
 76 -98 68 -99 57 -102 c 2
 50 -104 l 1
EndSplineSet
Validated: 1
EndChar

StartChar: hungarumlaut
Encoding: 338 733 133
Width: 333
Flags: W
LayerCount: 2
Fore
SplineSet
46 518 m 1
 155 704 l 2
 166 722 177 730 192 730 c 0
 214 730 228 718 228 700 c 0
 228 689 226 685 209 666 c 2
 79 518 l 1
 46 518 l 1
203 518 m 1
 312 704 l 2
 323 722 334 730 349 730 c 0
 371 730 385 718 385 700 c 0
 385 689 383 685 366 666 c 2
 236 518 l 1
 203 518 l 1
EndSplineSet
Validated: 1
EndChar

StartChar: ogonek
Encoding: 336 731 134
Width: 333
Flags: MW
HStem: -207 56<75.5 140.5>
VStem: 38 56<-162 -93.5>
LayerCount: 2
Fore
SplineSet
182 -117 m 1
 196 -121 l 1
 163 -181 132 -207 92 -207 c 0
 59 -207 38 -182 38 -142 c 0
 38 -106 52 -80 98 -30 c 2
 109 -18 l 1
 143 -18 l 1
 141 -21 l 2
 138 -23 136 -26 134 -29 c 0
 103 -65 94 -82 94 -105 c 0
 94 -132 110 -151 132 -151 c 0
 149 -151 162 -142 182 -117 c 1
EndSplineSet
Validated: 1
EndChar

StartChar: caron
Encoding: 331 711 135
Width: 333
Flags: W
LayerCount: 2
Fore
SplineSet
246 510 m 1
 200 510 l 1
 104 679 l 1
 141 679 l 1
 231 574 l 1
 373 679 l 1
 409 679 l 1
 246 510 l 1
EndSplineSet
Validated: 1
EndChar

StartChar: emdash
Encoding: 568 8212 136
Width: 1000
Flags: MW
HStem: 228 50<0 1000 -10 1010>
LayerCount: 2
Fore
SplineSet
1000 228 m 1
 -10 228 l 1
 0 278 l 1
 1010 278 l 1
 1000 228 l 1
EndSplineSet
Validated: 1
EndChar

StartChar: AE
Encoding: 133 198 137
Width: 941
Flags: MW
HStem: -3 20 0 20 279 40<290 486 264 492> 650 42
LayerCount: 2
Fore
SplineSet
486 279 m 1x60
 264 279 l 1
 243 245 241 242 232 227 c 2
 156 98 l 2
 155 97 154 95 152 91 c 0
 140 72 136 63 136 54 c 0
 136 36 156 27 197 27 c 2
 221 27 l 1
 221 -3 l 1
 145 0 l 1
 114 0 l 2
 101 0 77 -1 44 -2 c 2
 -4 -3 l 1
 -4 27 l 1
 30 32 l 2
 41 33 54 44 66 62 c 2
 434 607 l 2
 442 618 447 633 447 644 c 0
 447 653 429 662 410 662 c 2
 344 662 l 1
 344 692 l 1
 404 691 l 2
 478 690 541 689 584 689 c 0
 619 689 652 689 675 690 c 2
 795 692 l 1
 833 692 l 2
 855 692 882 691 902 689 c 1
 891 651 884 600 881 537 c 1
 857 537 l 1
 849 626 l 2
 848 640 810 650 756 650 c 0
 732 650 721 650 632 646 c 1
 628 639 626 630 623 614 c 2
 581 376 l 1
 598 376 l 2
 680 376 740 378 817 382 c 1
 821 375 l 1
 802 330 l 1
 776 331 l 2
 733 333 701 334 670 334 c 2
 573 334 l 1
 530 81 l 2
 528 72 528 64 528 50 c 2
 528 46 l 1
 554 44 l 2
 592 40 617 39 640 39 c 0
 688 39 770 44 787 48 c 0
 809 53 818 65 828 101 c 2
 844 161 l 1
 871 161 l 1
 866 135 l 2
 857 86 852 57 850 36 c 2
 846 0 l 1x70
 813 -1 l 2
 780 -2 756 -3 742 -3 c 0x80
 728 -3 698 -3 650 -2 c 0
 589 0 561 0 534 0 c 0
 503 0 467 -1 425 -2 c 2
 384 -3 l 1
 389 23 l 1
 431 30 442 38 448 66 c 2
 486 279 l 1x60
290 319 m 1
 492 319 l 1
 546 655 l 1
 532 655 l 2
 521 654 513 647 495 620 c 2
 290 319 l 1
EndSplineSet
Validated: 1
EndChar

StartChar: ordfeminine
Encoding: 105 170 138
Width: 333
Flags: MW
HStem: 670 29<216 216.5>
VStem: 60 47<461 482 461 484>
LayerCount: 2
Fore
SplineSet
319 694 m 1
 260 471 l 2
 259 468 259 465 259 463 c 0
 259 453 264 446 271 446 c 0
 274 446 279 447 283 449 c 0
 284 450 294 457 313 471 c 1
 317 473 l 1
 321 461 l 1
 265 419 240 404 227 404 c 0
 217 404 211 412 211 426 c 0
 211 434 212 445 215 457 c 2
 231 535 l 1
 183 470 159 445 122 422 c 0
 104 409 91 404 82 404 c 0
 69 404 60 424 60 453 c 0
 60 515 96 623 125 650 c 0
 161 682 198 699 234 699 c 0
 254 699 264 697 291 688 c 1
 312 699 l 1
 319 694 l 1
141 613 m 2
 124 566 l 2
 115 539 107 496 107 468 c 0
 107 454 111 447 118 447 c 0
 140 447 197 500 221 543 c 0
 239 574 248 598 265 659 c 1
 236 668 224 670 209 670 c 0
 170 670 158 660 141 613 c 2
EndSplineSet
Validated: 1
EndChar

StartChar: Lslash
Encoding: 256 321 139
Width: 556
Flags: MW
HStem: -3 42 0 20 672 20<97 97 352 352>
LayerCount: 2
Fore
SplineSet
130 340 m 1x80
 167 559 l 2
 173 593 176 621 176 635 c 0
 176 653 165 661 141 662 c 2
 94 664 l 1
 97 692 l 1
 161 690 l 1
 238 689 l 2
 258 689 289 690 328 691 c 2
 352 692 l 1
 349 664 l 1
 307 661 l 2
 270 658 263 651 256 613 c 2
 217 386 l 1
 360 463 l 1
 372 434 l 1
 210 348 l 1
 164 81 l 2
 162 72 162 64 162 50 c 2
 162 46 l 1
 224 40 253 39 304 39 c 0xa0
 373 39 435 44 448 49 c 0
 458 54 466 71 475 103 c 2
 492 165 l 1
 523 165 l 1
 510 103 499 25 500 0 c 1x40
 467 -1 l 2
 434 -2 409 -3 395 -3 c 2
 385 -3 l 1x80
 170 0 l 2x40
 150 0 88 -1 57 -2 c 2
 16 -3 l 1
 21 23 l 1
 65 30 77 37 81 55 c 2
 123 301 l 1
 -4 233 l 1
 -16 262 l 1
 130 340 l 1x80
EndSplineSet
Validated: 33
EndChar

StartChar: Oslash
Encoding: 151 216 140
Width: 778
Flags: MW
HStem: -18 42<322.5 399.5 322.5 448.5> 664 42<395 469.5>
VStem: 53 88<245 341 245 397.5> 660 88<348 447>
LayerCount: 2
Fore
SplineSet
762 695 m 1
 688 616 l 1
 733 560 748 514 748 432 c 0
 748 175 568 -18 329 -18 c 0
 246 -18 191 -1 134 43 c 1
 60 -39 l 1
 32 -15 l 1
 110 68 l 1
 68 128 53 183 53 273 c 0
 53 522 227 706 463 706 c 0
 544 706 599 688 661 643 c 1
 733 721 l 1
 762 695 l 1
624 567 m 1
 189 97 l 1
 235 45 284 24 361 24 c 0
 438 24 503 50 552 100 c 0
 621 171 660 283 660 413 c 0
 660 481 651 517 624 567 c 1
168 131 m 1
 602 600 l 1
 551 647 506 664 433 664 c 0
 357 664 296 640 250 593 c 0
 181 523 141 407 141 275 c 0
 141 215 148 177 168 131 c 1
EndSplineSet
Validated: 1
EndChar

StartChar: OE
Encoding: 273 338 141
Width: 1028
Flags: MW
HStem: -18 42<269 333.5> -3 20 0 20 650 39 664 42<396.5 485> 672 20<642 667>
VStem: 56 88<204.5 328.5>
LayerCount: 2
Fore
SplineSet
660 334 m 1x12
 617 81 l 2
 616 72 615 63 615 50 c 2
 615 46 l 1
 648 41 681 39 724 39 c 0
 775 39 857 44 874 48 c 0
 896 53 905 65 915 101 c 2
 931 161 l 1
 958 161 l 1
 953 135 l 2
 945 91 939 59 937 36 c 2
 933 0 l 1x22
 899 -1 l 2
 866 -2 842 -3 829 -3 c 0x42
 815 -3 784 -3 737 -2 c 0
 674 0 648 0 611 0 c 2
 596 0 l 1
 572 -1 l 1
 556 -2 l 2
 549 -3 542 -3 538 -3 c 0
 531 -3 526 0 526 4 c 0
 526 7 527 13 529 20 c 2x22
 544 90 l 1
 502 44 478 26 438 8 c 0
 399 -9 357 -18 310 -18 c 0
 148 -18 56 85 56 264 c 0
 56 393 104 516 186 599 c 0
 256 670 345 706 448 706 c 0x8a
 534 706 582 685 635 623 c 1
 642 672 l 2
 644 689 647 692 656 692 c 2x06
 667 692 l 1
 676 691 l 2
 702 689 706 689 729 689 c 0
 741 689 759 689 779 690 c 2
 868 691 l 2
 894 692 911 692 917 692 c 0
 942 692 968 691 989 689 c 1
 979 652 971 600 968 537 c 1
 944 537 l 1
 936 626 l 2
 935 641 894 650 829 650 c 0
 800 650 771 649 737 647 c 2
 716 646 l 1
 712 637 710 630 707 614 c 2
 668 376 l 1
 685 376 l 2
 767 376 826 378 904 382 c 1
 908 375 l 1
 889 330 l 1
 863 331 l 2
 819 333 788 334 757 334 c 2
 660 334 l 1x12
571 270 m 2x8a
 600 439 l 2
 603 458 605 478 605 496 c 0
 605 605 543 664 427 664 c 0
 358 664 298 640 255 595 c 0
 185 523 144 407 144 285 c 0
 144 124 213 24 325 24 c 0
 441 24 547 130 571 270 c 2x8a
EndSplineSet
Validated: 1
EndChar

StartChar: ordmasculine
Encoding: 121 186 142
Width: 333
Flags: MW
HStem: 404 23<155.5 189 155.5 196> 676 23<188 232>
VStem: 66 49<480 555.5> 273 49<579 625>
LayerCount: 2
Fore
SplineSet
235 699 m 0
 290 699 322 666 322 609 c 0
 322 497 243 404 149 404 c 0
 96 404 66 438 66 500 c 0
 66 611 141 699 235 699 c 0
213 676 m 0
 155 676 115 606 115 506 c 0
 115 454 136 427 175 427 c 0
 203 427 225 442 243 473 c 0
 261 504 273 557 273 601 c 0
 273 649 251 676 213 676 c 0
EndSplineSet
Validated: 1
EndChar

StartChar: ae
Encoding: 165 230 143
Width: 638
Flags: MW
HStem: -11 47<119.5 125 394 413> 228 24<216 244 244 282> 434 48<190 216> 440 42
VStem: 1 73<82 145.5> 549 74<378 404.5>
LayerCount: 2
Fore
SplineSet
579 113 m 1x9c
 586 91 l 1
 487 11 443 -11 383 -11 c 0
 320 -11 287 15 268 81 c 1
 198 13 154 -11 96 -11 c 0
 33 -11 1 24 1 92 c 0
 1 199 72 252 216 252 c 2
 284 252 l 1
 289 267 290 276 290 306 c 0
 290 390 252 434 180 434 c 0
 161 434 145 431 127 425 c 0
 121 420 118 416 116 411 c 2
 96 353 l 1
 78 358 l 1
 72 426 l 1
 81 431 83 433 97 442 c 0
 144 474 168 482 212 482 c 0xec
 283 482 320 457 351 388 c 1
 433 456 486 482 539 482 c 0
 589 482 623 450 623 403 c 0
 623 353 584 302 522 271 c 0
 477 248 418 234 349 230 c 1
 339 176 336 156 336 133 c 0
 336 73 368 36 420 36 c 0
 454 36 482 48 541 88 c 0
 549 94 552 96 559 100 c 2
 579 113 l 1x9c
282 228 m 1
 244 228 l 2
 128 228 74 188 74 104 c 0
 74 60 98 36 141 36 c 0
 198 36 251 90 272 170 c 0
 277 187 279 204 282 228 c 1
353 255 m 1x1c
 426 262 463 274 500 301 c 0
 532 324 549 354 549 388 c 0
 549 421 529 440 494 440 c 0
 454 440 420 417 391 373 c 0
 369 337 359 309 353 255 c 1x1c
EndSplineSet
Validated: 1
EndChar

StartChar: dotlessi
Encoding: 240 305 144
Width: 278
Flags: MW
HStem: -9 20 462 20<185 204.5>
LayerCount: 2
Fore
SplineSet
34 388 m 1
 62 408 l 2
 137 462 174 482 196 482 c 0
 213 482 221 473 221 456 c 0
 221 447 219 437 215 420 c 2
 138 116 l 2
 132 94 131 86 131 76 c 0
 131 65 137 56 144 56 c 0
 154 56 175 66 205 86 c 2
 231 103 l 1
 241 85 l 1
 146 14 106 -9 81 -9 c 0
 62 -9 51 6 51 30 c 0
 51 50 55 75 64 107 c 2
 130 347 l 2
 134 362 138 383 138 391 c 0
 138 403 131 412 121 412 c 0
 112 412 101 407 73 389 c 2
 41 368 l 1
 34 388 l 1
EndSplineSet
Validated: 1
EndChar

StartChar: lslash
Encoding: 257 322 145
Width: 278
Flags: MW
HStem: -9 20
LayerCount: 2
Fore
SplineSet
106 381 m 1
 155 622 l 2
 156 628 157 637 157 646 c 0
 157 663 148 670 123 670 c 2
 75 670 l 1
 79 691 l 1
 152 698 187 707 239 733 c 1
 251 722 l 1
 190 434 l 1
 290 496 l 1
 302 467 l 1
 181 392 l 1
 123 116 l 2
 122 113 122 111 120 104 c 0
 117 89 116 83 116 76 c 0
 116 65 122 56 129 56 c 0
 139 56 160 66 190 86 c 2
 216 103 l 1
 226 85 l 1
 129 13 92 -9 66 -9 c 0
 47 -9 36 6 36 31 c 0
 36 40 40 65 49 107 c 2
 97 339 l 1
 2 280 l 1
 -10 309 l 1
 106 381 l 1
EndSplineSet
Validated: 1
EndChar

StartChar: oslash
Encoding: 183 248 146
Width: 444
Flags: MW
HStem: -11 38<165 178> 444 38<221.5 263.5>
VStem: 17 76<150.5 197 150.5 242> 335 76<287 316>
LayerCount: 2
Fore
SplineSet
376 442 m 1
 436 510 l 1
 460 490 l 1
 394 415 l 1
 406 387 411 362 411 330 c 0
 411 244 376 141 326 80 c 0
 281 25 210 -11 146 -11 c 0
 105 -11 78 0 52 29 c 1
 6 -24 l 1
 -18 -4 l 1
 35 56 l 1
 22 84 17 109 17 149 c 0
 17 335 132 482 277 482 c 0
 321 482 349 471 376 442 c 1
333 346 m 1
 103 86 l 1
 120 44 145 27 185 27 c 0
 227 27 258 49 285 97 c 0
 314 146 335 239 335 312 c 0
 335 320 335 325 334 335 c 2
 333 346 l 1
95 124 m 1
 325 384 l 1
 308 426 284 444 243 444 c 0
 200 444 167 422 140 376 c 0
 112 326 93 239 93 155 c 0
 93 146 93 140 95 124 c 1
EndSplineSet
Validated: 1
EndChar

StartChar: oe
Encoding: 274 339 147
Width: 669
Flags: MW
HStem: -11 38<154.5 179> -11 47<429.5 448.5> 440 42 444 38<245 268.5>
VStem: 17 76<110 187.5 110 199.5> 580 74<378 404>
LayerCount: 2
Fore
SplineSet
613 111 m 1x6c
 619 88 l 1
 529 15 478 -11 419 -11 c 0x5c
 361 -11 323 18 310 71 c 1
 250 10 210 -11 148 -11 c 0
 60 -11 17 42 17 152 c 0
 17 247 48 334 103 396 c 0
 150 449 216 482 274 482 c 0x9c
 332 482 371 455 400 396 c 1
 489 462 529 482 574 482 c 0
 621 482 654 449 654 401 c 0
 654 355 629 317 578 284 c 0
 537 258 488 239 384 210 c 1
 378 174 375 149 375 127 c 0
 375 70 405 36 454 36 c 0
 493 36 535 54 591 95 c 2
 613 111 l 1x6c
238 444 m 0
 188 444 156 415 129 346 c 0
 105 285 93 222 93 153 c 0
 93 67 123 27 186 27 c 0x9c
 225 27 254 43 273 76 c 0
 307 134 332 239 332 326 c 0
 332 403 299 444 238 444 c 0
388 234 m 1x2c
 513 262 580 316 580 387 c 0
 580 421 564 440 535 440 c 0
 492 440 450 412 425 366 c 0
 409 337 401 307 388 234 c 1x2c
EndSplineSet
Validated: 1
EndChar

StartChar: germandbls
Encoding: 158 223 148
Width: 500
Flags: MW
HStem: -276 20 -16 44<285 307.5> 0 20 685 48<313.5 419.5>
VStem: 380 65<125 129> 426 62<604.5 622.5>
LayerCount: 2
Fore
SplineSet
111 383 m 1xb4
 30 383 l 1
 34 405 l 1
 90 428 l 2
 115 439 122 442 123 449 c 2
 138 530 l 2
 149 589 165 613 220 655 c 0
 279 700 353 733 394 733 c 0
 445 733 488 687 488 632 c 0x54
 488 577 467 534 402 456 c 0
 366 413 357 396 357 372 c 0
 357 349 365 330 396 275 c 2
 414 244 l 2
 437 202 445 183 445 165 c 0
 445 85 346 -16 269 -16 c 0
 244 -16 220 -10 191 5 c 1
 199 28 210 87 212 112 c 1
 232 112 l 1
 232 56 l 1
 249 38 273 28 297 28 c 0
 345 28 380 66 380 119 c 0x58
 380 139 376 155 366 174 c 2
 312 279 l 2
 302 299 295 320 295 332 c 0
 295 349 304 367 327 400 c 0
 331 405 331 405 335 411 c 2
 344 424 l 2
 346 427 348 430 353 437 c 0
 409 515 426 553 426 597 c 0
 426 648 390 685 340 685 c 0
 287 685 245 650 227 592 c 0
 226 588 210 517 181 378 c 2
 109 39 l 2
 82 -86 51 -157 -3 -214 c 0
 -41 -254 -83 -276 -124 -276 c 0
 -138 -276 -149 -275 -160 -272 c 1
 -151 -248 -145 -224 -138 -189 c 1
 -127 -187 l 1
 -109 -209 -93 -217 -74 -217 c 0
 -43 -217 -11 -190 5 -148 c 0
 16 -121 35 -48 43 0 c 2
 111 383 l 1xb4
EndSplineSet
Validated: 1
EndChar

StartChar: onesuperior
Encoding: 120 185 149
Width: 300
Flags: MW
HStem: 679 20<263 269>
LayerCount: 2
Fore
SplineSet
273 693 m 1
 269 679 l 2
 265 662 262 651 259 633 c 2
 207 353 l 2
 206 347 205 339 205 333 c 0
 205 313 213 307 243 305 c 2
 285 302 l 1
 281 278 l 1
 229 279 l 2
 216 280 185 280 171 280 c 0
 157 280 126 280 113 279 c 2
 61 278 l 1
 66 302 l 1
 115 308 l 2
 135 311 140 319 146 349 c 2
 200 649 l 1
 175 639 161 633 139 624 c 2
 85 600 l 1
 80 603 l 1
 87 646 l 1
 139 657 159 663 194 675 c 2
 263 699 l 1
 273 693 l 1
EndSplineSet
Validated: 1
EndChar

StartChar: logicalnot
Encoding: 107 172 150
Width: 606
Flags: MW
HStem: 356 52<48 515 48 567>
VStem: 515 52<122 356 356 356>
LayerCount: 2
Fore
SplineSet
48 408 m 1
 567 408 l 1
 567 122 l 1
 515 122 l 1
 515 356 l 1
 48 356 l 1
 48 408 l 1
EndSplineSet
Validated: 1
EndChar

StartChar: mu
Encoding: 116 181 151
Width: 556
Flags: MW
HStem: -11 20 -9 20 462 20<182.5 200 485 485>
LayerCount: 2
Fore
SplineSet
32 388 m 1x80
 60 408 l 2
 135 462 172 482 193 482 c 0
 207 482 215 471 215 450 c 0
 215 438 213 424 210 408 c 2
 153 137 l 2
 147 110 146 100 146 84 c 0
 146 68 150 59 159 59 c 0
 200 59 276 129 336 221 c 0
 367 268 391 335 407 414 c 2
 417 465 l 1
 485 482 l 1
 492 473 l 1
 462 357 433 235 408 116 c 1
 407 110 l 2
 404 96 402 84 402 76 c 0
 402 66 407 59 415 59 c 0
 427 59 451 70 476 86 c 2
 502 103 l 1
 512 85 l 1
 417 14 377 -9 352 -9 c 0x60
 333 -9 322 6 322 31 c 0
 322 48 325 66 334 102 c 2
 335 107 l 1
 370 239 l 1
 340 189 320 162 280 118 c 0
 213 41 146 -11 117 -11 c 0
 113 -11 107 -10 99 -8 c 2
 94 -7 l 1
 87 -182 l 2
 86 -195 77 -205 54 -214 c 2
 24 -226 l 1
 15 -218 l 1
 134 374 l 2
 135 380 136 387 136 392 c 0
 136 403 129 412 119 412 c 0
 110 412 101 407 71 389 c 2
 39 368 l 1
 32 388 l 1x80
EndSplineSet
Validated: 1
EndChar

StartChar: trademark
Encoding: 614 8482 152
Width: 1000
Flags: MW
HStem: 665 24<151 192 151 151 248 248 248 289>
VStem: 192 56<340 665 331 665> 505 25<338 634 634 634> 843 56<351 651>
LayerCount: 2
Fore
SplineSet
792 305 m 1
 803 305 l 2
 837 306 843 313 843 351 c 2
 843 654 l 1
 691 285 l 1
 683 285 l 1
 530 651 l 1
 530 338 l 2
 531 313 538 308 578 305 c 1
 578 285 l 1
 457 285 l 1
 457 305 l 1
 497 308 504 313 505 338 c 2
 505 634 l 2
 504 664 499 671 479 671 c 2
 465 671 l 1
 465 689 l 1
 574 689 l 1
 703 381 l 1
 835 689 l 1
 947 689 l 1
 947 671 l 1
 926 671 l 2
 906 670 899 665 899 651 c 2
 899 351 l 2
 899 313 905 306 939 305 c 2
 950 305 l 1
 950 285 l 1
 792 285 l 1
 792 305 l 1
129 305 m 1
 141 305 l 2
 184 305 192 311 192 340 c 2
 192 665 l 1
 151 665 l 2
 89 664 75 651 74 593 c 1
 51 593 l 1
 51 689 l 1
 389 689 l 1
 389 593 l 1
 366 593 l 1
 365 651 350 664 289 665 c 2
 248 665 l 1
 248 331 l 2
 250 320 252 315 259 311 c 0
 270 306 281 305 311 305 c 1
 311 285 l 1
 129 285 l 1
 129 305 l 1
EndSplineSet
Validated: 1
EndChar

StartChar: Eth
Encoding: 143 208 153
Width: 778
Flags: MW
HStem: -3 44<311.5 352.5> 0 20 346 32<25 136 19 142 222 403>
VStem: 649 92<356.5 480 348 497.5>
LayerCount: 2
Fore
SplineSet
142 378 m 1xb0
 173 559 l 2
 179 592 182 621 182 635 c 0
 182 653 171 661 147 662 c 2
 94 664 l 1
 97 692 l 1
 197 689 197 689 210 689 c 2
 220 689 l 1
 424 692 l 2
 515 693 607 673 650 642 c 0
 711 598 741 529 741 431 c 0
 741 265 645 113 489 34 c 0
 437 7 389 -3 316 -3 c 0xb0
 307 -3 291 -3 270 -2 c 0
 233 -1 201 -1 176 0 c 2
 144 0 l 1
 127 0 l 1
 121 0 l 1x50
 28 -3 l 1
 33 23 l 1
 41 25 l 2
 72 31 83 38 86 55 c 2
 136 346 l 1
 19 346 l 1
 25 378 l 1
 142 378 l 1xb0
268 650 m 1
 222 378 l 1
 409 378 l 1
 403 346 l 1
 216 346 l 1
 172 93 l 2
 169 75 168 67 168 56 c 1
 236 46 284 41 329 41 c 0
 417 41 489 69 543 124 c 0
 611 193 649 298 649 415 c 0
 649 580 566 655 384 655 c 0
 364 655 350 654 315 652 c 0
 292 651 284 651 268 650 c 1
EndSplineSet
Validated: 33
EndChar

StartChar: onehalf
Encoding: 124 189 154
Width: 750
Flags: MW
HStem: -2 20 0 41<560 592> 372 47<593.5 614> 679 20<233 239>
VStem: 657 64<300.5 332.5>
LayerCount: 2
Fore
SplineSet
186 0 m 1x78
 130 0 l 1
 581 699 l 1
 637 699 l 1
 186 0 l 1x78
243 693 m 1
 239 679 l 2
 235 662 232 651 229 633 c 2
 177 353 l 2
 176 347 175 339 175 333 c 0
 175 313 183 307 213 305 c 2
 255 302 l 1
 251 278 l 1
 199 279 l 2
 186 280 155 280 141 280 c 0
 127 280 96 280 83 279 c 2
 31 278 l 1
 36 302 l 1
 85 308 l 2
 105 311 110 319 116 349 c 2
 170 649 l 1
 145 639 131 633 109 624 c 2
 55 600 l 1
 50 603 l 1
 57 646 l 1
 109 657 129 663 164 675 c 2
 233 699 l 1
 243 693 l 1
486 321 m 1
 525 393 l 1
 553 412 577 419 610 419 c 0
 678 419 721 381 721 321 c 0
 721 280 700 236 663 199 c 2
 503 41 l 1
 639 41 l 2x68
 666 41 691 44 713 50 c 1
 717 39 l 1
 706 -2 l 1x88
 680 -1 l 2
 635 0 608 0 576 0 c 0x48
 544 0 515 0 470 -1 c 2
 444 -2 l 1x88
 444 19 l 1
 609 182 657 248 657 313 c 0
 657 352 635 372 593 372 c 0
 553 372 533 358 504 311 c 1
 486 321 l 1
EndSplineSet
Validated: 1
Ligature2: "'frac' Diagonal Fractions lookup 8 subtable" onesuperior fraction twosuperior
Ligature2: "'frac' Diagonal Fractions lookup 8 subtable" onesuperior slash twosuperior
Ligature2: "'frac' Diagonal Fractions lookup 8 subtable" one fraction two
Ligature2: "'frac' Diagonal Fractions lookup 8 subtable" one slash two
EndChar

StartChar: plusminus
Encoding: 112 177 155
Width: 606
Flags: MW
HStem: 0 56<51 555 51 555> 233 56<51 275 51 275 331 555>
VStem: 275 56<97 233 97 233 289 512>
LayerCount: 2
Fore
SplineSet
275 289 m 1
 275 512 l 1
 331 512 l 1
 331 289 l 1
 555 289 l 1
 555 233 l 1
 331 233 l 1
 331 97 l 1
 275 97 l 1
 275 233 l 1
 51 233 l 1
 51 289 l 1
 275 289 l 1
555 0 m 1
 51 0 l 1
 51 56 l 1
 555 56 l 1
 555 0 l 1
EndSplineSet
Validated: 1
EndChar

StartChar: Thorn
Encoding: 157 222 156
Width: 611
Flags: MW
HStem: -3 20 0 20 153 35<320 372 306.5 401.5> 508 36<321 450.5> 672 20<116 116 371 371>
VStem: 482 88<321 411>
LayerCount: 2
Fore
SplineSet
247 174 m 1xbc
 243 206 l 1
 272 193 292 188 321 188 c 0
 423 188 482 251 482 361 c 0
 482 461 433 508 331 508 c 0
 311 508 297 506 259 500 c 1
 251 466 246 443 244 432 c 2
 186 93 l 2
 183 73 182 68 182 58 c 0
 182 37 192 29 218 28 c 2
 283 25 l 1
 280 -3 l 1xb4
 227 -2 l 2
 187 -1 158 0 141 0 c 0x44
 123 0 92 -1 51 -2 c 2
 9 -3 l 1
 13 25 l 1
 54 28 l 2
 94 32 95 33 112 125 c 2
 186 559 l 2
 192 592 195 621 195 635 c 0
 195 653 184 661 160 662 c 2
 113 664 l 1
 116 692 l 1
 180 690 l 1
 257 689 l 2
 277 689 308 690 347 691 c 2
 371 692 l 1
 368 664 l 1
 326 661 l 2
 289 658 282 652 275 613 c 2
 262 542 l 1
 300 542 334 542 345 543 c 0
 367 544 387 544 394 544 c 0
 507 544 570 487 570 386 c 0
 570 256 466 153 337 153 c 0
 303 153 278 159 247 174 c 1xbc
EndSplineSet
Validated: 1
EndChar

StartChar: onequarter
Encoding: 123 188 157
Width: 750
Flags: MW
HStem: -2 20 0 20 113 37<447 447 447 575 636 670> 679 20<233 239>
LayerCount: 2
Fore
SplineSet
410 138 m 1xa0
 629 414 l 1
 674 423 l 1
 683 416 l 1
 636 150 l 1
 712 150 l 1
 715 142 l 1
 704 110 l 1
 691 112 683 113 670 113 c 2
 627 113 l 1
 620 85 l 2
 618 75 616 61 616 50 c 0
 616 34 623 26 637 25 c 2
 691 22 l 1
 687 -2 l 1xb0
 665 -1 l 2
 629 0 606 0 580 0 c 0x40
 554 0 532 0 494 -1 c 2
 472 -2 l 1
 475 22 l 1
 526 25 l 2
 547 26 555 35 562 62 c 2
 575 113 l 1
 410 113 l 1
 410 138 l 1xa0
447 150 m 1
 584 149 l 1
 632 386 l 1
 447 150 l 1
243 693 m 1
 239 679 l 2
 235 662 232 651 229 633 c 2
 177 353 l 2
 176 347 175 339 175 333 c 0
 175 313 183 307 213 305 c 2
 255 302 l 1
 251 278 l 1
 199 279 l 2
 186 280 155 280 141 280 c 0
 127 280 96 280 83 279 c 2
 31 278 l 1
 36 302 l 1
 85 308 l 2
 105 311 110 319 116 349 c 2
 170 649 l 1
 145 639 131 633 109 624 c 2
 55 600 l 1
 50 603 l 1
 57 646 l 1
 109 657 129 663 164 675 c 2
 233 699 l 1
 243 693 l 1
210 0 m 1x50
 154 0 l 1
 605 699 l 1
 661 699 l 1
 210 0 l 1x50
EndSplineSet
Validated: 1
Ligature2: "'frac' Diagonal Fractions lookup 9 subtable" onesuperior fraction foursuperior
Ligature2: "'frac' Diagonal Fractions lookup 9 subtable" onesuperior slash foursuperior
Ligature2: "'frac' Diagonal Fractions lookup 9 subtable" one fraction four
Ligature2: "'frac' Diagonal Fractions lookup 9 subtable" one slash four
EndChar

StartChar: divide
Encoding: 182 247 158
Width: 606
Flags: MW
HStem: 10 116<288.5 319> 233 56<51 555 51 555> 396 116<288.5 319>
VStem: 246 116<52.5 82.5 51.5 83 438.5 468.5>
CounterMasks: 1 e0
LayerCount: 2
Fore
SplineSet
51 233 m 1
 51 289 l 1
 555 289 l 1
 555 233 l 1
 51 233 l 1
304 512 m 0
 335 512 362 484 362 453 c 0
 362 422 335 396 303 396 c 0
 273 396 246 423 246 454 c 0
 246 484 273 512 304 512 c 0
304 126 m 0
 335 126 362 98 362 67 c 0
 362 36 335 10 303 10 c 0
 273 10 246 37 246 68 c 0
 246 98 273 126 304 126 c 0
EndSplineSet
Validated: 1
EndChar

StartChar: brokenbar
Encoding: 101 166 159
Width: 606
Flags: MW
HStem: 0 20
VStem: 275 56<0 293 0 293 440 733>
LayerCount: 2
Fore
SplineSet
275 0 m 1
 275 293 l 1
 331 293 l 1
 331 0 l 1
 275 0 l 1
275 733 m 1
 331 733 l 1
 331 440 l 1
 275 440 l 1
 275 733 l 1
EndSplineSet
Validated: 1
EndChar

StartChar: degree
Encoding: 111 176 160
Width: 400
Flags: MW
HStem: 389 40<209.5 270 209.5 281> 649 40<209 269.5>
VStem: 90 40<509 570 509 581> 350 40<508 568.5>
LayerCount: 2
Fore
SplineSet
240 689 m 0
 323 689 390 621 390 537 c 0
 390 456 322 389 240 389 c 0
 157 389 90 456 90 540 c 0
 90 622 157 689 240 689 c 0
239 649 m 0
 179 649 130 600 130 540 c 0
 130 478 179 429 240 429 c 0
 300 429 350 478 350 538 c 0
 350 599 300 649 239 649 c 0
EndSplineSet
Validated: 1
EndChar

StartChar: thorn
Encoding: 189 254 161
Width: 500
Flags: MW
HStem: -11 47<159 172.5> 0 20 424 58<281.5 392>
VStem: 361 72<333.5 379>
LayerCount: 2
Fore
SplineSet
41 -259 m 1x50
 -32 -276 l 1
 -39 -270 l 1
 -31 -233 l 2
 -19 -181 7 -52 18 8 c 2
 130 622 l 2
 131 630 132 637 132 646 c 0
 132 663 123 670 98 670 c 2
 50 670 l 1
 54 691 l 1
 127 698 161 707 214 733 c 1
 226 722 l 1
 132 288 l 1
 166 346 185 372 223 406 c 0
 277 455 331 482 374 482 c 0
 410 482 433 439 433 371 c 0
 433 296 399 186 358 125 c 0
 315 62 201 -11 144 -11 c 0xb0
 133 -11 118 -8 92 0 c 2
 83 3 l 1
 41 -259 l 1x50
111 165 m 2
 93 59 l 1
 119 43 143 36 175 36 c 0
 216 36 248 51 268 80 c 0
 321 156 361 275 361 356 c 0
 361 402 349 424 323 424 c 0
 240 424 133 293 111 165 c 2
EndSplineSet
Validated: 1
EndChar

StartChar: threequarters
Encoding: 125 190 162
Width: 750
Flags: MW
HStem: -2 20 0 20 113 37<447 447 447 575 636 670> 273 26<124 176> 491 32<158.5 180.5 140 192.5> 658 41<195 203>
VStem: 248 58<599 623.5> 249 62<385 440.5>
LayerCount: 2
Fore
SplineSet
35 299 m 1x7d
 53 386 l 1
 75 383 l 1
 73 374 72 367 72 358 c 0
 72 320 99 299 149 299 c 0
 203 299 249 353 249 417 c 0x7d
 249 464 219 491 166 491 c 0
 151 491 140 489 117 481 c 1
 113 494 l 1
 124 524 l 1
 131 524 138 524 140 523 c 2
 154 523 l 2
 207 523 248 560 248 610 c 0
 248 637 221 658 185 658 c 0
 159 658 139 647 121 624 c 2
 108 607 l 1
 93 617 l 1
 131 680 l 1
 165 695 183 699 207 699 c 0
 265 699 306 667 306 621 c 0x7e
 306 577 280 547 210 515 c 1
 283 500 311 474 311 421 c 0
 311 339 231 273 130 273 c 0
 91 273 66 280 35 299 c 1x7d
210 0 m 1
 154 0 l 1
 605 699 l 1
 661 699 l 1
 210 0 l 1
410 138 m 1
 629 414 l 1
 674 423 l 1
 683 416 l 1
 636 150 l 1
 712 150 l 1
 715 142 l 1
 704 110 l 1
 691 112 683 113 670 113 c 2
 627 113 l 1
 620 85 l 2
 618 76 616 62 616 52 c 0
 616 34 622 26 637 25 c 2
 691 22 l 1
 687 -2 l 1xa1
 665 -1 l 2
 629 0 606 0 580 0 c 0x41
 554 0 532 0 494 -1 c 2
 472 -2 l 1x81
 475 22 l 1
 526 25 l 2
 547 26 555 35 562 62 c 2
 575 113 l 1
 410 113 l 1
 410 138 l 1
447 150 m 1
 584 149 l 1
 632 386 l 1
 447 150 l 1
EndSplineSet
Validated: 1
Ligature2: "'frac' Diagonal Fractions lookup 11 subtable" threesuperior fraction foursuperior
Ligature2: "'frac' Diagonal Fractions lookup 11 subtable" threesuperior slash foursuperior
Ligature2: "'frac' Diagonal Fractions lookup 11 subtable" three fraction four
Ligature2: "'frac' Diagonal Fractions lookup 11 subtable" three slash four
EndChar

StartChar: twosuperior
Encoding: 113 178 163
Width: 300
Flags: MW
HStem: 280 41<135.5 154.5> 652 47<162.5 183>
VStem: 226 64<581 613>
LayerCount: 2
Fore
SplineSet
55 601 m 1
 94 673 l 1
 122 692 146 699 179 699 c 0
 247 699 290 662 290 602 c 0
 290 560 269 516 232 479 c 2
 72 321 l 1
 208 321 l 2
 235 321 260 324 282 330 c 1
 286 319 l 1
 275 278 l 1
 213 279 l 2
 192 280 164 280 145 280 c 0
 126 280 96 280 75 279 c 2
 13 278 l 1
 13 299 l 1
 178 462 226 528 226 594 c 0
 226 632 204 652 162 652 c 0
 122 652 102 638 73 591 c 1
 55 601 l 1
EndSplineSet
Validated: 1
EndChar

StartChar: registered
Encoding: 109 174 164
Width: 747
Flags: MW
HStem: -18 44<285.5 460.5 285.5 473> 662 44<287 462.5>
VStem: 11 44<255.5 432 255.5 443.5> 254 55<204 211 211 340 360 506> 460 56<426.5 477.5> 692 44<256.5 430.5>
LayerCount: 2
Fore
SplineSet
205 554 m 1
 361 554 l 2
 468 554 516 524 516 456 c 0
 516 397 479 363 401 350 c 1
 441 343 465 315 497 234 c 0
 519 183 530 173 563 173 c 1
 563 157 l 1
 510 157 l 2
 471 160 458 175 428 255 c 0
 401 326 389 339 350 340 c 2
 309 340 l 1
 309 211 l 2
 309 181 313 176 337 174 c 2
 358 173 l 1
 358 157 l 1
 206 157 l 1
 206 173 l 1
 222 173 l 2
 249 173 253 178 254 204 c 2
 254 507 l 2
 253 529 247 535 222 536 c 2
 205 537 l 1
 205 554 l 1
309 360 m 1
 336 360 l 2
 422 360 460 388 460 451 c 0
 460 504 426 535 366 535 c 2
 337 535 l 2
 316 534 310 528 309 506 c 2
 309 360 l 1
377 706 m 0
 573 706 736 542 736 345 c 0
 736 145 573 -18 373 -18 c 0
 174 -18 11 144 11 342 c 0
 11 545 173 706 377 706 c 0
377 662 m 0
 197 662 55 521 55 343 c 0
 55 168 198 26 373 26 c 0
 548 26 692 169 692 344 c 0
 692 517 548 662 377 662 c 0
EndSplineSet
Validated: 1
EndChar

StartChar: minus
Encoding: 659 8722 165
Width: 606
Flags: MW
HStem: 253 59<66 534 66 534>
LayerCount: 2
Fore
SplineSet
66 312 m 1
 534 312 l 1
 534 253 l 1
 66 253 l 1
 66 312 l 1
EndSplineSet
Validated: 1
EndChar

StartChar: eth
Encoding: 175 240 166
Width: 444
Flags: MW
HStem: -11 38<154.5 176> 444 38<239.5 276>
VStem: 17 76<115 199 115 200.5> 336 71<295.5 366.5>
LayerCount: 2
Fore
SplineSet
156 545 m 1
 285 610 l 1
 254 652 221 676 180 688 c 1
 200 733 l 1
 263 700 297 673 331 630 c 1
 466 696 l 1
 478 667 l 1
 348 604 l 1
 387 520 407 434 407 352 c 0
 407 239 365 125 295 52 c 0
 257 12 203 -11 149 -11 c 0
 63 -11 17 44 17 149 c 0
 17 252 55 352 120 419 c 0
 159 459 212 482 267 482 c 0
 293 482 308 478 336 462 c 1
 335 502 324 542 303 582 c 1
 168 516 l 1
 156 545 l 1
245 444 m 0
 200 444 167 423 140 376 c 0
 112 327 93 239 93 159 c 0
 93 71 124 27 185 27 c 0
 227 27 258 49 286 97 c 0
 315 149 336 243 336 326 c 0
 336 407 307 444 245 444 c 0
EndSplineSet
Validated: 1
EndChar

StartChar: multiply
Encoding: 150 215 167
Width: 606
Flags: MW
HStem: 454 20<124 124 482 482>
LayerCount: 2
Fore
SplineSet
263 255 m 1
 83 435 l 1
 124 474 l 1
 303 295 l 1
 482 474 l 1
 523 435 l 1
 342 255 l 1
 523 75 l 1
 482 36 l 1
 303 215 l 1
 124 36 l 1
 83 75 l 1
 263 255 l 1
EndSplineSet
Validated: 1
EndChar

StartChar: threesuperior
Encoding: 114 179 168
Width: 300
Flags: MW
HStem: 273 26<117 169> 491 32<151.5 173.5 133 185.5> 658 41<188 196>
VStem: 241 58<599 623.5> 242 62<385 440.5>
LayerCount: 2
Fore
SplineSet
28 299 m 1xe8
 46 386 l 1
 68 383 l 1
 66 374 65 367 65 358 c 0
 65 320 92 299 142 299 c 0
 196 299 242 353 242 417 c 0xe8
 242 464 212 491 159 491 c 0
 144 491 133 489 110 481 c 1
 106 494 l 1
 117 524 l 1
 124 524 131 524 133 523 c 2
 147 523 l 2
 200 523 241 560 241 610 c 0
 241 637 214 658 178 658 c 0
 152 658 132 647 114 624 c 2
 101 607 l 1
 86 617 l 1
 124 680 l 1
 158 695 176 699 200 699 c 0
 258 699 299 667 299 621 c 0xf0
 299 577 273 547 203 515 c 1
 276 500 304 474 304 421 c 0
 304 339 224 273 123 273 c 0
 84 273 59 280 28 299 c 1xe8
EndSplineSet
Validated: 1
EndChar

StartChar: copyright
Encoding: 104 169 169
Width: 747
Flags: MW
HStem: -18 44<285.5 460.5 285.5 473> 135 31<351.5 398.5> 522 26<348.5 406.5 322 427> 662 44<287 462.5>
VStem: 11 44<255.5 432 255.5 443.5> 178 68<297 401.5 297 402.5> 692 44<256.5 430.5>
LayerCount: 2
Fore
SplineSet
527 522 m 1
 527 415 l 1
 501 415 l 1
 496 489 462 522 392 522 c 0
 305 522 246 453 246 350 c 0
 246 244 309 166 394 166 c 0
 449 166 488 190 516 243 c 1
 537 234 l 1
 526 211 520 201 507 188 c 0
 474 154 425 135 372 135 c 0
 258 135 178 220 178 341 c 0
 178 464 261 548 383 548 c 0
 430 548 466 542 527 522 c 1
377 706 m 0
 573 706 736 542 736 345 c 0
 736 145 573 -18 373 -18 c 0
 174 -18 11 144 11 342 c 0
 11 545 173 706 377 706 c 0
377 662 m 0
 197 662 55 521 55 343 c 0
 55 168 198 26 373 26 c 0
 548 26 692 169 692 344 c 0
 692 517 548 662 377 662 c 0
EndSplineSet
Validated: 1
EndChar

StartChar: Aacute
Encoding: 128 193 170
Width: 722
Flags: MW
HStem: -3 20 0 20 277 36<270 486 270 491 245 486>
LayerCount: 2
Fore
SplineSet
462 705 m 1x80
 508 705 l 1
 595 80 l 2
 603 35 604 35 651 28 c 2
 677 25 l 1
 677 -3 l 1xa0
 606 -1 578 0 555 0 c 0x40
 532 0 505 -1 433 -3 c 1
 433 25 l 1
 477 28 l 2
 505 30 520 39 520 55 c 0
 520 60 519 66 518 77 c 0
 517 84 517 84 516 89 c 2
 491 277 l 1
 245 277 l 1
 143 102 l 2
 123 68 117 55 117 47 c 0
 117 38 131 29 148 28 c 2
 200 25 l 1
 200 -3 l 1xa0
 129 0 116 0 93 0 c 0x40
 72 0 48 -1 -19 -3 c 1
 -19 27 l 1
 1 32 l 2
 35 40 53 56 89 112 c 2
 462 705 l 1x80
449 601 m 1
 270 313 l 1
 486 313 l 1
 449 601 l 1
393 728 m 1
 546 879 l 2
 559 891 569 897 579 897 c 0
 599 897 617 883 617 866 c 0
 617 851 610 842 589 829 c 2
 427 728 l 1
 393 728 l 1
EndSplineSet
Validated: 1
EndChar

StartChar: Acircumflex
Encoding: 129 194 171
Width: 722
Flags: MW
HStem: -3 20 0 20 277 36<270 486 270 491 245 486>
LayerCount: 2
Fore
SplineSet
462 705 m 1x80
 508 705 l 1
 595 80 l 2
 603 35 604 35 651 28 c 2
 677 25 l 1
 677 -3 l 1xa0
 606 -1 578 0 555 0 c 0x40
 532 0 505 -1 433 -3 c 1
 433 25 l 1
 477 28 l 2
 505 30 520 39 520 55 c 0
 520 60 519 66 518 77 c 0
 517 84 517 84 516 89 c 2
 491 277 l 1
 245 277 l 1
 143 102 l 2
 123 68 117 55 117 47 c 0
 117 38 131 29 148 28 c 2
 200 25 l 1
 200 -3 l 1xa0
 129 0 116 0 93 0 c 0x40
 72 0 48 -1 -19 -3 c 1
 -19 27 l 1
 1 32 l 2
 35 40 53 56 89 112 c 2
 462 705 l 1x80
449 601 m 1
 270 313 l 1
 486 313 l 1
 449 601 l 1
542 889 m 1
 630 720 l 1
 594 720 l 1
 512 824 l 1
 375 720 l 1
 336 720 l 1
 493 889 l 1
 542 889 l 1
EndSplineSet
Validated: 1
EndChar

StartChar: Adieresis
Encoding: 131 196 172
Width: 722
Flags: MW
HStem: -3 20 0 20 277 36<270 486 270 491 245 486> 747 100<370 396 570 596>
VStem: 333 100<785 811> 533 100<785 811>
LayerCount: 2
Fore
SplineSet
462 705 m 1x8c
 508 705 l 1
 595 80 l 2
 603 35 604 35 651 28 c 2
 677 25 l 1
 677 -3 l 1xbc
 606 -1 578 0 555 0 c 0x4c
 532 0 505 -1 433 -3 c 1
 433 25 l 1
 477 28 l 2
 505 30 520 39 520 55 c 0
 520 60 519 66 518 77 c 0
 517 84 517 84 516 89 c 2
 491 277 l 1
 245 277 l 1
 143 102 l 2
 123 68 117 55 117 47 c 0
 117 38 131 29 148 28 c 2
 200 25 l 1
 200 -3 l 1xac
 129 0 116 0 93 0 c 0x4c
 72 0 48 -1 -19 -3 c 1
 -19 27 l 1
 1 32 l 2
 35 40 53 56 89 112 c 2
 462 705 l 1x8c
449 601 m 1
 270 313 l 1
 486 313 l 1
 449 601 l 1
383 847 m 0
 409 847 433 824 433 798 c 0
 433 772 409 747 383 747 c 0
 357 747 333 772 333 798 c 0
 333 824 357 847 383 847 c 0
583 847 m 0
 609 847 633 824 633 798 c 0
 633 772 609 747 583 747 c 0
 557 747 533 772 533 798 c 0
 533 824 556 847 583 847 c 0
EndSplineSet
Validated: 1
EndChar

StartChar: Agrave
Encoding: 127 192 173
Width: 722
Flags: MW
HStem: -3 20 0 20 277 36<270 486 270 491 245 486>
LayerCount: 2
Fore
SplineSet
462 705 m 1x80
 508 705 l 1
 595 80 l 2
 603 35 604 35 651 28 c 2
 677 25 l 1
 677 -3 l 1xa0
 606 -1 578 0 555 0 c 0x40
 532 0 505 -1 433 -3 c 1
 433 25 l 1
 477 28 l 2
 505 30 520 39 520 55 c 0
 520 60 519 66 518 77 c 0
 517 84 517 84 516 89 c 2
 491 277 l 1
 245 277 l 1
 143 102 l 2
 123 68 117 55 117 47 c 0
 117 38 131 29 148 28 c 2
 200 25 l 1
 200 -3 l 1xa0
 129 0 116 0 93 0 c 0x40
 72 0 48 -1 -19 -3 c 1
 -19 27 l 1
 1 32 l 2
 35 40 53 56 89 112 c 2
 462 705 l 1x80
449 601 m 1
 270 313 l 1
 486 313 l 1
 449 601 l 1
541 728 m 1
 379 829 l 2
 358 842 351 851 351 866 c 0
 351 883 369 897 389 897 c 0
 399 897 410 891 422 879 c 2
 575 728 l 1
 541 728 l 1
EndSplineSet
Validated: 1
EndChar

StartChar: Aring
Encoding: 132 197 174
Width: 722
Flags: MW
HStem: -3 20 0 20 277 36<270 486 270 491 245 486> 737 36<475.5 512.5 475.5 522> 901 36<475.5 513>
VStem: 394 38<817.5 856.5 817.5 865> 556 38<817.5 856>
LayerCount: 2
Fore
SplineSet
462 705 m 1x86
 508 705 l 1
 595 80 l 2
 603 35 604 35 651 28 c 2
 677 25 l 1
 677 -3 l 1xbe
 606 -1 578 0 555 0 c 0x46
 532 0 505 -1 433 -3 c 1
 433 25 l 1
 477 28 l 2
 505 30 520 39 520 55 c 0
 520 60 519 66 518 77 c 0
 517 84 517 84 516 89 c 2
 491 277 l 1
 245 277 l 1
 143 102 l 2
 123 68 117 55 117 47 c 0
 117 38 131 29 148 28 c 2
 200 25 l 1
 200 -3 l 1xa6
 129 0 116 0 93 0 c 0x46
 72 0 48 -1 -19 -3 c 1
 -19 27 l 1
 1 32 l 2
 35 40 53 56 89 112 c 2
 462 705 l 1x86
449 601 m 1
 270 313 l 1
 486 313 l 1
 449 601 l 1
495 937 m 0
 550 937 594 892 594 837 c 0
 594 781 550 737 494 737 c 0
 438 737 394 781 394 837 c 0
 394 893 438 937 495 937 c 0
495 901 m 0
 456 901 432 876 432 837 c 0
 432 798 457 773 494 773 c 0
 531 773 556 798 556 837 c 0
 556 875 531 901 495 901 c 0
EndSplineSet
Validated: 1
EndChar

StartChar: Atilde
Encoding: 130 195 175
Width: 722
Flags: MW
HStem: -3 20 0 20 277 36<270 486 270 491 245 486> 763 60<566.5 578.5> 807 59<397 409.5>
LayerCount: 2
Fore
SplineSet
462 705 m 1x80
 508 705 l 1
 595 80 l 2
 603 35 604 35 651 28 c 2
 677 25 l 1
 677 -3 l 1xb0
 606 -1 578 0 555 0 c 0x40
 532 0 505 -1 433 -3 c 1
 433 25 l 1
 477 28 l 2
 505 30 520 39 520 55 c 0
 520 60 519 66 518 77 c 0
 517 84 517 84 516 89 c 2
 491 277 l 1
 245 277 l 1
 143 102 l 2
 123 68 117 55 117 47 c 0
 117 38 131 29 148 28 c 2
 200 25 l 1
 200 -3 l 1xa0
 129 0 116 0 93 0 c 0x40
 72 0 48 -1 -19 -3 c 1
 -19 27 l 1
 1 32 l 2
 35 40 53 56 89 112 c 2
 462 705 l 1x80
449 601 m 1
 270 313 l 1
 486 313 l 1
 449 601 l 1
352 763 m 1
 323 763 l 1x10
 343 836 372 866 422 866 c 0x08
 440 866 461 861 484 852 c 2
 544 828 l 2
 552 825 562 823 571 823 c 0x10
 592 823 602 831 622 866 c 1
 650 866 l 1x08
 638 801 603 763 554 763 c 0x10
 540 763 512 770 489 779 c 2
 451 794 l 1
 449 795 l 2
 448 795 445 796 442 798 c 0
 425 805 415 807 404 807 c 0x08
 379 807 367 797 352 763 c 1
EndSplineSet
Validated: 1
EndChar

StartChar: Ccedilla
Encoding: 134 199 176
Width: 667
Flags: MW
HStem: -216 35<274 299.5 274 323.5> 653 53<415 454>
VStem: 45 88<220 360.5> 337 72<-149.5 -125>
LayerCount: 2
Fore
SplineSet
335 -18 m 1
 303 -64 l 1
 310 -63 319 -62 326 -62 c 0
 378 -62 409 -88 409 -132 c 0
 409 -183 361 -216 286 -216 c 0
 259 -216 239 -211 198 -196 c 1
 215 -167 l 1
 250 -178 264 -181 284 -181 c 0
 315 -181 337 -163 337 -136 c 0
 337 -114 318 -98 290 -98 c 0
 282 -98 274 -99 257 -104 c 1
 248 -96 l 1
 299 -16 l 1
 296 -15 l 1
 134 1 45 107 45 284 c 0
 45 437 105 555 222 634 c 0
 292 681 374 706 456 706 c 0
 518 706 574 694 651 665 c 1
 637 622 629 575 624 519 c 1
 597 519 l 1
 597 603 l 1
 542 639 490 653 418 653 c 0
 339 653 275 629 228 581 c 0
 167 519 133 421 133 309 c 0
 133 131 218 35 376 35 c 0
 454 35 506 52 600 110 c 1
 610 103 l 1
 600 67 l 1
 518 9 440 -17 343 -18 c 2
 338 -18 l 1
 335 -18 l 1
EndSplineSet
Validated: 1
EndChar

StartChar: Eacute
Encoding: 136 201 177
Width: 611
Flags: MW
HStem: -3 20 0 20 334 42<221 266 229 266 266 307 229 338> 650 42
LayerCount: 2
Fore
SplineSet
221 334 m 1x70
 178 81 l 2
 176 72 176 64 176 50 c 2
 176 46 l 1
 239 40 266 39 307 39 c 0
 364 39 434 43 455 48 c 0
 477 53 486 65 496 101 c 2
 512 161 l 1
 539 161 l 1
 534 135 l 2
 525 87 520 56 518 36 c 2
 514 0 l 1x60
 481 -1 l 2
 448 -2 423 -3 409 -3 c 2x80
 399 -3 l 1
 184 0 l 2
 164 0 102 -1 71 -2 c 2
 30 -3 l 1
 35 23 l 1
 79 30 91 37 95 55 c 2
 182 559 l 2
 187 591 191 621 191 635 c 0
 191 653 180 661 156 662 c 2
 102 664 l 1
 105 692 l 1
 150 691 l 2
 195 690 235 689 263 689 c 0
 287 689 323 689 343 690 c 2
 463 692 l 1
 501 692 l 2
 523 692 550 691 570 689 c 1
 560 652 552 600 549 537 c 1
 525 537 l 1
 517 626 l 2
 516 641 475 650 411 650 c 0
 387 650 360 649 327 648 c 2
 280 646 l 1
 276 638 274 630 271 614 c 2
 229 376 l 1
 266 376 l 2
 348 376 407 378 485 382 c 1
 489 375 l 1
 470 330 l 1
 444 331 l 2
 400 333 369 334 338 334 c 2
 221 334 l 1x70
274 728 m 1
 427 879 l 2
 440 891 450 897 460 897 c 0
 480 897 498 883 498 867 c 0
 498 851 491 842 470 829 c 2
 308 728 l 1
 274 728 l 1
EndSplineSet
Validated: 1
EndChar

StartChar: Ecircumflex
Encoding: 137 202 178
Width: 611
Flags: MW
HStem: -3 20 0 20 334 42<221 266 229 266 266 307 229 338> 650 42
LayerCount: 2
Fore
SplineSet
221 334 m 1x70
 178 81 l 2
 176 72 176 64 176 50 c 2
 176 46 l 1
 239 40 266 39 307 39 c 0
 364 39 434 43 455 48 c 0
 477 53 486 65 496 101 c 2
 512 161 l 1
 539 161 l 1
 534 135 l 2
 525 87 520 56 518 36 c 2
 514 0 l 1x60
 481 -1 l 2
 448 -2 423 -3 409 -3 c 2x80
 399 -3 l 1
 184 0 l 2
 164 0 102 -1 71 -2 c 2
 30 -3 l 1
 35 23 l 1
 79 30 91 37 95 55 c 2
 182 559 l 2
 187 591 191 621 191 635 c 0
 191 653 180 661 156 662 c 2
 102 664 l 1
 105 692 l 1
 150 691 l 2
 195 690 235 689 263 689 c 0
 287 689 323 689 343 690 c 2
 463 692 l 1
 501 692 l 2
 523 692 550 691 570 689 c 1
 560 652 552 600 549 537 c 1
 525 537 l 1
 517 626 l 2
 516 641 475 650 411 650 c 0
 387 650 360 649 327 648 c 2
 280 646 l 1
 276 638 274 630 271 614 c 2
 229 376 l 1
 266 376 l 2
 348 376 407 378 485 382 c 1
 489 375 l 1
 470 330 l 1
 444 331 l 2
 400 333 369 334 338 334 c 2
 221 334 l 1x70
413 889 m 1
 501 720 l 1
 465 720 l 1
 383 824 l 1
 246 720 l 1
 207 720 l 1
 364 889 l 1
 413 889 l 1
EndSplineSet
Validated: 1
EndChar

StartChar: Edieresis
Encoding: 138 203 179
Width: 611
Flags: MW
HStem: -3 20 0 20 334 42<221 266 229 266 266 307 229 338> 650 42 747 100<237 263 437 463>
VStem: 200 100<785 811> 400 100<785 811>
LayerCount: 2
Fore
SplineSet
221 334 m 1x76
 178 81 l 2
 176 72 176 64 176 50 c 2
 176 46 l 1
 239 40 266 39 307 39 c 0
 364 39 434 43 455 48 c 0
 477 53 486 65 496 101 c 2
 512 161 l 1
 539 161 l 1
 534 135 l 2
 525 87 520 56 518 36 c 2
 514 0 l 1x6e
 481 -1 l 2
 448 -2 423 -3 409 -3 c 2x86
 399 -3 l 1
 184 0 l 2
 164 0 102 -1 71 -2 c 2
 30 -3 l 1
 35 23 l 1
 79 30 91 37 95 55 c 2
 182 559 l 2
 187 591 191 621 191 635 c 0
 191 653 180 661 156 662 c 2
 102 664 l 1
 105 692 l 1
 150 691 l 2
 195 690 235 689 263 689 c 0
 287 689 323 689 343 690 c 2
 463 692 l 1
 501 692 l 2
 523 692 550 691 570 689 c 1
 560 652 552 600 549 537 c 1
 525 537 l 1
 517 626 l 2
 516 641 475 650 411 650 c 0
 387 650 360 649 327 648 c 2
 280 646 l 1
 276 638 274 630 271 614 c 2
 229 376 l 1
 266 376 l 2
 348 376 407 378 485 382 c 1
 489 375 l 1
 470 330 l 1
 444 331 l 2
 400 333 369 334 338 334 c 2
 221 334 l 1x76
250 847 m 0
 276 847 300 824 300 798 c 0
 300 772 276 747 250 747 c 0
 224 747 200 772 200 798 c 0
 200 824 224 847 250 847 c 0
450 847 m 0
 476 847 500 824 500 798 c 0
 500 772 476 747 450 747 c 0
 424 747 400 772 400 798 c 0
 400 824 424 847 450 847 c 0
EndSplineSet
Validated: 1
EndChar

StartChar: Egrave
Encoding: 135 200 180
Width: 611
Flags: MW
HStem: -3 20 0 20 334 42<221 266 229 266 266 307 229 338> 650 42
LayerCount: 2
Fore
SplineSet
221 334 m 1x70
 178 81 l 2
 176 72 176 64 176 50 c 2
 176 46 l 1
 239 40 266 39 307 39 c 0
 364 39 434 43 455 48 c 0
 477 53 486 65 496 101 c 2
 512 161 l 1
 539 161 l 1
 534 135 l 2
 525 87 520 56 518 36 c 2
 514 0 l 1x60
 481 -1 l 2
 448 -2 423 -3 409 -3 c 2x80
 399 -3 l 1
 184 0 l 2
 164 0 102 -1 71 -2 c 2
 30 -3 l 1
 35 23 l 1
 79 30 91 37 95 55 c 2
 182 559 l 2
 187 591 191 621 191 635 c 0
 191 653 180 661 156 662 c 2
 102 664 l 1
 105 692 l 1
 150 691 l 2
 195 690 235 689 263 689 c 0
 287 689 323 689 343 690 c 2
 463 692 l 1
 501 692 l 2
 523 692 550 691 570 689 c 1
 560 652 552 600 549 537 c 1
 525 537 l 1
 517 626 l 2
 516 641 475 650 411 650 c 0
 387 650 360 649 327 648 c 2
 280 646 l 1
 276 638 274 630 271 614 c 2
 229 376 l 1
 266 376 l 2
 348 376 407 378 485 382 c 1
 489 375 l 1
 470 330 l 1
 444 331 l 2
 400 333 369 334 338 334 c 2
 221 334 l 1x70
454 728 m 1
 292 829 l 2
 271 842 264 851 264 866 c 0
 264 883 282 897 302 897 c 0
 312 897 323 891 335 879 c 2
 488 728 l 1
 454 728 l 1
EndSplineSet
Validated: 1
EndChar

StartChar: Iacute
Encoding: 140 205 181
Width: 333
Flags: MW
HStem: -3 20 0 20
LayerCount: 2
Fore
SplineSet
103 664 m 1x80
 106 692 l 1
 170 690 l 1
 248 689 l 2
 272 689 305 690 345 692 c 2
 354 692 l 1
 351 664 l 1
 316 661 l 2
 278 657 272 651 265 613 c 2
 176 78 l 2
 175 73 174 64 174 57 c 0
 174 37 183 30 210 28 c 2
 262 25 l 1
 259 -3 l 1x80
 227 -2 l 2
 185 -1 153 0 133 0 c 0x40
 113 0 81 -1 39 -2 c 2
 7 -3 l 1
 10 25 l 1
 46 28 l 2
 86 31 89 36 104 125 c 2
 176 559 l 2
 180 580 185 627 185 636 c 0
 185 653 174 661 150 662 c 2
 103 664 l 1x80
182 728 m 1
 335 879 l 2
 347 891 358 897 368 897 c 0
 388 897 406 883 406 866 c 0
 406 851 399 842 378 829 c 2
 216 728 l 1
 182 728 l 1
EndSplineSet
Validated: 1
EndChar

StartChar: Icircumflex
Encoding: 141 206 182
Width: 333
Flags: MW
HStem: -3 20 0 20
LayerCount: 2
Fore
SplineSet
103 664 m 1x80
 106 692 l 1
 170 690 l 1
 248 689 l 2
 272 689 305 690 345 692 c 2
 354 692 l 1
 351 664 l 1
 316 661 l 2
 278 657 272 651 265 613 c 2
 176 78 l 2
 175 73 174 64 174 57 c 0
 174 37 183 30 210 28 c 2
 262 25 l 1
 259 -3 l 1x80
 227 -2 l 2
 185 -1 153 0 133 0 c 0x40
 113 0 81 -1 39 -2 c 2
 7 -3 l 1
 10 25 l 1
 46 28 l 2
 86 31 89 36 104 125 c 2
 176 559 l 2
 180 580 185 627 185 636 c 0
 185 653 174 661 150 662 c 2
 103 664 l 1x80
302 889 m 1
 390 720 l 1
 354 720 l 1
 272 824 l 1
 135 720 l 1
 96 720 l 1
 253 889 l 1
 302 889 l 1
EndSplineSet
Validated: 1
EndChar

StartChar: Idieresis
Encoding: 142 207 183
Width: 333
Flags: MW
HStem: -3 20 0 20 747 100<135 161 335 361>
VStem: 98 100<785 811> 298 100<785 811>
LayerCount: 2
Fore
SplineSet
103 664 m 1x98
 106 692 l 1
 170 690 l 1
 248 689 l 2
 272 689 305 690 345 692 c 2
 354 692 l 1
 351 664 l 1
 316 661 l 2
 278 657 272 651 265 613 c 2
 176 78 l 2
 175 73 174 64 174 57 c 0
 174 37 183 30 210 28 c 2
 262 25 l 1
 259 -3 l 1xb8
 227 -2 l 2
 185 -1 153 0 133 0 c 0x58
 113 0 81 -1 39 -2 c 2
 7 -3 l 1
 10 25 l 1
 46 28 l 2
 86 31 89 36 104 125 c 2
 176 559 l 2
 180 580 185 627 185 636 c 0
 185 653 174 661 150 662 c 2
 103 664 l 1x98
148 847 m 0
 174 847 198 824 198 798 c 0
 198 772 174 747 148 747 c 0
 122 747 98 772 98 798 c 0
 98 824 122 847 148 847 c 0
348 847 m 0
 374 847 398 824 398 798 c 0
 398 772 374 747 348 747 c 0
 322 747 298 772 298 798 c 0
 298 824 322 847 348 847 c 0
EndSplineSet
Validated: 1
EndChar

StartChar: Igrave
Encoding: 139 204 184
Width: 333
Flags: MW
HStem: -3 20 0 20
LayerCount: 2
Fore
SplineSet
103 664 m 1x80
 106 692 l 1
 170 690 l 1
 248 689 l 2
 272 689 305 690 345 692 c 2
 354 692 l 1
 351 664 l 1
 316 661 l 2
 278 657 272 651 265 613 c 2
 176 78 l 2
 175 73 174 64 174 57 c 0
 174 37 183 30 210 28 c 2
 262 25 l 1
 259 -3 l 1x80
 227 -2 l 2
 185 -1 153 0 133 0 c 0x40
 113 0 81 -1 39 -2 c 2
 7 -3 l 1
 10 25 l 1
 46 28 l 2
 86 31 89 36 104 125 c 2
 176 559 l 2
 180 580 185 627 185 636 c 0
 185 653 174 661 150 662 c 2
 103 664 l 1x80
280 728 m 1
 118 829 l 2
 97 842 90 851 90 866 c 0
 90 883 107 897 128 897 c 0
 138 897 149 891 161 879 c 2
 314 728 l 1
 280 728 l 1
EndSplineSet
Validated: 1
EndChar

StartChar: Ntilde
Encoding: 144 209 185
Width: 778
Flags: MW
HStem: -11 20 0 20 763 60<561.5 572.5> 807 59<392 404.5>
LayerCount: 2
Fore
SplineSet
237 692 m 1x40
 582 103 l 1
 662 592 l 2
 665 609 667 629 667 638 c 0
 667 654 657 661 631 662 c 2
 584 664 l 1
 589 692 l 1
 608 691 l 2
 645 690 674 689 694 689 c 0
 713 689 743 690 783 691 c 2
 804 692 l 1
 799 664 l 1
 762 662 l 2
 725 660 722 655 702 542 c 2
 608 -11 l 1
 558 -11 l 1xa0
 220 567 l 1
 140 102 l 2
 138 91 137 80 137 72 c 0
 137 38 145 31 186 28 c 2
 228 25 l 1
 223 -3 l 1
 126 0 125 0 113 0 c 2
 2 -3 l 1
 7 25 l 1
 38 28 l 2
 74 32 80 40 92 102 c 2
 180 576 l 2
 182 585 183 594 183 594 c 1
 184 599 l 2
 185 603 185 605 185 606 c 0
 185 614 170 634 155 645 c 0
 144 654 122 661 105 662 c 2
 70 664 l 1
 75 692 l 1
 91 691 l 2
 113 690 129 690 132 689 c 2
 146 689 l 1
 153 689 l 1
 156 689 l 1
 237 692 l 1x40
347 763 m 1
 318 763 l 1x20
 338 836 367 866 417 866 c 0x10
 435 866 455 861 479 852 c 2
 539 828 l 2
 547 825 557 823 566 823 c 0x20
 586 823 597 831 617 866 c 1
 645 866 l 1x10
 633 801 597 763 548 763 c 0x20
 535 763 507 770 484 779 c 2
 446 794 l 1
 444 795 l 2
 442 795 440 796 437 798 c 0
 419 805 410 807 399 807 c 0x10
 374 807 362 797 347 763 c 1
EndSplineSet
Validated: 1
EndChar

StartChar: Oacute
Encoding: 146 211 186
Width: 778
Flags: MW
HStem: -18 42<288 366> 664 42<395 507.5>
VStem: 53 88<193.5 342 193.5 397.5> 660 88<346 493>
LayerCount: 2
Fore
SplineSet
464 706 m 0
 644 706 748 603 748 425 c 0
 748 267 670 119 544 42 c 0
 479 1 409 -18 323 -18 c 0
 146 -18 53 82 53 272 c 0
 53 523 226 706 464 706 c 0
433 664 m 0
 357 664 297 641 250 593 c 0
 181 524 141 407 141 277 c 0
 141 110 216 24 360 24 c 0
 438 24 503 50 552 100 c 0
 621 170 660 283 660 409 c 0
 660 577 582 664 433 664 c 0
402 728 m 1
 555 879 l 2
 567 891 578 897 587 897 c 0
 608 897 626 883 626 866 c 0
 626 851 619 842 598 829 c 2
 436 728 l 1
 402 728 l 1
EndSplineSet
Validated: 1
EndChar

StartChar: Ocircumflex
Encoding: 147 212 187
Width: 778
Flags: MW
HStem: -18 42<288 366> 664 42<395 507.5>
VStem: 53 88<193.5 342 193.5 397.5> 660 88<346 493>
LayerCount: 2
Fore
SplineSet
464 706 m 0
 644 706 748 603 748 425 c 0
 748 267 670 119 544 42 c 0
 479 1 409 -18 323 -18 c 0
 146 -18 53 82 53 272 c 0
 53 523 226 706 464 706 c 0
433 664 m 0
 357 664 297 641 250 593 c 0
 181 524 141 407 141 277 c 0
 141 110 216 24 360 24 c 0
 438 24 503 50 552 100 c 0
 621 170 660 283 660 409 c 0
 660 577 582 664 433 664 c 0
523 889 m 1
 611 720 l 1
 575 720 l 1
 493 824 l 1
 356 720 l 1
 317 720 l 1
 474 889 l 1
 523 889 l 1
EndSplineSet
Validated: 1
EndChar

StartChar: Odieresis
Encoding: 149 214 188
Width: 778
Flags: MW
HStem: -18 42<288 366> 664 42<395 507.5> 747 100<372 398 572 598>
VStem: 53 88<193.5 342 193.5 397.5> 335 100<785 811> 535 100<785 811> 660 88<346 493>
LayerCount: 2
Fore
SplineSet
464 706 m 0
 644 706 748 603 748 425 c 0
 748 267 670 119 544 42 c 0
 479 1 409 -18 323 -18 c 0
 146 -18 53 82 53 272 c 0
 53 523 226 706 464 706 c 0
433 664 m 0
 357 664 297 641 250 593 c 0
 181 524 141 407 141 277 c 0
 141 110 216 24 360 24 c 0
 438 24 503 50 552 100 c 0
 621 170 660 283 660 409 c 0
 660 577 582 664 433 664 c 0
385 847 m 0
 411 847 435 824 435 798 c 0
 435 772 411 747 385 747 c 0
 359 747 335 772 335 798 c 0
 335 824 359 847 385 847 c 0
585 847 m 0
 611 847 635 824 635 798 c 0
 635 772 611 747 585 747 c 0
 559 747 535 772 535 798 c 0
 535 824 559 847 585 847 c 0
EndSplineSet
Validated: 1
EndChar

StartChar: Ograve
Encoding: 145 210 189
Width: 778
Flags: MW
HStem: -18 42<288 366> 664 42<395 507.5>
VStem: 53 88<193.5 342 193.5 397.5> 660 88<346 493>
LayerCount: 2
Fore
SplineSet
464 706 m 0
 644 706 748 603 748 425 c 0
 748 267 670 119 544 42 c 0
 479 1 409 -18 323 -18 c 0
 146 -18 53 82 53 272 c 0
 53 523 226 706 464 706 c 0
433 664 m 0
 357 664 297 641 250 593 c 0
 181 524 141 407 141 277 c 0
 141 110 216 24 360 24 c 0
 438 24 503 50 552 100 c 0
 621 170 660 283 660 409 c 0
 660 577 582 664 433 664 c 0
530 728 m 1
 368 829 l 2
 347 842 340 851 340 866 c 0
 340 883 358 897 378 897 c 0
 388 897 399 891 411 879 c 2
 564 728 l 1
 530 728 l 1
EndSplineSet
Validated: 1
EndChar

StartChar: Otilde
Encoding: 148 213 190
Width: 778
Flags: MW
HStem: -18 42<288 366> 664 42<395 507.5> 763 60<571.5 583.5> 807 59<402 415>
VStem: 53 88<193.5 342 193.5 397.5> 660 88<346 493>
LayerCount: 2
Fore
SplineSet
464 706 m 0xec
 644 706 748 603 748 425 c 0
 748 267 670 119 544 42 c 0
 479 1 409 -18 323 -18 c 0
 146 -18 53 82 53 272 c 0
 53 523 226 706 464 706 c 0xec
433 664 m 0
 357 664 297 641 250 593 c 0
 181 524 141 407 141 277 c 0
 141 110 216 24 360 24 c 0
 438 24 503 50 552 100 c 0
 621 170 660 283 660 409 c 0
 660 577 582 664 433 664 c 0
357 763 m 1
 328 763 l 1x2c
 349 836 377 866 427 866 c 0x1c
 446 866 466 861 489 852 c 2
 549 828 l 2
 558 825 567 823 576 823 c 0x2c
 597 823 607 831 627 866 c 1
 655 866 l 1x1c
 644 801 608 763 559 763 c 0x2c
 545 763 518 770 494 779 c 2
 456 794 l 1
 454 795 l 2
 453 795 451 796 447 798 c 0
 430 805 420 807 410 807 c 0x1c
 384 807 373 797 357 763 c 1
EndSplineSet
Validated: 1
EndChar

StartChar: Scaron
Encoding: 287 352 191
Width: 556
Flags: MW
HStem: -18 48<205 274.5> 0 20 658 48<337 363.5>
VStem: 108 72<475 500.5> 406 79<166 220>
LayerCount: 2
Fore
SplineSet
451 537 m 1xb8
 451 613 l 1
 421 645 388 658 339 658 c 0
 247 658 180 595 180 508 c 0
 180 442 210 405 276 391 c 2
 341 377 l 2
 442 355 485 313 485 234 c 0
 485 98 352 -18 197 -18 c 0xb8
 144 -18 92 -5 42 20 c 1x58
 53 72 60 117 66 172 c 1
 96 172 l 1
 96 73 l 1
 140 42 178 30 232 30 c 0
 335 30 406 95 406 191 c 0
 406 249 380 283 325 296 c 2
 230 319 l 2
 146 339 108 386 108 471 c 0
 108 530 129 580 171 622 c 0
 225 674 300 706 374 706 c 0
 422 706 461 696 506 672 c 1
 492 629 485 591 481 537 c 1
 451 537 l 1xb8
396 738 m 1
 350 738 l 1
 254 907 l 1
 291 907 l 1
 381 802 l 1
 523 907 l 1
 559 907 l 1
 396 738 l 1
EndSplineSet
Validated: 1
EndChar

StartChar: Uacute
Encoding: 153 218 192
Width: 778
Flags: MW
HStem: -18 57<271 298> 0 20
VStem: 97 78<119 153>
LayerCount: 2
Fore
SplineSet
795 664 m 1xa0
 759 661 l 2
 721 657 714 651 708 613 c 2
 623 106 l 2
 617 67 617 67 617 51 c 0
 617 36 626 31 649 29 c 2
 709 25 l 1
 704 -3 l 1
 672 -2 l 2
 645 -1 626 0 614 0 c 0x60
 601 0 580 -1 552 -2 c 2
 530 -3 l 1
 525 2 l 1
 538 57 544 83 552 129 c 1
 499 69 468 44 409 16 c 0
 362 -8 320 -18 276 -18 c 0
 164 -18 97 43 97 145 c 0
 97 161 99 184 103 206 c 2
 167 581 l 2
 171 604 174 629 174 639 c 0
 174 656 166 661 140 662 c 2
 88 664 l 1
 91 692 l 1
 123 691 l 2
 152 690 172 689 181 689 c 0
 191 689 211 690 239 691 c 2
 270 692 l 1
 182 215 l 2
 176 184 175 173 175 155 c 0
 175 83 228 39 314 39 c 0
 401 39 480 84 556 177 c 1
 627 622 l 2
 628 626 628 630 628 634 c 0
 628 653 618 661 593 662 c 2
 545 664 l 1
 548 692 l 1
 611 691 l 2
 652 690 680 689 691 689 c 0
 714 689 745 690 782 691 c 2
 798 692 l 1
 795 664 l 1xa0
363 728 m 1
 516 879 l 2
 528 891 539 897 548 897 c 0
 569 897 587 883 587 866 c 0
 587 851 580 842 559 829 c 2
 397 728 l 1
 363 728 l 1
EndSplineSet
Validated: 1
EndChar

StartChar: Ucircumflex
Encoding: 154 219 193
Width: 778
Flags: MW
HStem: -18 57<271 298> 0 20
VStem: 97 78<119 153>
LayerCount: 2
Fore
SplineSet
795 664 m 1xa0
 759 661 l 2
 721 657 714 651 708 613 c 2
 623 106 l 2
 617 67 617 67 617 51 c 0
 617 36 626 31 649 29 c 2
 709 25 l 1
 704 -3 l 1
 672 -2 l 2
 645 -1 626 0 614 0 c 0x60
 601 0 580 -1 552 -2 c 2
 530 -3 l 1
 525 2 l 1
 538 57 544 83 552 129 c 1
 499 69 468 44 409 16 c 0
 362 -8 320 -18 276 -18 c 0
 164 -18 97 43 97 145 c 0
 97 161 99 184 103 206 c 2
 167 581 l 2
 171 604 174 629 174 639 c 0
 174 656 166 661 140 662 c 2
 88 664 l 1
 91 692 l 1
 123 691 l 2
 152 690 172 689 181 689 c 0
 191 689 211 690 239 691 c 2
 270 692 l 1
 182 215 l 2
 176 184 175 173 175 155 c 0
 175 83 228 39 314 39 c 0
 401 39 480 84 556 177 c 1
 627 622 l 2
 628 626 628 630 628 634 c 0
 628 653 618 661 593 662 c 2
 545 664 l 1
 548 692 l 1
 611 691 l 2
 652 690 680 689 691 689 c 0
 714 689 745 690 782 691 c 2
 798 692 l 1
 795 664 l 1xa0
495 889 m 1
 583 720 l 1
 547 720 l 1
 465 824 l 1
 328 720 l 1
 289 720 l 1
 446 889 l 1
 495 889 l 1
EndSplineSet
Validated: 1
EndChar

StartChar: Udieresis
Encoding: 155 220 194
Width: 778
Flags: MW
HStem: -18 57<271 298> 0 20 747 100<356 382 556 582>
VStem: 97 78<119 153> 319 100<785 811> 519 100<785 811>
LayerCount: 2
Fore
SplineSet
795 664 m 1x9c
 759 661 l 2
 721 657 714 651 708 613 c 2
 623 106 l 2
 617 67 617 67 617 51 c 0
 617 36 626 31 649 29 c 2
 709 25 l 1
 704 -3 l 1
 672 -2 l 2
 645 -1 626 0 614 0 c 0x7c
 601 0 580 -1 552 -2 c 2
 530 -3 l 1
 525 2 l 1
 538 57 544 83 552 129 c 1
 499 69 468 44 409 16 c 0
 362 -8 320 -18 276 -18 c 0
 164 -18 97 43 97 145 c 0
 97 161 99 184 103 206 c 2
 167 581 l 2
 171 604 174 629 174 639 c 0
 174 656 166 661 140 662 c 2
 88 664 l 1
 91 692 l 1
 123 691 l 2
 152 690 172 689 181 689 c 0
 191 689 211 690 239 691 c 2
 270 692 l 1
 182 215 l 2
 176 184 175 173 175 155 c 0
 175 83 228 39 314 39 c 0
 401 39 480 84 556 177 c 1
 627 622 l 2
 628 626 628 630 628 634 c 0
 628 653 618 661 593 662 c 2
 545 664 l 1
 548 692 l 1
 611 691 l 2
 652 690 680 689 691 689 c 0
 714 689 745 690 782 691 c 2
 798 692 l 1
 795 664 l 1x9c
369 847 m 0
 395 847 419 824 419 798 c 0
 419 772 395 747 369 747 c 0
 343 747 319 772 319 798 c 0
 319 824 343 847 369 847 c 0
569 847 m 0
 595 847 619 824 619 798 c 0
 619 772 595 747 569 747 c 0
 543 747 519 772 519 798 c 0
 519 824 543 847 569 847 c 0
EndSplineSet
Validated: 1
EndChar

StartChar: Ugrave
Encoding: 152 217 195
Width: 778
Flags: MW
HStem: -18 57<271 298> 0 20
VStem: 97 78<119 153>
LayerCount: 2
Fore
SplineSet
795 664 m 1xa0
 759 661 l 2
 721 657 714 651 708 613 c 2
 623 106 l 2
 617 67 617 67 617 51 c 0
 617 36 626 31 649 29 c 2
 709 25 l 1
 704 -3 l 1
 672 -2 l 2
 645 -1 626 0 614 0 c 0x60
 601 0 580 -1 552 -2 c 2
 530 -3 l 1
 525 2 l 1
 538 57 544 83 552 129 c 1
 499 69 468 44 409 16 c 0
 362 -8 320 -18 276 -18 c 0
 164 -18 97 43 97 145 c 0
 97 161 99 184 103 206 c 2
 167 581 l 2
 171 604 174 629 174 639 c 0
 174 656 166 661 140 662 c 2
 88 664 l 1
 91 692 l 1
 123 691 l 2
 152 690 172 689 181 689 c 0
 191 689 211 690 239 691 c 2
 270 692 l 1
 182 215 l 2
 176 184 175 173 175 155 c 0
 175 83 228 39 314 39 c 0
 401 39 480 84 556 177 c 1
 627 622 l 2
 628 626 628 630 628 634 c 0
 628 653 618 661 593 662 c 2
 545 664 l 1
 548 692 l 1
 611 691 l 2
 652 690 680 689 691 689 c 0
 714 689 745 690 782 691 c 2
 798 692 l 1
 795 664 l 1xa0
476 728 m 1
 314 829 l 2
 291 843 285 851 285 866 c 0
 285 883 303 897 324 897 c 0
 333 897 345 891 357 879 c 2
 509 728 l 1
 476 728 l 1
EndSplineSet
Validated: 1
EndChar

StartChar: Yacute
Encoding: 156 221 196
Width: 667
Flags: MW
HStem: -3 20 0 20
LayerCount: 2
Fore
SplineSet
52 647 m 1x80
 67 658 l 2
 99 680 112 689 127 702 c 2
 131 705 l 1
 223 704 271 616 346 310 c 1
 374 384 412 452 474 536 c 0
 549 636 602 678 675 697 c 1
 669 626 l 1
 610 616 568 586 510 512 c 0
 436 419 371 302 362 246 c 2
 336 78 l 2
 335 72 334 64 334 57 c 0
 334 37 343 30 370 28 c 2
 419 25 l 1
 416 -3 l 1x80
 390 -2 l 2
 346 -1 314 0 293 0 c 0x40
 276 0 247 -1 207 -2 c 2
 154 -3 l 1
 158 25 l 1
 206 28 l 2
 246 31 247 34 264 125 c 2
 285 251 l 1
 286 257 l 2
 288 272 249 408 224 477 c 0
 183 589 147 635 100 635 c 0
 89 635 77 632 55 623 c 1
 52 647 l 1x80
341 728 m 1
 494 879 l 2
 507 891 517 897 527 897 c 0
 547 897 565 883 565 866 c 0
 565 851 558 842 537 829 c 2
 375 728 l 1
 341 728 l 1
EndSplineSet
Validated: 33
EndChar

StartChar: Ydieresis
Encoding: 311 376 197
Width: 667
Flags: MW
HStem: -3 20 0 20 747 100<288 314 488 514>
VStem: 251 100<785 811> 451 100<785 811>
LayerCount: 2
Fore
SplineSet
52 647 m 1x98
 67 658 l 2
 99 680 112 689 127 702 c 2
 131 705 l 1
 223 704 271 616 346 310 c 1
 374 384 412 452 474 536 c 0
 549 636 602 678 675 697 c 1
 669 626 l 1
 610 616 568 586 510 512 c 0
 436 419 371 302 362 246 c 2
 336 78 l 2
 335 72 334 64 334 57 c 0
 334 37 343 30 370 28 c 2
 419 25 l 1
 416 -3 l 1xb8
 390 -2 l 2
 346 -1 314 0 293 0 c 0x58
 276 0 247 -1 207 -2 c 2
 154 -3 l 1
 158 25 l 1
 206 28 l 2
 246 31 247 34 264 125 c 2
 285 251 l 1
 286 257 l 2
 288 272 249 408 224 477 c 0
 183 589 147 635 100 635 c 0
 89 635 77 632 55 623 c 1
 52 647 l 1x98
301 847 m 0
 327 847 351 824 351 798 c 0
 351 772 327 747 301 747 c 0
 275 747 251 772 251 798 c 0
 251 824 275 847 301 847 c 0
501 847 m 0
 527 847 551 824 551 798 c 0
 551 772 527 747 501 747 c 0
 475 747 451 772 451 798 c 0
 451 824 475 847 501 847 c 0
EndSplineSet
Validated: 33
EndChar

StartChar: Zcaron
Encoding: 316 381 198
Width: 667
Flags: MW
HStem: -3 20 0 39<213 303> 652 37<449 475 449 522>
LayerCount: 2
Fore
SplineSet
20 -3 m 1x80
 20 19 l 1
 522 652 l 1
 342 652 l 2
 257 652 212 649 162 639 c 1
 156 619 l 2
 144 580 138 555 135 533 c 1
 109 533 l 1
 117 606 120 645 120 692 c 1
 238 691 l 1
 449 689 l 1
 475 689 l 1
 637 692 l 1
 637 672 l 1
 133 39 l 1
 414 39 l 2x60
 457 39 502 44 541 52 c 1
 549 74 l 2
 557 96 566 122 573 142 c 2
 580 164 l 1
 606 164 l 1
 592 93 585 40 583 -3 c 1x80
 517 -2 l 2
 451 -1 349 0 257 0 c 0x40
 169 0 105 -1 20 -3 c 1x80
398 738 m 1
 352 738 l 1
 256 907 l 1
 293 907 l 1
 383 802 l 1
 525 907 l 1
 561 907 l 1
 398 738 l 1
EndSplineSet
Validated: 1
EndChar

StartChar: aacute
Encoding: 160 225 199
Width: 444
Flags: MW
HStem: -11 20 -9 20 433 49<210 287.5>
VStem: 4 72<85.5 106.5>
LayerCount: 2
Fore
SplineSet
402 472 m 1xb0
 310 93 l 2
 309 90 309 87 309 83 c 0
 309 67 314 59 324 59 c 0
 339 59 355 68 386 95 c 2
 399 106 l 1
 406 85 l 1
 324 18 283 -9 260 -9 c 0x70
 245 -9 236 3 236 26 c 0
 236 42 238 59 242 77 c 2
 271 204 l 1
 217 128 178 82 136 45 c 0
 98 11 60 -11 38 -11 c 0
 19 -11 4 23 4 67 c 0
 4 146 35 265 79 354 c 0
 104 403 137 433 199 464 c 0
 226 477 246 482 274 482 c 0
 301 482 318 478 359 463 c 1
 392 481 l 1
 402 472 l 1xb0
319 414 m 1
 277 429 257 433 234 433 c 0
 186 433 163 415 139 360 c 0
 104 280 76 164 76 99 c 0
 76 72 82 59 94 59 c 0
 126 59 187 117 244 201 c 0
 278 253 297 305 319 414 c 1
224 518 m 1
 377 669 l 2
 389 681 400 687 409 687 c 0
 430 687 448 673 448 656 c 0
 448 641 442 633 420 619 c 2
 258 518 l 1
 224 518 l 1
EndSplineSet
Validated: 1
EndChar

StartChar: acircumflex
Encoding: 161 226 200
Width: 444
Flags: MW
HStem: -11 20 -9 20 433 49<210 287.5>
VStem: 4 72<85.5 106.5>
LayerCount: 2
Fore
SplineSet
402 472 m 1xb0
 310 93 l 2
 309 90 309 87 309 83 c 0
 309 67 314 59 324 59 c 0
 339 59 355 68 386 95 c 2
 399 106 l 1
 406 85 l 1
 324 18 283 -9 260 -9 c 0x70
 245 -9 236 3 236 26 c 0
 236 42 238 59 242 77 c 2
 271 204 l 1
 217 128 178 82 136 45 c 0
 98 11 60 -11 38 -11 c 0
 19 -11 4 23 4 67 c 0
 4 146 35 265 79 354 c 0
 104 403 137 433 199 464 c 0
 226 477 246 482 274 482 c 0
 301 482 318 478 359 463 c 1
 392 481 l 1
 402 472 l 1xb0
319 414 m 1
 277 429 257 433 234 433 c 0
 186 433 163 415 139 360 c 0
 104 280 76 164 76 99 c 0
 76 72 82 59 94 59 c 0
 126 59 187 117 244 201 c 0
 278 253 297 305 319 414 c 1
335 679 m 1
 423 510 l 1
 387 510 l 1
 305 614 l 1
 168 510 l 1
 129 510 l 1
 286 679 l 1
 335 679 l 1
EndSplineSet
Validated: 1
EndChar

StartChar: adieresis
Encoding: 163 228 201
Width: 444
Flags: MW
HStem: -11 20 -9 20 433 49<210 287.5> 537 100<171 197 371 397>
VStem: 4 72<85.5 106.5> 134 100<575 600.5 575 601> 334 100<575 600.5 575 601>
LayerCount: 2
Fore
SplineSet
402 472 m 1xae
 310 93 l 2
 309 90 309 87 309 83 c 0
 309 67 314 59 324 59 c 0
 339 59 355 68 386 95 c 2
 399 106 l 1
 406 85 l 1
 324 18 283 -9 260 -9 c 0x7e
 245 -9 236 3 236 26 c 0
 236 42 238 59 242 77 c 2
 271 204 l 1
 217 128 178 82 136 45 c 0
 98 11 60 -11 38 -11 c 0
 19 -11 4 23 4 67 c 0
 4 146 35 265 79 354 c 0
 104 403 137 433 199 464 c 0
 226 477 246 482 274 482 c 0
 301 482 318 478 359 463 c 1
 392 481 l 1
 402 472 l 1xae
319 414 m 1
 277 429 257 433 234 433 c 0
 186 433 163 415 139 360 c 0
 104 280 76 164 76 99 c 0
 76 72 82 59 94 59 c 0
 126 59 187 117 244 201 c 0
 278 253 297 305 319 414 c 1
184 637 m 0
 210 637 234 613 234 588 c 0
 234 562 210 537 184 537 c 0
 158 537 134 562 134 588 c 0
 134 614 158 637 184 637 c 0
384 637 m 0
 410 637 434 613 434 588 c 0
 434 562 410 537 384 537 c 0
 358 537 334 562 334 588 c 0
 334 614 358 637 384 637 c 0
EndSplineSet
Validated: 1
EndChar

StartChar: agrave
Encoding: 159 224 202
Width: 444
Flags: MW
HStem: -11 20 -9 20 433 49<210 287.5>
VStem: 4 72<85.5 106.5>
LayerCount: 2
Fore
SplineSet
402 472 m 1xb0
 310 93 l 2
 309 90 309 87 309 83 c 0
 309 67 314 59 324 59 c 0
 339 59 355 68 386 95 c 2
 399 106 l 1
 406 85 l 1
 324 18 283 -9 260 -9 c 0x70
 245 -9 236 3 236 26 c 0
 236 42 238 59 242 77 c 2
 271 204 l 1
 217 128 178 82 136 45 c 0
 98 11 60 -11 38 -11 c 0
 19 -11 4 23 4 67 c 0
 4 146 35 265 79 354 c 0
 104 403 137 433 199 464 c 0
 226 477 246 482 274 482 c 0
 301 482 318 478 359 463 c 1
 392 481 l 1
 402 472 l 1xb0
319 414 m 1
 277 429 257 433 234 433 c 0
 186 433 163 415 139 360 c 0
 104 280 76 164 76 99 c 0
 76 72 82 59 94 59 c 0
 126 59 187 117 244 201 c 0
 278 253 297 305 319 414 c 1
342 518 m 1
 180 619 l 2
 158 633 152 641 152 656 c 0
 152 673 170 687 190 687 c 0
 200 687 211 681 223 669 c 2
 376 518 l 1
 342 518 l 1
EndSplineSet
Validated: 1
EndChar

StartChar: aring
Encoding: 164 229 203
Width: 444
Flags: MW
HStem: -11 20 -9 20 433 49<210 287.5> 518 36<287.5 324.5 287.5 334> 682 36<288 325>
VStem: 4 72<85.5 106.5> 206 38<598.5 637.5 598.5 646> 368 38<598.5 637>
LayerCount: 2
Fore
SplineSet
402 472 m 1xa7
 310 93 l 2
 309 90 309 87 309 83 c 0
 309 67 314 59 324 59 c 0
 339 59 355 68 386 95 c 2
 399 106 l 1
 406 85 l 1
 324 18 283 -9 260 -9 c 0x7f
 245 -9 236 3 236 26 c 0
 236 42 238 59 242 77 c 2
 271 204 l 1
 217 128 178 82 136 45 c 0
 98 11 60 -11 38 -11 c 0
 19 -11 4 23 4 67 c 0
 4 146 35 265 79 354 c 0
 104 403 137 433 199 464 c 0
 226 477 246 482 274 482 c 0
 301 482 318 478 359 463 c 1
 392 481 l 1
 402 472 l 1xa7
319 414 m 1
 277 429 257 433 234 433 c 0
 186 433 163 415 139 360 c 0
 104 280 76 164 76 99 c 0
 76 72 82 59 94 59 c 0
 126 59 187 117 244 201 c 0
 278 253 297 305 319 414 c 1
307 718 m 0
 362 718 406 673 406 618 c 0
 406 562 362 518 306 518 c 0
 250 518 206 562 206 618 c 0
 206 674 250 718 307 718 c 0
307 682 m 0
 269 682 244 657 244 618 c 0
 244 579 269 554 306 554 c 0
 343 554 368 579 368 618 c 0
 368 656 343 682 307 682 c 0
EndSplineSet
Validated: 1
EndChar

StartChar: atilde
Encoding: 162 227 204
Width: 444
Flags: MW
HStem: -11 20 -9 20 433 49<210 287.5> 535 60<361.5 374> 579 59<192.5 205.5>
VStem: 4 72<85.5 106.5>
LayerCount: 2
Fore
SplineSet
402 472 m 1xa4
 310 93 l 2
 309 90 309 87 309 83 c 0
 309 67 314 59 324 59 c 0
 339 59 355 68 386 95 c 2
 399 106 l 1
 406 85 l 1
 324 18 283 -9 260 -9 c 0x74
 245 -9 236 3 236 26 c 0
 236 42 238 59 242 77 c 2
 271 204 l 1
 217 128 178 82 136 45 c 0
 98 11 60 -11 38 -11 c 0
 19 -11 4 23 4 67 c 0
 4 146 35 265 79 354 c 0
 104 403 137 433 199 464 c 0
 226 477 246 482 274 482 c 0
 301 482 318 478 359 463 c 1
 392 481 l 1
 402 472 l 1xa4
319 414 m 1
 277 429 257 433 234 433 c 0
 186 433 163 415 139 360 c 0
 104 280 76 164 76 99 c 0
 76 72 82 59 94 59 c 0
 126 59 187 117 244 201 c 0
 278 253 297 305 319 414 c 1
148 535 m 1
 119 535 l 1x14
 139 608 168 638 217 638 c 0x0c
 236 638 256 634 280 624 c 2
 340 600 l 2
 348 597 357 595 366 595 c 0x14
 388 595 398 604 418 638 c 1
 446 638 l 1x0c
 434 573 399 535 349 535 c 0x14
 336 535 308 542 285 551 c 2
 247 566 l 2
 242 568 241 568 238 570 c 0
 219 577 211 579 200 579 c 0x0c
 175 579 163 569 148 535 c 1
EndSplineSet
Validated: 1
EndChar

StartChar: ccedilla
Encoding: 166 231 205
Width: 407
Flags: MW
HStem: -216 35<104 129.5 104 153.5> 433 49<270 283.5>
VStem: 25 76<119.5 189> 167 72<-149.5 -125>
LayerCount: 2
Fore
SplineSet
170 -10 m 1
 133 -64 l 1
 140 -63 149 -62 156 -62 c 0
 208 -62 239 -88 239 -132 c 0
 239 -183 191 -216 116 -216 c 0
 89 -216 69 -211 28 -196 c 1
 45 -167 l 1
 80 -178 94 -181 114 -181 c 0
 145 -181 167 -163 167 -136 c 0
 167 -114 148 -98 120 -98 c 0
 112 -98 104 -99 87 -104 c 1
 78 -96 l 1
 132 -10 l 1
 61 -3 25 46 25 137 c 0
 25 241 62 346 117 395 c 0
 174 446 247 482 293 482 c 0
 331 482 365 474 389 458 c 1
 380 432 373 395 365 330 c 1
 342 330 l 1
 342 390 l 2
 342 414 306 433 261 433 c 0
 230 433 206 426 185 409 c 0
 136 371 101 267 101 159 c 0
 101 80 130 40 186 40 c 0
 221 40 258 57 331 105 c 2
 346 115 l 1
 354 95 l 1
 304 54 l 2
 257 15 215 -4 170 -10 c 1
EndSplineSet
Validated: 1
EndChar

StartChar: eacute
Encoding: 168 233 206
Width: 389
Flags: MW
HStem: -11 47<143 159> 440 42<257.5 266.5>
VStem: 15 76<103.5 147 103.5 147> 300 74<373 404.5>
LayerCount: 2
Fore
SplineSet
328 111 m 1
 336 92 l 1
 242 16 188 -11 130 -11 c 0
 58 -11 15 36 15 113 c 0
 15 181 45 299 75 349 c 0
 114 413 225 482 290 482 c 0
 341 482 374 451 374 404 c 0
 374 342 334 296 250 259 c 0
 225 248 198 238 181 234 c 2
 99 214 l 1
 93 185 91 160 91 134 c 0
 91 73 119 36 167 36 c 0
 203 36 251 56 304 94 c 2
 328 111 l 1
113 274 m 2
 104 237 l 1
 147 246 185 259 213 272 c 0
 265 297 300 344 300 389 c 0
 300 420 281 440 252 440 c 0
 228 440 197 428 179 412 c 0
 150 386 130 343 113 274 c 2
205 518 m 1
 358 669 l 2
 370 681 381 687 391 687 c 0
 411 687 429 673 429 656 c 0
 429 641 422 632 401 619 c 2
 239 518 l 1
 205 518 l 1
EndSplineSet
Validated: 1
EndChar

StartChar: ecircumflex
Encoding: 169 234 207
Width: 389
Flags: MW
HStem: -11 47<143 159> 440 42<257.5 266.5>
VStem: 15 76<103.5 147 103.5 147> 300 74<373 404.5>
LayerCount: 2
Fore
SplineSet
328 111 m 1
 336 92 l 1
 242 16 188 -11 130 -11 c 0
 58 -11 15 36 15 113 c 0
 15 181 45 299 75 349 c 0
 114 413 225 482 290 482 c 0
 341 482 374 451 374 404 c 0
 374 342 334 296 250 259 c 0
 225 248 198 238 181 234 c 2
 99 214 l 1
 93 185 91 160 91 134 c 0
 91 73 119 36 167 36 c 0
 203 36 251 56 304 94 c 2
 328 111 l 1
113 274 m 2
 104 237 l 1
 147 246 185 259 213 272 c 0
 265 297 300 344 300 389 c 0
 300 420 281 440 252 440 c 0
 228 440 197 428 179 412 c 0
 150 386 130 343 113 274 c 2
310 679 m 1
 398 510 l 1
 362 510 l 1
 280 614 l 1
 143 510 l 1
 104 510 l 1
 261 679 l 1
 310 679 l 1
EndSplineSet
Validated: 1
EndChar

StartChar: edieresis
Encoding: 170 235 208
Width: 389
Flags: MW
HStem: -11 47<143 159> 440 42<257.5 266.5> 537 100<143 169 343 369>
VStem: 15 76<103.5 147 103.5 147> 106 100<575 600.5 575 601> 300 74<373 404.5> 306 100<575 600.5 575 601>
LayerCount: 2
Fore
SplineSet
328 111 m 1xfc
 336 92 l 1
 242 16 188 -11 130 -11 c 0
 58 -11 15 36 15 113 c 0
 15 181 45 299 75 349 c 0
 114 413 225 482 290 482 c 0
 341 482 374 451 374 404 c 0
 374 342 334 296 250 259 c 0
 225 248 198 238 181 234 c 2
 99 214 l 1
 93 185 91 160 91 134 c 0
 91 73 119 36 167 36 c 0
 203 36 251 56 304 94 c 2
 328 111 l 1xfc
113 274 m 2
 104 237 l 1
 147 246 185 259 213 272 c 0
 265 297 300 344 300 389 c 0
 300 420 281 440 252 440 c 0
 228 440 197 428 179 412 c 0
 150 386 130 343 113 274 c 2
156 637 m 0
 182 637 206 613 206 588 c 0
 206 562 182 537 156 537 c 0
 130 537 106 562 106 588 c 0
 106 614 130 637 156 637 c 0
356 637 m 0xe2
 382 637 406 613 406 588 c 0
 406 562 382 537 356 537 c 0
 330 537 306 562 306 588 c 0
 306 614 330 637 356 637 c 0xe2
EndSplineSet
Validated: 1
EndChar

StartChar: egrave
Encoding: 167 232 209
Width: 389
Flags: MW
HStem: -11 47<143 159> 440 42<257.5 266.5>
VStem: 15 76<103.5 147 103.5 147> 300 74<373 404.5>
LayerCount: 2
Fore
SplineSet
328 111 m 1
 336 92 l 1
 242 16 188 -11 130 -11 c 0
 58 -11 15 36 15 113 c 0
 15 181 45 299 75 349 c 0
 114 413 225 482 290 482 c 0
 341 482 374 451 374 404 c 0
 374 342 334 296 250 259 c 0
 225 248 198 238 181 234 c 2
 99 214 l 1
 93 185 91 160 91 134 c 0
 91 73 119 36 167 36 c 0
 203 36 251 56 304 94 c 2
 328 111 l 1
113 274 m 2
 104 237 l 1
 147 246 185 259 213 272 c 0
 265 297 300 344 300 389 c 0
 300 420 281 440 252 440 c 0
 228 440 197 428 179 412 c 0
 150 386 130 343 113 274 c 2
315 518 m 1
 153 619 l 2
 132 632 125 641 125 656 c 0
 125 673 143 687 163 687 c 0
 172 687 184 681 196 669 c 2
 349 518 l 1
 315 518 l 1
EndSplineSet
Validated: 1
EndChar

StartChar: iacute
Encoding: 172 237 210
Width: 278
Flags: MW
HStem: -9 20 462 20<185 204.5>
LayerCount: 2
Fore
SplineSet
34 388 m 1
 62 408 l 2
 137 462 174 482 196 482 c 0
 213 482 221 473 221 456 c 0
 221 447 219 437 215 420 c 2
 138 116 l 2
 132 94 131 86 131 76 c 0
 131 65 137 56 144 56 c 0
 154 56 175 66 205 86 c 2
 231 103 l 1
 241 85 l 1
 146 14 106 -9 81 -9 c 0
 62 -9 51 6 51 30 c 0
 51 50 55 75 64 107 c 2
 130 347 l 2
 134 362 138 383 138 391 c 0
 138 403 131 412 121 412 c 0
 112 412 101 407 73 389 c 2
 41 368 l 1
 34 388 l 1
107 518 m 1
 260 669 l 2
 272 681 283 687 293 687 c 0
 313 687 331 673 331 656 c 0
 331 641 324 633 303 619 c 2
 141 518 l 1
 107 518 l 1
EndSplineSet
Validated: 1
EndChar

StartChar: icircumflex
Encoding: 173 238 211
Width: 278
Flags: MW
HStem: -9 20 462 20<185 204.5>
LayerCount: 2
Fore
SplineSet
34 388 m 1
 62 408 l 2
 137 462 174 482 196 482 c 0
 213 482 221 473 221 456 c 0
 221 447 219 437 215 420 c 2
 138 116 l 2
 132 93 131 86 131 76 c 0
 131 65 137 56 144 56 c 0
 154 56 175 66 205 86 c 2
 231 103 l 1
 241 85 l 1
 145 13 107 -9 81 -9 c 0
 62 -9 51 6 51 30 c 0
 51 50 55 75 64 107 c 2
 130 347 l 2
 134 362 138 383 138 391 c 0
 138 403 131 412 121 412 c 0
 112 412 101 407 73 389 c 2
 41 368 l 1
 34 388 l 1
235 679 m 1
 323 510 l 1
 287 510 l 1
 205 614 l 1
 68 510 l 1
 29 510 l 1
 186 679 l 1
 235 679 l 1
EndSplineSet
Validated: 1
EndChar

StartChar: idieresis
Encoding: 174 239 212
Width: 278
Flags: MW
HStem: -9 20 462 20<185 204.5> 557 100<88 114 288 314>
VStem: 51 100<595 620.5 595 621> 251 100<595 620.5 595 621>
LayerCount: 2
Fore
SplineSet
34 388 m 1
 62 408 l 2
 137 462 174 482 196 482 c 0
 213 482 221 473 221 456 c 0
 221 447 219 437 215 420 c 2
 138 116 l 2
 132 94 131 86 131 76 c 0
 131 65 137 56 144 56 c 0
 154 56 175 66 205 86 c 2
 231 103 l 1
 241 85 l 1
 146 14 106 -9 81 -9 c 0
 62 -9 51 6 51 30 c 0
 51 50 55 75 64 107 c 2
 130 347 l 2
 134 362 138 383 138 391 c 0
 138 403 131 412 121 412 c 0
 112 412 101 407 73 389 c 2
 41 368 l 1
 34 388 l 1
101 657 m 0
 127 657 151 633 151 608 c 0
 151 582 127 557 101 557 c 0
 75 557 51 582 51 608 c 0
 51 634 75 657 101 657 c 0
301 657 m 0
 327 657 351 633 351 608 c 0
 351 582 327 557 301 557 c 0
 275 557 251 582 251 608 c 0
 251 634 275 657 301 657 c 0
EndSplineSet
Validated: 1
EndChar

StartChar: igrave
Encoding: 171 236 213
Width: 278
Flags: MW
HStem: -9 20 462 20<185 204.5>
LayerCount: 2
Fore
SplineSet
34 388 m 1
 62 408 l 2
 137 462 174 482 196 482 c 0
 213 482 221 473 221 456 c 0
 221 447 219 437 215 420 c 2
 138 116 l 2
 132 94 131 86 131 76 c 0
 131 65 137 56 144 56 c 0
 154 56 175 66 205 86 c 2
 231 103 l 1
 241 85 l 1
 146 14 106 -9 81 -9 c 0
 62 -9 51 6 51 30 c 0
 51 50 55 75 64 107 c 2
 130 347 l 2
 134 362 138 383 138 391 c 0
 138 403 131 412 121 412 c 0
 112 412 101 407 73 389 c 2
 41 368 l 1
 34 388 l 1
237 518 m 1
 75 619 l 2
 53 633 47 641 47 656 c 0
 47 673 65 687 85 687 c 0
 95 687 106 681 118 669 c 2
 271 518 l 1
 237 518 l 1
EndSplineSet
Validated: 1
EndChar

StartChar: ntilde
Encoding: 176 241 214
Width: 556
Flags: MW
HStem: -9 20 462 20<174.5 192.5 431 462> 535 60<417 429.5> 579 59<248 261.5>
LayerCount: 2
Fore
SplineSet
24 388 m 1xe0
 52 408 l 2
 126 461 164 482 185 482 c 0
 200 482 208 471 208 449 c 0
 208 438 206 427 202 408 c 2
 164 247 l 1
 216 320 244 354 282 389 c 0
 341 444 410 482 452 482 c 0
 472 482 483 469 483 446 c 0
 483 428 479 402 472 372 c 2
 406 96 l 2
 405 91 404 82 404 76 c 0
 404 65 410 56 417 56 c 0
 427 56 448 66 478 86 c 2
 504 103 l 1
 514 85 l 1
 418 14 379 -9 354 -9 c 0
 335 -9 324 6 324 31 c 0
 324 47 328 69 337 107 c 2
 389 319 l 2
 397 352 400 371 400 390 c 0
 400 406 394 414 383 414 c 0
 338 414 264 352 209 269 c 0
 163 199 142 134 123 8 c 1
 101 4 78 -2 53 -9 c 1
 46 2 l 1
 87 146 128 337 128 389 c 0
 128 404 121 414 110 414 c 0
 103 414 102 414 63 389 c 2
 31 368 l 1
 24 388 l 1xe0
204 535 m 1
 175 535 l 1x20
 195 608 223 638 273 638 c 0x10
 292 638 312 634 336 624 c 2
 396 600 l 2
 404 597 412 595 422 595 c 0x20
 443 595 454 604 474 638 c 1
 502 638 l 1x10
 490 573 454 535 405 535 c 0x20
 391 535 364 542 341 551 c 2
 303 566 l 2
 299 567 296 569 293 570 c 0
 274 577 267 579 256 579 c 0x10
 230 579 219 569 204 535 c 1
EndSplineSet
Validated: 1
EndChar

StartChar: oacute
Encoding: 178 243 215
Width: 444
Flags: MW
HStem: -11 38<155.5 172.5> 444 38<256 272>
VStem: 17 76<111.5 207.5 111.5 213> 335 76<280.5 357.5>
LayerCount: 2
Fore
SplineSet
278 482 m 0
 361 482 411 425 411 331 c 0
 411 230 367 116 305 57 c 0
 260 15 200 -11 145 -11 c 0
 62 -11 17 46 17 152 c 0
 17 274 62 375 143 433 c 0
 189 465 234 482 278 482 c 0
241 444 m 0
 216 444 194 438 181 427 c 0
 132 387 93 264 93 151 c 0
 93 72 126 27 185 27 c 0
 216 27 242 39 260 60 c 0
 304 113 335 219 335 315 c 0
 335 400 303 444 241 444 c 0
190 518 m 1
 343 669 l 2
 355 681 366 687 376 687 c 0
 396 687 414 673 414 656 c 0
 414 641 408 633 386 619 c 2
 224 518 l 1
 190 518 l 1
EndSplineSet
Validated: 1
EndChar

StartChar: ocircumflex
Encoding: 179 244 216
Width: 444
Flags: MW
HStem: -11 38<155.5 172.5> 444 38<256 272>
VStem: 17 76<111.5 207.5 111.5 213> 335 76<280.5 357.5>
LayerCount: 2
Fore
SplineSet
278 482 m 0
 361 482 411 425 411 331 c 0
 411 230 367 116 305 57 c 0
 260 15 200 -11 145 -11 c 0
 62 -11 17 46 17 152 c 0
 17 274 62 375 143 433 c 0
 189 465 234 482 278 482 c 0
241 444 m 0
 216 444 194 438 181 427 c 0
 132 387 93 264 93 151 c 0
 93 72 126 27 185 27 c 0
 216 27 242 39 260 60 c 0
 304 113 335 219 335 315 c 0
 335 400 303 444 241 444 c 0
318 679 m 1
 406 510 l 1
 370 510 l 1
 288 614 l 1
 151 510 l 1
 112 510 l 1
 269 679 l 1
 318 679 l 1
EndSplineSet
Validated: 1
EndChar

StartChar: odieresis
Encoding: 181 246 217
Width: 444
Flags: MW
HStem: -11 38<155.5 172.5> 444 38<256 272> 537 100<171 197 371 397>
VStem: 17 76<111.5 207.5 111.5 213> 134 100<575 600.5 575 601> 334 100<575 600.5 575 601> 335 76<280.5 357.5>
LayerCount: 2
Fore
SplineSet
278 482 m 0xfa
 361 482 411 425 411 331 c 0
 411 230 367 116 305 57 c 0
 260 15 200 -11 145 -11 c 0
 62 -11 17 46 17 152 c 0
 17 274 62 375 143 433 c 0
 189 465 234 482 278 482 c 0xfa
241 444 m 0
 216 444 194 438 181 427 c 0
 132 387 93 264 93 151 c 0
 93 72 126 27 185 27 c 0
 216 27 242 39 260 60 c 0
 304 113 335 219 335 315 c 0
 335 400 303 444 241 444 c 0
184 637 m 0
 210 637 234 613 234 588 c 0
 234 562 210 537 184 537 c 0
 158 537 134 562 134 588 c 0
 134 614 158 637 184 637 c 0
384 637 m 0xe4
 410 637 434 613 434 588 c 0
 434 562 410 537 384 537 c 0
 358 537 334 562 334 588 c 0
 334 614 358 637 384 637 c 0xe4
EndSplineSet
Validated: 1
EndChar

StartChar: ograve
Encoding: 177 242 218
Width: 444
Flags: MW
HStem: -11 38<155.5 172.5> 444 38<256 272>
VStem: 17 76<111.5 207.5 111.5 213> 335 76<280.5 357.5>
LayerCount: 2
Fore
SplineSet
278 482 m 0
 361 482 411 425 411 331 c 0
 411 230 367 116 305 57 c 0
 260 15 200 -11 145 -11 c 0
 62 -11 17 46 17 152 c 0
 17 274 62 375 143 433 c 0
 189 465 234 482 278 482 c 0
241 444 m 0
 216 444 194 438 181 427 c 0
 132 387 93 264 93 151 c 0
 93 72 126 27 185 27 c 0
 216 27 242 39 260 60 c 0
 304 113 335 219 335 315 c 0
 335 400 303 444 241 444 c 0
332 518 m 1
 170 619 l 2
 149 632 142 641 142 656 c 0
 142 673 160 687 180 687 c 0
 189 687 201 681 213 669 c 2
 366 518 l 1
 332 518 l 1
EndSplineSet
Validated: 1
EndChar

StartChar: otilde
Encoding: 180 245 219
Width: 444
Flags: MW
HStem: -11 38<155.5 172.5> 444 38<256 272> 535 60<361.5 374> 579 59<192.5 205.5>
VStem: 17 76<111.5 207.5 111.5 213> 335 76<280.5 357.5>
LayerCount: 2
Fore
SplineSet
278 482 m 0xec
 361 482 411 425 411 331 c 0
 411 230 367 116 305 57 c 0
 260 15 200 -11 145 -11 c 0
 62 -11 17 46 17 152 c 0
 17 274 62 375 143 433 c 0
 189 465 234 482 278 482 c 0xec
241 444 m 0
 216 444 194 438 181 427 c 0
 132 387 93 264 93 151 c 0
 93 72 126 27 185 27 c 0
 216 27 242 39 260 60 c 0
 304 113 335 219 335 315 c 0
 335 400 303 444 241 444 c 0
148 535 m 1
 119 535 l 1x2c
 139 608 168 638 217 638 c 0x1c
 236 638 256 634 280 624 c 2
 340 600 l 2
 348 597 357 595 366 595 c 0x2c
 388 595 398 604 418 638 c 1
 446 638 l 1x1c
 434 573 399 535 349 535 c 0x2c
 336 535 308 542 285 551 c 2
 247 566 l 2
 242 568 241 568 238 570 c 0
 219 577 211 579 200 579 c 0x1c
 175 579 163 569 148 535 c 1
EndSplineSet
Validated: 1
EndChar

StartChar: scaron
Encoding: 288 353 220
Width: 389
Flags: MW
HStem: -11 40<132 140.5> 442 40<219 228.5>
VStem: 47 59<327.5 334> 56 247<64 397> 267 67<149 158>
LayerCount: 2
Fore
SplineSet
31 148 m 1xe8
 56 148 l 1
 56 64 l 1xd0
 84 40 114 29 150 29 c 0
 221 29 267 72 267 138 c 0
 267 178 251 195 207 203 c 2
 144 215 l 2
 78 228 47 260 47 316 c 0xe8
 47 352 58 377 84 404 c 0
 132 453 193 482 245 482 c 0
 278 482 306 474 345 455 c 1
 334 400 330 379 326 342 c 1
 303 342 l 1
 303 397 l 1xd0
 287 424 249 442 208 442 c 0
 150 442 106 401 106 348 c 0
 106 307 125 290 185 279 c 2
 228 271 l 2
 303 257 334 229 334 174 c 0
 334 124 313 87 262 47 c 0
 211 7 165 -11 116 -11 c 0
 81 -11 47 -3 9 16 c 1
 20 62 26 97 31 148 c 1xe8
256 510 m 1
 210 510 l 1
 114 679 l 1
 151 679 l 1
 241 574 l 1
 383 679 l 1
 419 679 l 1
 256 510 l 1
EndSplineSet
Validated: 1
EndChar

StartChar: uacute
Encoding: 185 250 221
Width: 556
Flags: MW
HStem: -11 20 -9 20 462 20<182.5 200 485 485>
LayerCount: 2
Fore
SplineSet
333 97 m 2x60
 370 239 l 1
 286 101 166 -11 102 -11 c 0x80
 82 -11 67 7 67 30 c 0
 67 45 69 67 71 77 c 2
 134 374 l 2
 135 379 136 387 136 392 c 0
 136 403 129 412 119 412 c 0
 110 412 99 407 71 389 c 2
 39 368 l 1
 32 388 l 1
 60 408 l 2
 134 461 172 482 193 482 c 0
 207 482 215 471 215 451 c 0
 215 438 213 424 210 408 c 2
 153 137 l 2
 147 111 146 100 146 85 c 0
 146 68 150 59 159 59 c 0
 200 59 276 129 336 221 c 0
 367 268 392 336 407 414 c 2
 417 465 l 1
 485 482 l 1
 492 473 l 1
 462 357 431 227 408 116 c 1
 407 110 l 2
 403 94 402 84 402 76 c 0
 402 66 407 59 415 59 c 0
 427 59 451 70 476 86 c 2
 502 103 l 1
 512 85 l 1
 416 13 377 -9 352 -9 c 0
 333 -9 322 6 322 31 c 0
 322 47 326 72 333 97 c 2x60
302 518 m 1
 455 669 l 2
 467 681 478 687 488 687 c 0
 508 687 526 673 526 656 c 0
 526 641 519 632 498 619 c 2
 336 518 l 1
 302 518 l 1
EndSplineSet
Validated: 1
EndChar

StartChar: ucircumflex
Encoding: 186 251 222
Width: 556
Flags: MW
HStem: -11 20 -9 20 462 20<182.5 200 485 485>
LayerCount: 2
Fore
SplineSet
333 97 m 2x60
 370 239 l 1
 286 101 166 -11 102 -11 c 0x80
 82 -11 67 7 67 30 c 0
 67 45 69 67 71 77 c 2
 134 374 l 2
 135 379 136 387 136 392 c 0
 136 403 129 412 119 412 c 0
 110 412 99 407 71 389 c 2
 39 368 l 1
 32 388 l 1
 60 408 l 2
 134 461 172 482 193 482 c 0
 207 482 215 471 215 451 c 0
 215 438 213 424 210 408 c 2
 153 137 l 2
 147 111 146 100 146 85 c 0
 146 68 150 59 159 59 c 0
 200 59 276 129 336 221 c 0
 367 268 392 336 407 414 c 2
 417 465 l 1
 485 482 l 1
 492 473 l 1
 462 357 431 227 408 116 c 1
 407 110 l 2
 403 94 402 84 402 76 c 0
 402 66 407 59 415 59 c 0
 427 59 451 70 476 86 c 2
 502 103 l 1
 512 85 l 1
 416 13 377 -9 352 -9 c 0
 333 -9 322 6 322 31 c 0
 322 47 326 72 333 97 c 2x60
374 679 m 1
 461 510 l 1
 426 510 l 1
 344 614 l 1
 207 510 l 1
 168 510 l 1
 325 679 l 1
 374 679 l 1
EndSplineSet
Validated: 1
EndChar

StartChar: udieresis
Encoding: 187 252 223
Width: 556
Flags: MW
HStem: -11 20 -9 20 462 20<182.5 200 485 485> 537 100<227 253 427 453>
VStem: 190 100<575 600.5 575 601> 390 100<575 600.5 575 601>
LayerCount: 2
Fore
SplineSet
333 97 m 2x6c
 370 239 l 1
 286 101 166 -11 102 -11 c 0x9c
 82 -11 67 7 67 30 c 0
 67 45 69 67 71 77 c 2
 134 374 l 2
 135 379 136 387 136 392 c 0
 136 403 129 412 119 412 c 0
 110 412 99 407 71 389 c 2
 39 368 l 1
 32 388 l 1
 60 408 l 2
 134 461 172 482 193 482 c 0
 207 482 215 471 215 451 c 0
 215 438 213 424 210 408 c 2
 153 137 l 2
 147 111 146 100 146 85 c 0
 146 68 150 59 159 59 c 0
 200 59 276 129 336 221 c 0
 367 268 392 336 407 414 c 2
 417 465 l 1
 485 482 l 1
 492 473 l 1
 462 357 431 227 408 116 c 1
 407 110 l 2
 403 94 402 84 402 76 c 0
 402 66 407 59 415 59 c 0
 427 59 451 70 476 86 c 2
 502 103 l 1
 512 85 l 1
 416 13 377 -9 352 -9 c 0
 333 -9 322 6 322 31 c 0
 322 47 326 72 333 97 c 2x6c
240 637 m 0
 266 637 290 613 290 588 c 0
 290 562 266 537 240 537 c 0
 214 537 190 562 190 588 c 0
 190 614 214 637 240 637 c 0
440 637 m 0
 466 637 490 613 490 588 c 0
 490 562 466 537 440 537 c 0
 414 537 390 562 390 588 c 0
 390 614 414 637 440 637 c 0
EndSplineSet
Validated: 1
EndChar

StartChar: ugrave
Encoding: 184 249 224
Width: 556
Flags: MW
HStem: -11 20 -9 20 462 20<182.5 200 485 485>
LayerCount: 2
Fore
SplineSet
333 97 m 2x60
 370 239 l 1
 286 101 166 -11 102 -11 c 0x80
 82 -11 67 7 67 30 c 0
 67 45 69 67 71 77 c 2
 134 374 l 2
 135 379 136 387 136 392 c 0
 136 403 129 412 119 412 c 0
 110 412 99 407 71 389 c 2
 39 368 l 1
 32 388 l 1
 60 408 l 2
 134 461 172 482 193 482 c 0
 207 482 215 471 215 451 c 0
 215 438 213 424 210 408 c 2
 153 137 l 2
 147 111 146 100 146 85 c 0
 146 68 150 59 159 59 c 0
 200 59 276 129 336 221 c 0
 367 268 392 336 407 414 c 2
 417 465 l 1
 485 482 l 1
 492 473 l 1
 462 357 431 227 408 116 c 1
 407 110 l 2
 403 94 402 84 402 76 c 0
 402 66 407 59 415 59 c 0
 427 59 451 70 476 86 c 2
 502 103 l 1
 512 85 l 1
 416 13 377 -9 352 -9 c 0
 333 -9 322 6 322 31 c 0
 322 47 326 72 333 97 c 2x60
358 518 m 1
 196 619 l 2
 175 632 168 641 168 656 c 0
 168 673 186 687 206 687 c 0
 215 687 227 681 239 669 c 2
 392 518 l 1
 358 518 l 1
EndSplineSet
Validated: 1
EndChar

StartChar: yacute
Encoding: 188 253 225
Width: 500
Flags: MW
HStem: -276 42<93.5 127> -11 20 462 20<153.5 168.5 479 479>
VStem: -8 57<-219.5 -169.5> 111 73<357.5 441.5>
LayerCount: 2
Fore
SplineSet
-7 -180 m 1
 41 -146 l 1
 51 -150 l 1
 50 -159 49 -167 49 -172 c 0
 49 -207 76 -234 111 -234 c 0
 181 -234 231 -161 282 16 c 2
 331 187 l 1
 256 74 172 -11 135 -11 c 0
 109 -11 92 17 92 60 c 2
 93 100 l 1
 110 343 l 2
 111 351 111 357 111 358 c 0
 111 392 103 410 89 410 c 0
 84 410 84 410 64 398 c 2
 14 368 l 1
 3 386 l 1
 85 442 l 2
 133 475 147 482 160 482 c 0
 177 482 184 464 184 419 c 0
 184 391 182 353 180 322 c 2
 165 128 l 1
 165 116 l 2
 165 86 173 67 185 67 c 0
 207 67 256 111 290 162 c 0
 323 211 358 284 370 331 c 2
 405 463 l 1
 427 465 451 471 479 482 c 1
 490 473 l 1
 349 33 l 2
 290 -152 180 -276 74 -276 c 0
 29 -276 -8 -241 -8 -198 c 0
 -8 -193 -8 -187 -7 -180 c 1
206 518 m 1
 358 669 l 2
 371 681 382 687 391 687 c 0
 412 687 430 673 430 656 c 0
 430 641 424 633 401 619 c 2
 240 518 l 1
 206 518 l 1
EndSplineSet
Validated: 1
EndChar

StartChar: ydieresis
Encoding: 190 255 226
Width: 500
Flags: MW
HStem: -276 42<93.5 127> -11 20 462 20<153.5 168.5 479 479> 537 100<199 225 398 424>
VStem: -8 57<-219.5 -169.5> 111 73<357.5 441.5> 162 100<575 600.5 575 601> 361 100<575 600.5 575 601>
LayerCount: 2
Fore
SplineSet
-7 -180 m 1xfc
 41 -146 l 1
 51 -150 l 1
 50 -159 49 -167 49 -172 c 0
 49 -207 76 -234 111 -234 c 0
 181 -234 231 -161 282 16 c 2
 331 187 l 1
 256 74 172 -11 135 -11 c 0
 109 -11 92 17 92 60 c 2
 93 100 l 1
 110 343 l 2
 111 351 111 357 111 358 c 0
 111 392 103 410 89 410 c 0
 84 410 84 410 64 398 c 2
 14 368 l 1
 3 386 l 1
 85 442 l 2
 133 475 147 482 160 482 c 0
 177 482 184 464 184 419 c 0
 184 391 182 353 180 322 c 2
 165 128 l 1
 165 116 l 2
 165 86 173 67 185 67 c 0
 207 67 256 111 290 162 c 0
 323 211 358 284 370 331 c 2
 405 463 l 1
 427 465 451 471 479 482 c 1
 490 473 l 1
 349 33 l 2
 290 -152 180 -276 74 -276 c 0
 29 -276 -8 -241 -8 -198 c 0
 -8 -193 -8 -187 -7 -180 c 1xfc
212 637 m 0xf3
 238 637 262 613 262 588 c 0
 262 562 238 537 212 537 c 0
 186 537 162 562 162 588 c 0
 162 614 186 637 212 637 c 0xf3
411 637 m 0
 437 637 461 613 461 588 c 0
 461 562 437 537 411 537 c 0
 385 537 361 562 361 588 c 0
 361 614 385 637 411 637 c 0
EndSplineSet
Validated: 1
EndChar

StartChar: zcaron
Encoding: 317 382 227
Width: 444
Flags: MW
HStem: -11 68<312.5 328.5> 413 69<127 140.5>
LayerCount: 2
Fore
SplineSet
-1 21 m 1
 352 421 l 1
 319 404 295 398 259 398 c 0
 238 398 212 401 178 408 c 0
 157 412 148 413 133 413 c 0
 119 413 111 412 94 408 c 1
 64 350 l 1
 43 350 l 1
 75 472 l 1
 99 479 118 482 136 482 c 0
 150 482 169 478 198 471 c 2
 216 466 l 2
 266 453 315 445 350 445 c 0
 364 445 374 449 384 459 c 2
 407 482 l 1
 416 473 l 1
 410 441 l 1
 71 59 l 1
 107 74 133 80 166 80 c 0
 186 80 218 76 252 68 c 2
 270 64 l 2
 292 59 306 57 319 57 c 0
 340 57 352 64 358 82 c 2
 380 142 l 1
 402 142 l 1
 391 95 383 61 372 -1 c 1
 342 -10 335 -11 322 -11 c 0
 294 -11 265 -6 204 9 c 0
 150 22 125 26 99 26 c 0
 64 26 37 17 8 -6 c 1
 -1 21 l 1
284 510 m 1
 238 510 l 1
 142 679 l 1
 179 679 l 1
 269 574 l 1
 411 679 l 1
 447 679 l 1
 284 510 l 1
EndSplineSet
Validated: 1
EndChar

StartChar: nsuperior
Encoding: 597 8319 228
Width: 457
Flags: MW
HStem: 276 20
LayerCount: 2
Fore
SplineSet
117 516 m 1
 136 529 l 2
 179 560 204 573 218 573 c 0
 229 573 235 565 235 551 c 0
 235 544 234 540 231 526 c 2
 212 447 l 1
 236 479 254 499 274 518 c 0
 310 551 352 573 378 573 c 0
 392 573 400 564 400 549 c 0
 400 538 398 524 393 504 c 2
 354 341 l 2
 353 338 352 333 352 331 c 0
 352 326 354 322 357 322 c 0
 362 322 377 330 392 339 c 2
 410 351 l 1
 419 335 l 1
 413 330 l 1
 403 323 l 2
 360 291 334 277 319 277 c 0
 306 277 298 287 298 304 c 0
 298 313 300 324 304 344 c 2
 306 350 l 1
 337 475 l 2
 341 492 343 505 343 516 c 0
 343 523 341 527 336 527 c 0
 307 527 255 481 223 425 c 0
 204 391 194 357 183 288 c 1
 168 285 155 282 137 276 c 1
 131 286 l 1
 155 371 180 485 180 516 c 0
 180 522 177 527 173 527 c 0
 171 527 162 522 146 512 c 2
 123 498 l 1
 117 516 l 1
EndSplineSet
Validated: 1
EndChar

StartChar: ff
Encoding: 849 64256 229
Width: 537
Flags: MW
HStem: -276 63<-132.5 -55>
LayerCount: 2
Fore
SplineSet
286 383 m 1
 182 383 l 1
 173 342 166 308 163 295 c 0
 90 -57 68 -126 7 -198 c 0
 -32 -245 -86 -276 -127 -276 c 0
 -138 -276 -153 -273 -162 -268 c 1
 -157 -259 -143 -211 -139 -188 c 1
 -125 -184 l 1
 -107 -206 -96 -213 -73 -213 c 0
 -37 -213 -7 -182 11 -123 c 0
 33 -54 70 132 100 327 c 2
 109 383 l 1
 28 383 l 1
 33 405 l 1
 58 414 78 422 119 442 c 1
 134 521 l 2
 145 578 157 607 179 630 c 0
 201 653 285 715 308 726 c 0
 316 730 332 733 343 733 c 0
 367 733 395 728 413 720 c 1
 408 705 l 2
 401 686 388 649 385 638 c 1
 375 634 l 1
 360 658 333 673 304 673 c 0
 257 673 229 635 213 549 c 2
 192 437 l 1
 207 437 l 2
 258 437 271 438 292 444 c 2
 299 446 l 1
 303 439 l 1
 297 425 290 402 286 383 c 1
554 383 m 1
 450 383 l 1
 441 342 433 308 431 295 c 0
 358 -56 336 -126 275 -198 c 0
 235 -245 182 -276 141 -276 c 0
 130 -276 115 -273 106 -268 c 1
 111 -259 125 -210 129 -188 c 1
 143 -184 l 1
 160 -206 172 -213 194 -213 c 0
 231 -213 260 -182 279 -123 c 0
 300 -54 337 132 368 327 c 2
 377 383 l 1
 296 383 l 1
 301 405 l 1
 327 414 345 422 387 442 c 1
 402 521 l 2
 412 578 425 607 447 630 c 0
 469 653 552 715 576 726 c 0
 584 730 599 733 610 733 c 0
 635 733 663 728 681 720 c 1
 675 705 l 2
 668 685 657 652 653 638 c 1
 643 634 l 1
 628 658 600 673 571 673 c 0
 525 673 497 635 481 549 c 2
 460 437 l 1
 475 437 l 2
 525 437 538 438 559 444 c 2
 567 446 l 1
 571 439 l 1
 565 425 558 402 554 383 c 1
EndSplineSet
Validated: 1
Ligature2: "'liga' Standard Ligatures in Latin lookup 16 subtable" f f
EndChar

StartChar: ffi
Encoding: 852 64259 230
Width: 791
Flags: MW
HStem: -276 63<-120.5 -43> -9 20 462 20<694 702.5>
LayerCount: 2
Fore
SplineSet
311 446 m 1
 315 439 l 1
 311 430 309 423 305 408 c 1
 325 415 344 424 382 442 c 1
 397 521 l 2
 407 578 420 608 442 630 c 0
 473 662 541 718 559 726 c 0
 568 730 582 733 594 733 c 0
 606 733 619 730 638 724 c 1
 630 701 625 681 617 635 c 1
 605 632 l 1
 595 658 577 673 554 673 c 0
 519 673 490 628 476 549 c 2
 455 437 l 1
 544 432 l 1
 548 432 l 2
 572 432 602 442 656 467 c 0
 680 479 690 482 698 482 c 0
 707 482 713 469 713 448 c 0
 713 434 712 429 708 406 c 2
 646 108 l 2
 644 94 642 83 642 74 c 0
 642 61 646 54 655 54 c 0
 667 54 684 62 702 75 c 2
 736 101 l 1
 745 81 l 1
 671 21 620 -9 594 -9 c 0
 572 -9 560 6 560 33 c 0
 560 46 562 66 566 81 c 2
 625 355 l 1
 625 357 l 1
 626 360 l 2
 630 372 633 386 633 392 c 0
 633 406 625 415 614 415 c 0
 608 415 604 414 587 406 c 2
 535 383 l 1
 445 383 l 1
 436 345 428 306 426 295 c 0
 353 -55 331 -126 270 -198 c 0
 230 -245 177 -276 136 -276 c 0
 125 -276 110 -273 101 -268 c 1
 106 -259 120 -211 124 -188 c 1
 138 -184 l 1
 155 -206 167 -213 189 -213 c 0
 226 -213 255 -182 274 -123 c 0
 295 -54 332 132 363 327 c 2
 372 383 l 1
 194 383 l 1
 185 342 178 308 175 295 c 0
 102 -57 80 -126 19 -198 c 0
 -20 -245 -74 -276 -115 -276 c 0
 -126 -276 -141 -273 -150 -268 c 1
 -145 -259 -131 -211 -127 -188 c 1
 -113 -184 l 1
 -95 -206 -84 -213 -61 -213 c 0
 -25 -213 5 -182 23 -123 c 0
 45 -54 82 132 112 327 c 2
 121 383 l 1
 40 383 l 1
 45 405 l 1
 71 414 88 422 131 442 c 1
 146 521 l 2
 157 578 169 608 191 630 c 0
 214 654 296 715 320 726 c 0
 328 730 344 733 355 733 c 0
 379 733 407 728 425 720 c 1
 420 705 l 2
 413 686 400 649 397 638 c 1
 387 634 l 1
 372 658 345 673 316 673 c 0
 269 673 241 635 225 549 c 2
 204 437 l 1
 219 437 l 2
 270 437 283 438 304 444 c 2
 311 446 l 1
728 712 m 0
 748 712 765 693 765 671 c 0
 765 633 741 604 710 604 c 0
 686 604 671 620 671 645 c 0
 671 678 699 712 728 712 c 0
EndSplineSet
Validated: 1
Ligature2: "'liga' Standard Ligatures in Latin lookup 15 subtable" f f i
EndChar

StartChar: ffl
Encoding: 853 64260 231
Width: 815
Flags: MW
HStem: -276 63<-100.5 -23> -9 20
LayerCount: 2
Fore
SplineSet
379 383 m 1
 214 383 l 1
 205 342 198 308 195 295 c 0
 122 -57 100 -126 39 -198 c 0
 0 -245 -54 -276 -95 -276 c 0
 -106 -276 -121 -273 -130 -268 c 1
 -125 -259 -111 -211 -107 -188 c 1
 -93 -184 l 1
 -75 -206 -64 -213 -41 -213 c 0
 -5 -213 25 -182 43 -123 c 0
 65 -54 102 132 132 327 c 2
 141 383 l 1
 60 383 l 1
 65 405 l 1
 90 414 110 422 151 442 c 1
 166 521 l 2
 177 578 189 607 211 630 c 0
 233 653 317 715 340 726 c 0
 348 730 364 733 375 733 c 0
 399 733 427 728 445 720 c 1
 440 705 l 2
 433 686 420 649 417 638 c 1
 407 634 l 1
 392 658 365 673 336 673 c 0
 289 673 261 635 245 549 c 2
 224 437 l 1
 239 437 l 2
 290 437 303 438 324 444 c 2
 331 446 l 1
 335 439 l 1
 331 429 330 425 326 414 c 1
 346 422 361 429 389 442 c 1
 404 521 l 2
 415 579 427 607 449 630 c 0
 471 653 555 715 578 726 c 0
 587 730 603 733 615 733 c 0
 627 733 638 731 653 725 c 1
 646 697 l 1
 692 697 734 709 774 733 c 1
 790 725 l 1
 667 150 l 2
 660 117 657 95 657 79 c 0
 657 64 662 56 673 56 c 0
 684 56 695 61 713 74 c 2
 761 108 l 1
 770 87 l 1
 735 61 l 2
 656 2 637 -9 606 -9 c 0
 587 -9 577 4 577 30 c 0
 577 45 578 54 585 83 c 0
 586 91 588 99 589 101 c 2
 589 104 l 2
 590 106 590 107 590 107 c 1
 674 506 l 2
 694 599 694 601 696 642 c 1
 690 664 l 1
 677 669 664 672 657 672 c 2
 641 673 l 1
 635 632 l 1
 625 632 l 1
 616 657 598 669 570 669 c 0
 523 669 499 636 483 549 c 2
 462 437 l 1
 478 437 l 2
 528 437 541 438 562 444 c 2
 569 446 l 1
 573 439 l 1
 568 426 561 403 556 383 c 1
 452 383 l 1
 443 343 436 307 433 295 c 0
 360 -56 338 -126 278 -198 c 0
 238 -245 184 -276 144 -276 c 0
 132 -276 117 -273 108 -268 c 1
 113 -258 126 -213 131 -188 c 1
 145 -184 l 1
 163 -206 174 -213 197 -213 c 0
 233 -213 263 -182 281 -123 c 0
 303 -53 339 130 370 327 c 2
 379 383 l 1
EndSplineSet
Validated: 1
Ligature2: "'liga' Standard Ligatures in Latin lookup 16 subtable" f f l
EndChar

StartChar: oneeighth
Encoding: 623 8539 232
Width: 700
Flags: MW
HStem: -6 31<500.5 540.5> 0 20 387 32<556.5 587.5> 679 20<233 239>
VStem: 406 52<70 107> 455 47<299 324.5> 598 52<100 135.5> 626 47<320.5 348>
LayerCount: 2
Fore
SplineSet
186 0 m 1x5a
 130 0 l 1
 581 699 l 1
 637 699 l 1
 186 0 l 1x5a
243 693 m 1
 239 679 l 2
 235 662 232 651 229 633 c 2
 177 353 l 2
 176 347 175 339 175 333 c 0
 175 313 183 307 213 305 c 2
 255 302 l 1
 251 278 l 1
 199 279 l 2
 186 280 155 280 141 280 c 0
 127 280 96 280 83 279 c 2
 31 278 l 1
 36 302 l 1
 85 308 l 2
 105 311 110 319 116 349 c 2
 170 649 l 1
 145 639 131 633 109 624 c 2
 55 600 l 1
 50 603 l 1
 57 646 l 1
 109 657 129 663 164 675 c 2
 233 699 l 1
 243 693 l 1
511 211 m 1
 473 233 455 260 455 293 c 0
 455 356 523 419 590 419 c 0
 641 419 673 390 673 343 c 0xa5
 673 298 652 270 587 227 c 1
 635 200 650 179 650 138 c 0
 650 62 580 -6 501 -6 c 0xaa
 444 -6 406 28 406 80 c 0
 406 134 440 176 511 211 c 1
550 190 m 2xaa
 534 199 l 1
 484 173 458 137 458 91 c 0
 458 49 481 25 520 25 c 0
 566 25 598 64 598 118 c 0
 598 153 588 168 550 190 c 2xaa
544 250 m 2xa5
 563 240 l 1
 604 266 626 297 626 331 c 0
 626 365 604 387 571 387 c 0
 531 387 502 355 502 311 c 0
 502 287 517 265 544 250 c 2xa5
EndSplineSet
Validated: 1
Ligature2: "'frac' Diagonal Fractions lookup 10 subtable" onesuperior fraction eightsuperior
Ligature2: "'frac' Diagonal Fractions lookup 10 subtable" onesuperior slash eightsuperior
Ligature2: "'frac' Diagonal Fractions lookup 10 subtable" one fraction eight
Ligature2: "'frac' Diagonal Fractions lookup 10 subtable" one slash eight
EndChar

StartChar: threeeighths
Encoding: 624 8540 233
Width: 687
Flags: MW
HStem: -6 31<500.5 540.5> 0 20 273 26<117 169> 387 32<556.5 587.5> 491 32<151.5 173.5 133 185.5> 658 41<188 196>
VStem: 241 58<599 623.5> 242 62<385 440.5> 406 52<70 107> 455 47<298.5 324.5> 598 52<100 135.5> 626 47<320.5 348>
LayerCount: 2
Fore
SplineSet
186 0 m 1x44a0
 130 0 l 1
 581 699 l 1
 637 699 l 1
 186 0 l 1x44a0
511 211 m 1
 473 233 455 260 455 293 c 0
 455 356 523 419 590 419 c 0
 641 419 673 390 673 343 c 0xbc50
 673 298 652 270 587 227 c 1
 635 200 650 179 650 138 c 0
 650 62 580 -6 501 -6 c 0xbca0
 443 -6 406 28 406 80 c 0
 406 134 440 176 511 211 c 1
550 190 m 2xbca0
 534 199 l 1
 484 173 458 137 458 91 c 0
 458 49 481 25 520 25 c 0
 566 25 598 64 598 118 c 0
 598 153 588 168 550 190 c 2xbca0
544 250 m 2xbd50
 563 240 l 1
 604 265 626 297 626 331 c 0
 626 365 604 387 571 387 c 0
 531 387 502 355 502 311 c 0
 502 286 517 265 544 250 c 2xbd50
28 299 m 1
 46 386 l 1
 68 383 l 1
 66 374 65 367 65 358 c 0
 65 320 92 299 142 299 c 0
 196 299 242 353 242 417 c 0xbd
 242 464 212 491 159 491 c 0
 144 491 133 489 110 481 c 1
 106 494 l 1
 117 524 l 1
 124 524 131 524 133 523 c 2
 147 523 l 2
 200 523 241 560 241 610 c 0
 241 637 214 658 178 658 c 0
 152 658 132 647 114 624 c 2
 101 607 l 1
 86 617 l 1
 124 680 l 1
 158 695 176 699 200 699 c 0
 258 699 299 667 299 621 c 0xbe
 299 577 273 547 203 515 c 1
 276 500 304 474 304 421 c 0
 304 339 224 273 123 273 c 0
 84 273 59 280 28 299 c 1
EndSplineSet
Validated: 1
Ligature2: "'frac' Diagonal Fractions lookup 12 subtable" threesuperior fraction eightsuperior
Ligature2: "'frac' Diagonal Fractions lookup 12 subtable" threesuperior slash eightsuperior
Ligature2: "'frac' Diagonal Fractions lookup 12 subtable" three fraction eight
Ligature2: "'frac' Diagonal Fractions lookup 12 subtable" three slash eight
EndChar

StartChar: fiveeighths
Encoding: 625 8541 234
Width: 687
Flags: MW
HStem: -6 31<500.5 540> 0 20 276 28<95.5 146 95.5 152> 387 32<555.5 587> 512 33<155 168.5> 647 47<199 201> 679 20<561 617 617 617>
VStem: 217 58<397.5 457> 406 52<70 107> 454 48<299 324> 597 52<100 135.5> 625 47<320.5 348>
LayerCount: 2
Fore
SplineSet
166 0 m 1x42a0
 110 0 l 1
 561 699 l 1
 617 699 l 1
 166 0 l 1x42a0
511 211 m 1
 472 233 454 259 454 293 c 0
 454 355 522 419 589 419 c 0
 640 419 672 390 672 343 c 0xbc50
 672 298 651 270 586 227 c 1
 635 200 649 179 649 138 c 0
 649 62 579 -6 501 -6 c 0xbca0
 443 -6 406 28 406 80 c 0
 406 134 440 176 511 211 c 1
550 190 m 2xbca0
 534 199 l 1
 484 173 458 136 458 91 c 0
 458 49 481 25 520 25 c 0
 565 25 597 64 597 118 c 0
 597 153 586 169 550 190 c 2xbca0
543 250 m 2xbd50
 562 240 l 1
 603 265 625 297 625 331 c 0
 625 365 604 387 570 387 c 0
 531 387 502 355 502 311 c 0
 502 287 517 264 543 250 c 2xbd50
74 476 m 1
 57 483 l 1
 96 694 l 1
 103 698 l 1
 117 697 l 2
 151 695 175 694 199 694 c 2
 213 694 l 1
 224 694 l 2
 231 694 233 694 276 695 c 2
 297 696 l 1
 303 688 l 1
 280 650 l 1
 273 650 l 2
 246 648 212 647 190 647 c 0
 170 647 141 648 120 650 c 1
 92 520 l 1
 112 536 140 545 170 545 c 0
 234 545 275 505 275 443 c 0
 275 352 198 276 106 276 c 0
 66 276 41 284 9 309 c 1
 15 330 21 355 28 396 c 1
 48 392 l 1
 46 376 46 373 46 366 c 0
 46 329 74 304 117 304 c 0
 175 304 217 357 217 431 c 0
 217 483 191 512 146 512 c 0
 118 512 101 504 74 476 c 1
EndSplineSet
Validated: 1
Ligature2: "'frac' Diagonal Fractions lookup 13 subtable" fivesuperior fraction eightsuperior
Ligature2: "'frac' Diagonal Fractions lookup 13 subtable" fivesuperior slash eightsuperior
Ligature2: "'frac' Diagonal Fractions lookup 13 subtable" five fraction eight
Ligature2: "'frac' Diagonal Fractions lookup 13 subtable" five slash eight
EndChar

StartChar: seveneighths
Encoding: 626 8542 235
Width: 687
Flags: MW
HStem: -6 31<501.5 540.5> 0 20 387 32<556 587.5> 644 50<242 248 242 258> 679 20<534 590 590 590>
VStem: 407 52<70 107> 455 47<298.5 324.5> 598 52<100 135.5> 626 47<320.5 348>
LayerCount: 2
Fore
SplineSet
139 0 m 1x4d
 83 0 l 1
 534 699 l 1
 590 699 l 1
 139 0 l 1x4d
511 211 m 1
 473 233 455 260 455 293 c 0
 455 356 523 419 589 419 c 0
 641 419 673 390 673 343 c 0xb280
 673 298 652 270 587 227 c 1
 635 200 650 179 650 138 c 0
 650 62 580 -6 501 -6 c 0xb5
 444 -6 407 28 407 80 c 0
 407 134 441 176 511 211 c 1
550 190 m 2xb5
 535 199 l 1
 485 173 459 137 459 91 c 0
 459 49 482 25 521 25 c 0
 566 25 598 64 598 118 c 0
 598 153 587 169 550 190 c 2xb5
544 250 m 2xb280
 563 240 l 1
 604 266 626 297 626 331 c 0
 626 365 604 387 571 387 c 0
 531 387 502 355 502 311 c 0
 502 286 517 265 544 250 c 2xb280
33 289 m 1
 47 309 l 2
 63 334 76 355 95 384 c 2
 258 644 l 1
 119 644 l 1
 103 644 l 2
 101 644 91 643 72 642 c 2
 59 641 l 1
 52 645 l 1
 63 698 l 1
 81 697 l 1
 117 696 l 1
 201 695 l 1
 242 694 l 1
 248 694 l 1
 293 695 l 1
 310 695 l 1
 310 670 l 1
 234 549 l 2
 186 474 137 382 91 280 c 1
 89 281 87 281 86 281 c 2
 84 281 l 2
 72 282 69 282 66 282 c 0
 63 282 58 282 52 281 c 0
 47 281 45 281 38 280 c 1
 33 289 l 1
EndSplineSet
Validated: 1
Ligature2: "'frac' Diagonal Fractions lookup 14 subtable" sevensuperior fraction eightsuperior
Ligature2: "'frac' Diagonal Fractions lookup 14 subtable" sevensuperior slash eightsuperior
Ligature2: "'frac' Diagonal Fractions lookup 14 subtable" seven fraction eight
Ligature2: "'frac' Diagonal Fractions lookup 14 subtable" seven slash eight
EndChar

StartChar: zerosuperior
Encoding: 590 8304 236
Width: 310
Flags: MW
HStem: 276 24<122 158.5 122 162.5> 677 24<176.5 214.5>
VStem: 32 52<375.5 415.5 360.5 463> 253 52<552.5 604.5 524.5 614>
LayerCount: 2
Fore
SplineSet
198 701 m 0
 264 701 305 648 305 561 c 0
 305 488 286 408 257 356 c 0
 227 303 187 276 138 276 c 0
 70 276 32 328 32 423 c 0
 32 503 55 589 91 640 c 0
 120 681 155 701 198 701 c 0
195 677 m 0
 154 677 128 643 107 559 c 0
 93 504 84 440 84 391 c 0
 84 330 103 300 141 300 c 0
 176 300 200 327 221 388 c 0
 239 438 253 523 253 582 c 0
 253 646 234 677 195 677 c 0
EndSplineSet
Validated: 1
EndChar

StartChar: foursuperior
Encoding: 591 8308 237
Width: 310
Flags: MW
HStem: 395 40<64 169 228 258> 682 20<266 266>
LayerCount: 2
Fore
SplineSet
18 418 m 1
 222 692 l 1
 266 702 l 1
 277 697 l 1
 228 435 l 1
 298 435 l 1
 303 429 l 1
 292 392 l 1
 269 394 258 395 258 395 c 1
 220 395 l 1
 215 366 l 2
 212 343 210 329 210 318 c 0
 210 312 213 310 229 308 c 2
 281 302 l 1
 277 280 l 1
 242 281 214 282 175 282 c 0
 134 282 106 281 71 280 c 1
 76 302 l 1
 130 308 l 2
 148 311 153 315 158 339 c 2
 169 395 l 1
 18 395 l 1
 18 418 l 1
213 638 m 1
 64 435 l 1
 176 435 l 1
 213 638 l 1
EndSplineSet
Validated: 1
EndChar

StartChar: fivesuperior
Encoding: 592 8309 238
Width: 310
Flags: MW
HStem: 276 28<101.5 152 101.5 158> 512 33<161 174.5> 647 47<205 207> 678 20<109 109>
VStem: 223 58<397.5 457>
LayerCount: 2
Fore
SplineSet
80 476 m 1xe8
 63 483 l 1
 102 694 l 1x28
 109 698 l 1x18
 123 697 l 2
 157 695 181 694 205 694 c 2
 219 694 l 1
 230 694 l 2
 237 694 239 694 282 695 c 2
 303 696 l 1
 309 688 l 1
 286 650 l 1
 279 650 l 2
 252 648 218 647 196 647 c 0
 176 647 147 648 126 650 c 1
 98 520 l 1
 118 536 146 545 176 545 c 0
 240 545 281 505 281 443 c 0
 281 352 204 276 112 276 c 0
 72 276 47 284 15 309 c 1
 21 330 27 355 34 396 c 1
 54 392 l 1
 52 376 52 373 52 366 c 0
 52 329 80 304 123 304 c 0
 181 304 223 357 223 431 c 0
 223 483 197 512 152 512 c 0
 124 512 107 504 80 476 c 1xe8
EndSplineSet
Validated: 1
EndChar

StartChar: sixsuperior
Encoding: 593 8310 239
Width: 310
Flags: MW
HStem: 276 34<134 174> 496 39<181 191.5> 667 34<237 248>
VStem: 39 52<364.5 419.5 364.5 442.5> 233 52<397 447.5>
LayerCount: 2
Fore
SplineSet
298 698 m 1
 287 657 l 1
 279 656 l 1
 264 664 255 667 241 667 c 0
 177 667 127 602 99 482 c 1
 131 519 162 535 200 535 c 0
 254 535 285 500 285 441 c 0
 285 353 214 276 134 276 c 0
 75 276 39 324 39 403 c 0
 39 482 68 560 120 623 c 0
 165 677 209 701 265 701 c 0
 279 701 287 700 298 698 c 1
172 496 m 0
 125 496 91 451 91 388 c 0
 91 341 115 310 153 310 c 0
 199 310 233 359 233 425 c 0
 233 470 211 496 172 496 c 0
EndSplineSet
Validated: 1
EndChar

StartChar: sevensuperior
Encoding: 594 8311 240
Width: 310
Flags: MW
HStem: 644 50<247 253 247 263> 678 20<68 68>
LayerCount: 2
Fore
SplineSet
38 289 m 1x80
 52 309 l 2
 68 334 81 355 100 384 c 2
 263 644 l 1
 124 644 l 1
 108 644 l 2x80
 106 644 96 643 77 642 c 2
 64 641 l 1
 57 645 l 1
 68 698 l 1x40
 86 697 l 1
 122 696 l 1
 206 695 l 1
 247 694 l 1
 253 694 l 1
 298 695 l 1
 315 695 l 1
 315 670 l 1
 239 549 l 2
 191 474 142 382 96 280 c 1
 94 281 92 281 91 281 c 2
 89 281 l 2
 77 282 74 282 71 282 c 0
 68 282 63 282 57 281 c 0
 52 281 50 281 43 280 c 1
 38 289 l 1x80
EndSplineSet
Validated: 1
EndChar

StartChar: eightsuperior
Encoding: 595 8312 241
Width: 310
Flags: MW
HStem: 276 31<124.5 164.5> 670 31<179.5 210.5>
VStem: 30 52<352 389> 79 47<581 606> 222 52<382 418> 249 47<602.5 631>
LayerCount: 2
Fore
SplineSet
135 494 m 1xe8
 97 515 79 542 79 575 c 0
 79 637 146 701 213 701 c 0
 264 701 296 672 296 625 c 0xd4
 296 580 276 553 210 509 c 1
 259 482 274 461 274 420 c 0
 274 344 204 276 125 276 c 0
 67 276 30 310 30 362 c 0
 30 416 64 459 135 494 c 1xe8
174 472 m 2xe8
 158 481 l 1
 108 456 82 419 82 373 c 0
 82 331 105 307 144 307 c 0
 190 307 222 346 222 401 c 0
 222 435 212 451 174 472 c 2xe8
168 532 m 2xd4
 186 522 l 1
 227 548 249 579 249 614 c 0
 249 648 227 670 194 670 c 0
 155 670 126 637 126 593 c 0
 126 569 141 547 168 532 c 2xd4
EndSplineSet
Validated: 1
EndChar

StartChar: ninesuperior
Encoding: 596 8313 242
Width: 310
Flags: MW
HStem: 276 35<96.5 142 96.5 148.5> 445 38<145.5 160> 668 33<158.5 200>
VStem: 50 52<537 587> 243 52<555.5 610>
LayerCount: 2
Fore
SplineSet
26 353 m 1
 45 360 l 1
 65 323 81 311 112 311 c 0
 172 311 210 367 237 496 c 1
 207 460 178 445 142 445 c 0
 86 445 50 485 50 545 c 0
 50 629 119 701 198 701 c 0
 261 701 295 655 295 569 c 0
 295 415 201 276 96 276 c 0
 79 276 64 280 46 288 c 0
 45 291 45 291 45 293 c 0
 44 294 41 307 35 330 c 0
 33 337 30 342 26 353 c 1
181 668 m 0
 135 668 102 624 102 562 c 0
 102 512 125 483 166 483 c 0
 211 483 243 526 243 585 c 0
 243 635 219 668 181 668 c 0
EndSplineSet
Validated: 1
EndChar

StartChar: IJ
Encoding: 241 306 243
Width: 666
Flags: MW
HStem: -206 32<329.5 350.5 320.5 363> 0 20 672 20<106 106 345 354 354 354 436 436 691 691>
LayerCount: 2
Fore
SplineSet
103 664 m 1
 106 692 l 1
 170 690 l 1
 248 689 l 2
 272 689 305 690 345 692 c 2
 354 692 l 1
 351 664 l 1
 316 661 l 2
 278 657 272 651 265 613 c 2
 176 78 l 2
 175 73 174 64 174 57 c 0
 174 37 183 30 210 28 c 2
 262 25 l 1
 259 -3 l 1
 227 -2 l 2
 185 -1 153 0 133 0 c 0
 113 0 81 -1 39 -2 c 2
 7 -3 l 1
 10 25 l 1
 46 28 l 2
 86 31 89 36 104 125 c 2
 176 559 l 2
 180 580 185 627 185 636 c 0
 185 653 174 661 150 662 c 2
 103 664 l 1
688 664 m 1
 646 661 l 2
 608 658 601 651 595 613 c 2
 510 54 l 2
 501 -7 492 -41 476 -78 c 0
 442 -159 390 -206 336 -206 c 0
 323 -206 313 -203 301 -196 c 1
 298 -170 l 1
 306 -173 314 -174 327 -174 c 0
 374 -174 404 -124 419 -21 c 2
 514 622 l 2
 515 627 515 630 515 635 c 0
 515 653 505 661 480 662 c 2
 433 664 l 1
 436 692 l 1
 500 690 l 1
 577 689 l 2
 597 689 628 690 667 691 c 2
 691 692 l 1
 688 664 l 1
EndSplineSet
Validated: 1
EndChar

StartChar: Abreve
Encoding: 193 258 244
Width: 722
Flags: MW
HStem: -3 20 0 20 277 36<270 486 270 491 245 486> 728 59<462 514>
LayerCount: 2
Fore
SplineSet
462 705 m 1x80
 508 705 l 1
 595 80 l 2
 603 35 604 35 651 28 c 2
 677 25 l 1
 677 -3 l 1xb0
 606 -1 578 0 555 0 c 0x40
 532 0 505 -1 433 -3 c 1
 433 25 l 1
 477 28 l 2
 505 30 520 39 520 55 c 0
 520 60 519 66 518 77 c 0
 517 84 517 84 516 89 c 2
 491 277 l 1
 245 277 l 1
 143 102 l 2
 123 68 117 55 117 47 c 0
 117 38 131 29 148 28 c 2
 200 25 l 1
 200 -3 l 1xa0
 129 0 116 0 93 0 c 0x40
 72 0 48 -1 -19 -3 c 1
 -19 27 l 1
 1 32 l 2
 35 40 53 56 89 112 c 2
 462 705 l 1x80
449 601 m 1
 270 313 l 1
 486 313 l 1
 449 601 l 1
357 887 m 1
 386 887 l 1
 392 821 428 787 494 787 c 0
 555 787 590 813 629 887 c 1
 657 887 l 1
 643 835 633 813 612 787 c 0
 581 747 540 728 488 728 c 0
 436 728 397 748 376 786 c 0
 361 813 357 837 357 887 c 1
EndSplineSet
Validated: 1
EndChar

StartChar: Aogonek
Encoding: 195 260 245
Width: 722
Flags: MW
HStem: -187 56<607 672.5> 0 20 277 36<270 486 270 491 245 486> 685 20<462 508 508 508>
VStem: 570 56<-142 -74.5>
LayerCount: 2
Fore
SplineSet
677 25 m 1
 677 -3 l 1
 670 -4 670 -4 660 -15 c 0
 636 -43 626 -64 626 -85 c 0
 626 -112 642 -131 664 -131 c 0
 681 -131 693 -123 714 -97 c 1
 728 -101 l 1
 695 -161 663 -187 623 -187 c 0
 591 -187 570 -162 570 -122 c 0
 570 -86 584 -59 630 -10 c 2
 637 -2 l 1
 595 0 576 0 555 0 c 0
 532 0 505 -1 433 -3 c 1
 433 25 l 1
 477 28 l 2
 505 30 520 39 520 55 c 0
 520 60 519 66 518 77 c 0
 517 84 517 84 516 89 c 2
 491 277 l 1
 245 277 l 1
 143 102 l 2
 123 68 117 55 117 47 c 0
 117 38 131 29 148 28 c 2
 200 25 l 1
 200 -3 l 1
 129 0 116 0 93 0 c 0
 72 0 48 -1 -19 -3 c 1
 -19 27 l 1
 1 32 l 2
 35 40 53 56 89 112 c 2
 462 705 l 1
 508 705 l 1
 595 80 l 2
 603 35 604 35 651 28 c 2
 677 25 l 1
449 601 m 1
 270 313 l 1
 486 313 l 1
 449 601 l 1
EndSplineSet
Validated: 1
EndChar

StartChar: Cacute
Encoding: 197 262 246
Width: 667
Flags: MW
HStem: -18 53<297 391> 653 53<415 454>
VStem: 45 88<220 360.5>
LayerCount: 2
Fore
SplineSet
597 519 m 1
 597 603 l 1
 542 639 490 653 418 653 c 0
 339 653 275 629 228 581 c 0
 167 519 133 421 133 309 c 0
 133 131 218 35 376 35 c 0
 454 35 506 52 600 110 c 1
 610 103 l 1
 600 67 l 1
 509 5 439 -18 343 -18 c 0
 151 -18 45 90 45 284 c 0
 45 437 105 555 222 634 c 0
 292 681 374 706 456 706 c 0
 518 706 574 694 651 665 c 1
 637 622 629 575 624 519 c 1
 597 519 l 1
389 728 m 1
 542 879 l 2
 554 891 565 897 575 897 c 0
 595 897 613 883 613 866 c 0
 613 851 606 842 585 829 c 2
 423 728 l 1
 389 728 l 1
EndSplineSet
Validated: 1
EndChar

StartChar: Ccaron
Encoding: 203 268 247
Width: 667
Flags: MW
HStem: -18 53<297 391> 653 53<415 454>
VStem: 45 88<220 360.5>
LayerCount: 2
Fore
SplineSet
597 519 m 1
 597 603 l 1
 542 639 490 653 418 653 c 0
 339 653 275 629 228 581 c 0
 167 519 133 421 133 309 c 0
 133 131 218 35 376 35 c 0
 454 35 506 52 600 110 c 1
 610 103 l 1
 600 67 l 1
 509 5 439 -18 343 -18 c 0
 151 -18 45 90 45 284 c 0
 45 437 105 555 222 634 c 0
 292 681 374 706 456 706 c 0
 518 706 574 694 651 665 c 1
 637 622 629 575 624 519 c 1
 597 519 l 1
475 757 m 1
 429 757 l 1
 333 926 l 1
 370 926 l 1
 460 821 l 1
 602 926 l 1
 638 926 l 1
 475 757 l 1
EndSplineSet
Validated: 1
EndChar

StartChar: Cdotaccent
Encoding: 201 266 248
Width: 667
Flags: MW
HStem: -18 53<297 391> 653 53<415 454> 747 108<441.5 470.5>
VStem: 45 88<220 360.5> 402 108<787.5 816 787.5 816.5>
LayerCount: 2
Fore
SplineSet
597 519 m 1
 597 603 l 1
 542 639 490 653 418 653 c 0
 339 653 275 629 228 581 c 0
 167 519 133 421 133 309 c 0
 133 131 218 35 376 35 c 0
 454 35 506 52 600 110 c 1
 610 103 l 1
 600 67 l 1
 509 5 439 -18 343 -18 c 0
 151 -18 45 90 45 284 c 0
 45 437 105 555 222 634 c 0
 292 681 374 706 456 706 c 0
 518 706 574 694 651 665 c 1
 637 622 629 575 624 519 c 1
 597 519 l 1
456 855 m 0
 485 855 510 830 510 802 c 0
 510 773 485 747 456 747 c 0
 427 747 402 773 402 802 c 0
 402 831 427 855 456 855 c 0
EndSplineSet
Validated: 1
EndChar

